<svg width="24" height="24" viewBox="0 0 24 24" fill="none" xmlns="http://www.w3.org/2000/svg">
<path d="M16.9393 4.93934C17.5251 4.35355 18.4746 4.35355 19.0604 4.93934C19.6462 5.52513 19.6462 6.47465 19.0604 7.06043L14.121 11.9999L19.0604 16.9393C19.6462 17.5251 19.6462 18.4746 19.0604 19.0604C18.4746 19.6462 17.5251 19.6462 16.9393 19.0604L11.9999 14.121L7.06043 19.0604C6.47465 19.6462 5.52513 19.6462 4.93934 19.0604C4.35355 18.4746 4.35355 17.5251 4.93934 16.9393L9.87879 11.9999L4.93934 7.06043C4.35355 6.47465 4.35355 5.52513 4.93934 4.93934C5.52513 4.35355 6.47465 4.35355 7.06043 4.93934L11.9999 9.87879L16.9393 4.93934Z" fill="#FFEFCE"/>
</svg>
