<svg width="38" height="38" viewBox="0 0 38 38" fill="none" xmlns="http://www.w3.org/2000/svg">
<path fill-rule="evenodd" clip-rule="evenodd" d="M19 0C29.4934 0 38 8.50659 38 19C38 29.4934 29.4934 38 19 38C8.50659 38 0 29.4934 0 19C0 8.50659 8.50659 0 19 0ZM19 3C10.1634 3 3 10.1634 3 19C3 27.8366 10.1634 35 19 35C27.8366 35 35 27.8366 35 19C35 10.1634 27.8366 3 19 3Z" fill="#FAE9D5"/>
<path fill-rule="evenodd" clip-rule="evenodd" d="M26 9C27.6569 9 29 10.3431 29 12V23C29 24.6569 27.6569 26 26 26H23V29H24C24.5523 29 25 29.4477 25 30C25 30.5523 24.5523 31 24 31H14C13.4477 31 13 30.5523 13 30C13 29.4477 13.4477 29 14 29H15V26H12C10.3431 26 9 24.6569 9 23V12C9 10.3431 10.3431 9 12 9H26ZM17 29H21V26H17V29ZM13 12C12.4477 12 12 12.4477 12 13V22C12 22.5523 12.4477 23 13 23H25C25.5523 23 26 22.5523 26 22V13C26 12.4477 25.5523 12 25 12H13Z" fill="#FAE9D5"/>
</svg>
