<svg width="38" height="38" viewBox="0 0 38 38" fill="none" xmlns="http://www.w3.org/2000/svg">
<path fill-rule="evenodd" clip-rule="evenodd" d="M19 0C29.4934 0 38 8.50659 38 19C38 29.4934 29.4934 38 19 38C8.50659 38 0 29.4934 0 19C0 8.50659 8.50659 0 19 0ZM19 3C10.1634 3 3 10.1634 3 19C3 27.8366 10.1634 35 19 35C27.8366 35 35 27.8366 35 19C35 10.1634 27.8366 3 19 3Z" fill="#FAE9D5"/>
<path fill-rule="evenodd" clip-rule="evenodd" d="M19 6C22.866 6 26 9.13401 26 13C26 15.413 24.7787 17.5402 22.9209 18.7988C26.4947 20.3237 29 23.8689 29 28C29 28.8284 28.3284 29.5 27.5 29.5C26.6716 29.5 26 28.8284 26 28C26 24.134 22.866 21 19 21C15.134 21 12 24.134 12 28C12 28.8284 11.3284 29.5 10.5 29.5C9.67157 29.5 9 28.8284 9 28C9 23.8693 11.5047 20.3239 15.0781 18.7988C13.2207 17.5402 12 15.4127 12 13C12 9.13401 15.134 6 19 6ZM19 9C16.7909 9 15 10.7909 15 13C15 15.2091 16.7909 17 19 17C21.2091 17 23 15.2091 23 13C23 10.7909 21.2091 9 19 9Z" fill="#FAE9D5"/>
</svg>
