<svg width="27" height="27" viewBox="0 0 27 27" fill="none" xmlns="http://www.w3.org/2000/svg">
<path d="M13.335 0C13.7298 4.3626e-05 14.1197 0.0877559 14.4766 0.256836L25.1416 5.3125C25.5976 5.5286 25.983 5.86954 26.2529 6.2959C26.5228 6.72239 26.6669 7.21696 26.667 7.72168V23.7158C26.667 24.0659 26.5978 24.4129 26.4639 24.7363C26.3299 25.0598 26.1333 25.354 25.8857 25.6016C25.6381 25.8491 25.344 26.0457 25.0205 26.1797C24.697 26.3137 24.3501 26.3818 24 26.3818H2.66699C2.31695 26.3818 1.9699 26.3136 1.64648 26.1797C1.32307 26.0457 1.02881 25.8491 0.78125 25.6016C0.533697 25.354 0.337135 25.0598 0.203125 24.7363C0.0691441 24.4129 3.25578e-05 24.0659 1.07335e-08 23.7158V7.72266C-4.52712e-05 7.21782 0.143185 6.72252 0.413086 6.2959C0.682918 5.8695 1.06845 5.52865 1.52441 5.3125L12.1924 0.256836C12.5493 0.0876791 12.94 0 13.335 0ZM13.335 2.99902C13.2364 2.99902 13.1389 3.02137 13.0498 3.06348L3.38086 7.12012C3.267 7.17411 3.17095 7.25976 3.10352 7.36621C3.03607 7.47274 3.0001 7.59657 3 7.72266V22.7158C3.00003 22.8033 3.01731 22.8899 3.05078 22.9707C3.08425 23.0515 3.13351 23.1247 3.19531 23.1865C3.25709 23.2483 3.33045 23.2976 3.41113 23.3311C3.49202 23.3646 3.57944 23.3818 3.66699 23.3818H7.25V15.2148C7.25002 14.7334 7.34505 14.2563 7.5293 13.8115C7.71356 13.3668 7.98382 12.9625 8.32422 12.6221C8.66465 12.2817 9.06892 12.0114 9.51367 11.8271C9.95846 11.643 10.4356 11.5488 10.917 11.5488H16.25C16.7315 11.5488 17.2085 11.6429 17.6533 11.8271C18.0981 12.0114 18.5023 12.2816 18.8428 12.6221C19.1832 12.9625 19.4534 13.3667 19.6377 13.8115C19.8219 14.2563 19.917 14.7334 19.917 15.2148V23.3818H23C23.0875 23.3818 23.174 23.3645 23.2549 23.3311C23.3358 23.2976 23.4098 23.2484 23.4717 23.1865C23.5334 23.1247 23.5828 23.0514 23.6162 22.9707C23.6497 22.8899 23.667 22.8032 23.667 22.7158V7.72266C23.667 7.5964 23.631 7.47192 23.5635 7.36523C23.496 7.25865 23.3992 7.17314 23.2852 7.11914L13.6201 3.06348C13.531 3.02128 13.4335 2.99907 13.335 2.99902ZM11.917 14.5488C11.6983 14.5488 11.4814 14.5912 11.2793 14.6748C11.0772 14.7585 10.893 14.8815 10.7383 15.0361C10.5835 15.1909 10.4607 15.375 10.377 15.5771C10.2932 15.7793 10.25 15.996 10.25 16.2148V23.3818H16.917V16.2148C16.917 15.996 16.8738 15.7793 16.79 15.5771C16.7063 15.3749 16.5835 15.1909 16.4287 15.0361C16.274 14.8814 16.0899 14.7585 15.8877 14.6748C15.6856 14.5911 15.4688 14.5488 15.25 14.5488H11.917Z" fill="#40AF29"/>
</svg>
