<?xml version='1.0' encoding='utf-8'?>
<svg xmlns="http://www.w3.org/2000/svg" width="333.32248mm" height="398.4722mm" viewBox="0 0 333.32248 398.4722" version="1.1" id="svg5" xml:space="preserve"><defs id="defs2" /><g id="layer1"><path style="fill:#000000;stroke-width:1" d="m 141.9360999999999 397.54299999999967 c -0.9838,-0.985 -1.1134,-1.303 -1.1134,-2.747 0,-1.981 0.5123,-2.546 4.0852,-4.502 5.6509,-3.092 10.8003,-7.099 13.783,-10.723 5.0306,-6.117 7.9148,-12.662 9.5585,-21.69 1.4145,-7.778 1.6197,-11.191 1.6197,-27.001 v -14.854 l 0.7139,-0.145 c 0.3923,-0.08 1.0714,-0.219 1.5081,-0.31 0.4871,-0.1 0.793,-0.382 0.793,-0.728 0,-2.137 4.5795,-13.028 7.4986,-17.836 1.5321,-2.523 1.4925,-2.49 7.4217,-6.2 9.1939,-5.752 19.6906,-9.705 35.7111,-13.448 l 2.8579,-0.669 3.9676,2.029 c 6.3204,3.23 13.2359,5.566 13.7961,4.659 0.3624,-0.587 -0.3635,-1.181 -1.9772,-1.619 -2.6215,-0.71 -8.4008,-3.041 -10.8471,-4.374 -2.0696,-1.128 -2.2651,-1.308 -1.5873,-1.464 0.4259,-0.1 2.3456,-0.543 4.2664,-0.991 6.2772,-1.462 13.5562,-2.946 18.57,-3.787 2.7055,-0.454 8.2772,-1.447 12.3792,-2.208 4.1032,-0.761 10.246,-1.848 13.651,-2.415 6.1152,-1.019 7.5129,-1.489 6.7379,-2.264 -0.4127,-0.412 -5.2538,0.343 -24.9636,3.891 -5.7469,1.034 -10.4932,1.835 -10.5484,1.78 -0.06,-0.06 0.7979,-1.091 1.8957,-2.302 5.0486,-5.569 6.5759,-7.518 6.2244,-7.94 -0.1896,-0.228 -0.5531,-0.335 -0.8099,-0.236 -0.4271,0.164 -7.6221,7.994 -9.2274,10.042 -0.7342,0.935 -1.6197,1.28 -4.7019,1.823 -7.9304,1.399 -29.9798,6.756 -35.8934,8.72 -8.2964,2.756 -16.0097,6.274 -21.2359,9.685 -1.327,0.866 -2.4716,1.575 -2.5447,1.575 -0.2364,0 5.015,-9.166 9.7613,-17.037 13.6605,-22.654 23.3751,-35.774 44.0279,-59.466 3.4253,-3.928 8.0024,-9.213 10.1728,-11.745 5.3486,-6.24 7.153,-8.11 8.6899,-9.005 0.7175,-0.419 3.9473,-1.79 7.1782,-3.049 13.2563,-5.166 16.3817,-6.429 23.9666,-9.69 11.0355,-4.744 12.0025,-5.245 11.6917,-6.056 -0.2843,-0.74 -1.0678,-0.542 -5.2094,1.32 -8.5531,3.847 -17.6138,7.644 -24.606,10.313 -4.0324,1.54 -8.1608,3.165 -9.1758,3.614 -1.0138,0.449 -1.8993,0.761 -1.9664,0.694 -0.072,-0.07 1.9988,-2.676 4.5903,-5.798 6.7103,-8.083 14.2556,-17.527 18.8627,-23.61 4.4128,-5.827 20.3601,-29.859 26.0158,-39.204 6.3,-10.409 10.264,-17.717 9.9929,-18.421 -0.4224,-1.102 -1.1974,-0.185 -3.6965,4.374 -4.6155,8.422 -10.1933,17.536 -17.1267,27.985 -3.6977,5.571 -7.2298,10.785 -7.8513,11.586 l -1.1302,1.458 0.1956,-5.872 c 0.108,-3.231 0.3539,-7.426 0.5471,-9.325 0.3071,-3.031 0.2879,-3.515 -0.1524,-3.955 -0.7882,-0.788 -1.1722,-0.08 -1.4793,2.694 -0.4175,3.785 -0.931,16.37 -0.7211,17.666 0.144,0.889 0,1.466 -0.6694,2.601 -2.0696,3.532 -11.4602,15.56 -23.2959,29.84 -8.6168,10.396 -7.9533,9.673 -7.9725,8.666 -0.024,-1.402 2.126,-12.102 3.4949,-17.374 1.0354,-3.987 1.1962,-4.973 0.8651,-5.306 -0.24,-0.238 -0.5807,-0.3 -0.8279,-0.147 -0.9118,0.564 -4.6239,16.259 -5.4889,23.208 -0.2436,1.961 -0.5771,3.275 -0.9514,3.758 -0.3168,0.408 -5.4794,6.407 -11.4734,13.332 -27.236,31.465 -34.6205,41.446 -51.716,69.888 -6.0552,10.074 -8.1045,13.757 -11.9029,21.392 -1.8345,3.686 -3.4134,6.773 -3.5093,6.861 -0.2388,0.214 0.1523,-21.837 0.5543,-31.269 0.1787,-4.189 0.6106,-11.832 0.9598,-16.982 1.4313,-21.094 1.9748,-30.884 3.3197,-59.838 0.8771,-18.878 1.2334,-23.641 2.7187,-36.347 1.2286,-10.513 1.3137,-10.864 3.1698,-13.015 5.2778,-6.119 14.8735,-20.353 24.3157,-36.068 4.7907,-7.974 6.4727,-11.025 6.2172,-11.281 -0.1932,-0.193 -0.5687,-0.267 -0.8351,-0.165 -0.583,0.224 -0.7606,0.501 -7.7553,12.12 -3.0474,5.063 -7.8692,12.705 -10.7127,16.983 -5.6293,8.464 -12.2976,17.376 -12.4608,16.65 -0.06,-0.251 0.1932,-3.135 0.5531,-6.409 1.2562,-11.421 2.8663,-26.94 3.2694,-31.51 0.6191,-7.004 0.5003,-39.51 -0.1872,-51.266 -0.2951,-5.063 -0.6275,-12.816 -0.7354,-17.228 -0.1968,-7.951 -0.4128,-9.392 -1.321,-8.832 -0.4631,0.287 -0.4871,9.983 -0.048,18.379 1.8825,35.789 1.6329,52.115 -1.1254,73.868 -0.2543,2.007 -0.8206,6.925 -1.2597,10.927 -0.4379,4.001 -0.8542,7.334 -0.9262,7.406 -0.186,0.186 -2.0936,-2.861 -4.6935,-7.501 -2.6335,-4.697 -13.819,-27.1 -16.7416,-33.53 -1.111,-2.443 -2.1584,-4.622 -2.3263,-4.841 -0.4332,-0.559 -1.4985,-0.494 -1.4985,0.1 0,0.718 2.2447,5.543 8.7103,18.717 8.3468,17.009 13.7793,27.116 15.6389,29.097 l 0.7919,0.844 -0.829,6.774 c -2.3204,18.976 -3.0691,27.94 -3.8369,45.978 -0.9874,23.217 -1.4721,31.959 -2.8567,51.584 -1.3821,19.592 -1.8548,28.967 -2.5759,51.061 -0.2303,7.083 -0.4115,7.173 -2.1487,1.078 -3.2238,-11.308 -7.9797,-23.316 -15.4351,-38.966 -10.1908,-21.394 -15.5909,-31.361 -33.969,-62.694 -1.5357,-2.619 -4.4679,-7.832 -6.5147,-11.586 -3.7529,-6.878 -10.3348,-18.479 -15.3091,-26.983 -4.8518,-8.293 -20.7752,-39.208 -24.9348,-48.409 -3.4841,-7.709 -4.6623,-9.999 -5.1422,-9.999 -0.2711,0 -0.5662,0.194 -0.6574,0.432 -0.2592,0.673 7.7409,17.522 15.9725,33.643 7.9904,15.646 10.5231,20.319 19.1303,35.285 5.8309,10.138 9.3834,16.666 9.0726,16.666 -0.2951,0 -8.1272,-6.365 -12.7223,-10.34 -2.27,-1.963 -8.1272,-7.509 -13.0151,-12.325 -4.8891,-4.817 -9.1386,-8.758 -9.4446,-8.76 -0.3239,0 -0.5555,0.237 -0.5555,0.571 0,0.329 3.7517,4.29 8.8099,9.3 10.66,10.56 17.2563,16.428 25.0416,22.278 1.7697,1.331 3.6353,2.925 4.1452,3.546 0.889,1.077 8.2664,13.516 16.7464,28.234 6.8566,11.899 14.1776,25.924 20.672,39.599 6.3371,13.344 8.0612,17.313 11.099,25.554 1.7157,4.654 6.1788,18.393 6.1788,19.02 0,0.12 -1.2189,-0.944 -2.7079,-2.354 -1.4889,-1.408 -4.3815,-3.82 -6.4271,-5.359 -6.8603,-5.156 -10.5292,-7.385 -54.6698,-33.212 -5.6749,-3.321 -11.7362,-6.953 -13.4698,-8.072 -1.7337,-1.12 -5.7337,-3.543 -8.8879,-5.387 -10.1957,-5.958 -9.3426,-5.256 -11.3762,-9.357 -2.3888,-4.818 -5.6629,-10.42 -6.3348,-10.839 -0.3959,-0.246 -0.6491,-0.237 -0.9202,0.04 -0.288,0.288 0.1439,1.283 1.856,4.279 3.6845,6.452 4.5903,8.172 4.4788,8.508 -0.1524,0.455 -2.0481,-0.626 -6.1201,-3.487 -5.8608,-4.119 -12.1824,-8.198 -23.8214,-15.369 -9.6209,-5.929 -11.1662,-6.783 -11.5585,-6.39 -0.5903,0.59 -0.1716,1.112 1.82,2.268 1.4037,0.815 4.4788,2.711 18.1465,11.179 3.2298,2.001 7.0163,4.429 8.4128,5.396 3.7313,2.583 7.7769,5.509 7.7769,5.626 0,0.129 -0.6071,0.05 -9.0475,-1.274 -3.8404,-0.6 -9.0294,-1.519 -11.5309,-2.041 -2.5016,-0.522 -4.7511,-0.871 -4.9995,-0.776 -0.6239,0.24 -0.5663,0.975 0.108,1.331 1.3389,0.712 15.0763,3.134 23.6306,4.167 2.9131,0.352 5.6773,0.785 6.1417,0.961 1.1277,0.428 16.3456,9.393 20.1237,11.854 l 2.9946,1.949 -4.264,0.1 c -4.5639,0.108 -12.1404,-0.339 -18.0673,-1.069 -3.2022,-0.393 -3.7025,-0.391 -4.1152,0.02 -0.4151,0.416 -0.4151,0.526 0,0.94 0.7942,0.794 9.3186,1.495 19.7974,1.626 l 9.4961,0.12 12.0901,7.043 c 25.1171,14.634 37.8323,22.195 42.5126,25.278 l 2.2244,1.466 -2.9923,0.536 c -1.6449,0.293 -5.7049,1.113 -9.0222,1.821 -6.9299,1.478 -13.8034,2.686 -18.4933,3.251 -3.4433,0.414 -4.3875,0.881 -3.5273,1.74 0.4044,0.405 1.3474,0.323 7.591,-0.661 3.9208,-0.619 10.2712,-1.769 14.1116,-2.557 12.1345,-2.487 13.5202,-2.734 14.2689,-2.547 1.742,0.438 12.0336,8.843 14.6275,11.947 1.2526,1.499 1.5202,2.048 1.8549,3.799 0.2099,1.101 0.1944,1.091 -1.7121,-1.018 -4.4655,-4.942 -9.4434,-5.658 -23.7674,-3.42 -12.9563,2.024 -15.2958,2.248 -25.3307,2.439 -10.186,0.192 -14.264,-0.06 -19.687,-1.216 -9.4254,-2.009 -14.9119,-5.844 -12.0756,-8.437 1.3137,-1.201 2.8614,-1.751 9.7121,-3.45 6.7019,-1.661 10.8699,-3.25 12.5903,-4.799 4.2148,-3.792 2.0924,-6.557 -7.4889,-9.755 -1.8189,-0.606 -7.7349,-2.259 -13.1471,-3.673 -20.594,-5.377 -32.4597,-9.189 -36.095,-11.594 -1.4469,-0.959 -2.4703,-2.501 -2.4727,-3.728 0,-0.907 0.1967,-1.081 3.9676,-3.501 1.4073,-0.904 1.5873,-1.144 1.5873,-2.131 0,-0.994 -0.1824,-1.231 -1.7469,-2.265 -0.9598,-0.636 -4.6742,-2.694 -8.2532,-4.576 -8.3203,-4.373 -11.6245,-6.42 -13.303,-8.242 -1.5321,-1.662 -2.5507,-3.677 -2.5639,-5.074 -0.024,-2.681 -1.1386,-4.666 -6.0552,-10.786 -4.9119,-6.113 -8.5064,-9.538 -16.3289,-15.562 -3.8152,-2.938 -6.0408,-5.063 -6.5231,-6.226 -1.009,-2.436 1.982,-2.603 11.6018,-0.648 3.4925,0.71 8.0636,1.524 10.1584,1.81 15.0895,2.055 18.6996,2.733 25.5539,4.802 14.5543,4.394 27.4398,11.188 42.5365,22.429 21.3631,15.906 25.1112,18.005 27.6415,15.476 0.8002,-0.802 0.9286,-1.169 0.9286,-2.675 0,-5.07 -8.2856,-18.208 -18.462,-29.275 -1.4565,-1.584 -5.6485,-6.016 -9.315,-9.848 -10.8903,-11.383 -16.5712,-18.128 -22.9648,-27.271 -8.0804,-11.552 -11.8189,-19.073 -11.0343,-22.196 0.12,-0.461 0.7535,-1.18 1.4686,-1.653 3.3917,-2.244 3.3749,-4.332 -0.108,-13.073 -4.7067,-11.822 -4.8015,-14.176 -0.6635,-16.459 1.0306,-0.569 2.216,-1.428 2.6323,-1.907 0.7103,-0.821 0.7451,-1.039 0.5603,-3.584 -0.5483,-7.556 -2.5231,-20.526 -5.129,-33.674 -2.0012,-10.099 -2.5291,-14.288 -2.2832,-18.126 0.2964,-4.62 1.2262,-6.621 3.0786,-6.621 1.3018,0 1.9269,0.809 3.4998,4.533 2.877,6.816 7.2658,15.024 10.8135,20.227 4.0876,5.994 12.4596,15.555 13.6209,15.555 0.3144,0 1.3366,-0.356 2.27,-0.791 2.4775,-1.153 4.7859,-1.097 6.6839,0.16 1.7793,1.178 4.5039,4.578 7.9485,9.916 7.7373,11.993 10.192,15.622 11.5393,17.062 0.8171,0.873 1.6113,1.587 1.7673,1.587 0.1548,0 1.0078,-0.5 1.8968,-1.111 1.8369,-1.263 2.8483,-1.377 4.3108,-0.486 1.5309,0.934 2.7871,2.839 5.3438,8.105 5.5909,11.513 12.3084,31.278 14.4044,42.378 0.9082,4.81 1.4589,9.089 2.5495,19.839 1.5681,15.449 2.3659,20.444 4.1212,25.818 1.8788,5.748 3.862,8.625 5.9448,8.625 2.5951,0 4.0685,-2.04 5.3306,-7.381 1.4973,-6.334 1.8872,-10.46 1.8812,-19.918 0,-16.409 -1.6208,-24.607 -10.9202,-55.553 -5.5406,-18.434 -6.4488,-21.8 -8.0913,-29.998 -2.5219,-12.59 -3.1362,-18.239 -3.1422,-28.887 0,-8.85 0.4175,-12.784 2.0624,-19.171 1.7577,-6.83 3.9329,-10.192 6.594,-10.192 1.3737,0 2.0504,0.437 5.0138,3.234 2.1476,2.026 2.985,2.26 4.3239,1.208 1.2322,-0.97 1.6533,-2.51 3.561,-13.012 2.3479,-12.922 2.6682,-13.553 7.5033,-14.768 1.159,-0.291 2.5351,-0.789 3.0582,-1.107 1.7637,-1.073 3.0426,-4.65 4.5555,-12.745 0.5771,-3.092 0.6911,-5.123 0.8063,-14.393 0.084,-6.684 0.2639,-11.127 0.4775,-11.67 0.4307,-1.098 1.5357,-1.407 2.5819,-0.722 2.3503,1.541 7.4889,10.78 11.6581,20.962 2.6659,6.514 5.2418,11.852 8.3216,17.248 2.6491,4.641 4.3156,6.613 5.2742,6.241 0.2868,-0.108 1.4589,-0.282 2.6059,-0.38 1.9976,-0.169 2.132,-0.134 3.219,0.82 2.1584,1.895 2.8002,4.17 3.9028,13.824 0.8699,7.62 1.8465,13.336 2.5795,15.089 0.5831,1.396 1.6497,2.552 2.354,2.552 0.2951,0 1.3773,-0.865 2.4043,-1.924 4.4068,-4.538 7.1374,-4.975 9.2754,-1.484 3.7325,6.095 5.1866,28.576 2.7715,42.834 -1.6533,9.758 -5.2586,21.209 -10.4236,33.108 -7.165,16.509 -9.2838,21.56 -11.1482,26.57 -7.4578,20.047 -13.0379,45.82 -10.84,50.069 0.7919,1.533 2.3924,1.725 4.4308,0.53 3.3905,-1.987 6.7559,-7.617 17.4722,-29.236 4.5879,-9.252 11.7038,-23.609 15.8142,-31.902 13.1686,-26.571 21.5574,-40.452 26.6924,-44.173 0.9706,-0.703 1.5957,-0.903 2.8159,-0.903 1.4685,0 1.6676,0.1 3.1086,1.598 1.6448,1.706 2.0911,1.789 4.1236,0.767 1.7672,-0.888 7.5873,-6.641 12.5063,-12.364 4.5532,-5.297 5.4578,-5.87 9.261,-5.872 2.8111,0 2.9371,-0.04 4.7823,-1.226 2.3972,-1.549 9.2562,-8.161 12.5628,-12.108 1.3893,-1.658 3.6113,-4.515 4.937,-6.348 9.1639,-12.665 10.5484,-14.286 12.2089,-14.286 1.5165,0 1.988,1.025 1.9532,4.242 -0.036,3.306 -0.6083,5.91 -2.943,13.377 -2.8015,8.959 -3.3594,11.806 -4.3252,22.061 -0.6035,6.41 -0.8626,7.901 -1.8932,10.886 -0.4439,1.285 -0.8063,2.725 -0.8063,3.2 0,1.367 1.1926,2.3 3.2778,2.56 1.2334,0.154 2.1092,0.479 2.7571,1.025 0.8362,0.703 0.949,1 0.949,2.499 0,4.31 -3.8357,13.143 -10.9311,25.178 -4.126,6.998 -4.9826,8.761 -5.045,10.373 -0.072,1.731 0.5963,2.496 3.1758,3.661 2.3623,1.066 3.1182,2.05 2.8494,3.708 -1.0474,6.451 -14.1285,20.418 -28.7032,30.647 -6.7487,4.736 -10.564,6.992 -24.5161,14.505 -14.4692,7.79 -20.6636,11.598 -26.5173,16.303 -7.1098,5.712 -13.447,14.357 -13.4734,18.378 0,0.861 0.24,1.461 0.8974,2.198 0.7919,0.886 1.1506,1.03 2.8603,1.154 2.2772,0.165 5.1974,-0.445 14.1705,-2.962 7.7001,-2.159 14.456,-3.752 19.681,-4.639 3.3029,-0.56 5.3629,-0.699 10.3168,-0.692 6.4691,0.01 8.9742,0.271 19.2046,2.012 6.7799,1.153 9.777,1.501 16.3493,1.897 6.3408,0.383 8.7091,0.917 9.9197,2.236 0.4799,0.525 0.8722,1.074 0.8722,1.223 0,0.566 -1.3701,1.975 -2.6419,2.715 -1.3065,0.761 -21.7446,9.982 -31.9582,14.419 -6.8447,2.973 -7.0978,3.178 -7.3018,5.951 -0.1464,1.994 -0.2316,2.2 -1.1194,2.717 -1.6197,0.942 -6.7283,1.544 -15.3774,1.811 -6.9455,0.214 -8.3408,0.338 -9.0463,0.799 -1.3929,0.913 -1.6328,1.853 -0.9922,3.886 0.5495,1.743 0.5483,1.778 -0.108,2.48 -0.3683,0.391 -1.2009,0.893 -1.8512,1.115 -1.8308,0.627 -13.0931,0.789 -22.9276,0.33 -9.4661,-0.441 -11.2778,-0.3 -13.2226,1.033 -2.1848,1.496 -2.5447,3.408 -1.057,5.604 1.5501,2.287 1.1362,3.59 -1.4997,4.723 -3.1362,1.348 -8.2316,1.58 -15.3294,0.694 -1.3102,-0.163 -3.9305,-0.439 -5.8225,-0.614 -8.5136,-0.783 -12.528,1.364 -16.1117,8.623 l -1.6149,3.272 0.2664,6.824 c 0.3887,9.903 0.3035,24.921 -0.1668,29.523 -2.3204,22.694 -9.7361,35.586 -26.071,45.324 -3.7469,2.234 -4.1764,2.305 -5.5537,0.928 z" id="path89" /></g></svg>