<svg width="38" height="38" viewBox="0 0 38 38" fill="none" xmlns="http://www.w3.org/2000/svg">
<path d="M35 19C35 10.1634 27.8366 3 19 3C10.1634 3 3 10.1634 3 19C3 27.8366 10.1634 35 19 35V38C8.50659 38 0 29.4934 0 19C0 8.50659 8.50659 0 19 0C29.4934 0 38 8.50659 38 19C38 29.4934 29.4934 38 19 38V35C27.8366 35 35 27.8366 35 19ZM15 25V23H13C11.8954 23 11 23.8954 11 25C11 26.1046 11.8954 27 13 27V30C10.2386 30 8 27.7614 8 25C8 22.2386 10.2386 20 13 20H18V25C18 27.7614 15.7614 30 13 30V27C14.1046 27 15 26.1046 15 25ZM27 25C27 23.8954 26.1046 23 25 23H23V25C23 26.1046 23.8954 27 25 27V30C22.2386 30 20 27.7614 20 25V20H25C27.7614 20 30 22.2386 30 25C30 27.7614 27.7614 30 25 30V27C26.1046 27 27 26.1046 27 25ZM15 13C15 11.8954 14.1046 11 13 11C11.8954 11 11 11.8954 11 13C11 14.1046 11.8954 15 13 15H15V13ZM27 13C27 11.8954 26.1046 11 25 11C23.8954 11 23 11.8954 23 13V15H25C26.1046 15 27 14.1046 27 13ZM18 18H13C10.2386 18 8 15.7614 8 13C8 10.2386 10.2386 8 13 8C15.7614 8 18 10.2386 18 13V18ZM30 13C30 15.7614 27.7614 18 25 18H20V13C20 10.2386 22.2386 8 25 8C27.7614 8 30 10.2386 30 13Z" fill="#FAE9D5"/>
</svg>
