<svg width="40" height="40" viewBox="0 0 40 40" fill="none" xmlns="http://www.w3.org/2000/svg">
<path d="M20 1C30.4934 1 39 9.50659 39 20C39 30.4934 30.4934 39 20 39C9.50659 39 1 30.4934 1 20C1 9.50659 9.50659 1 20 1ZM20 4C11.1634 4 4 11.1634 4 20C4 28.8366 11.1634 36 20 36C28.8366 36 36 28.8366 36 20C36 11.1634 28.8366 4 20 4Z" fill="#FAE9D5"/>
<path d="M13.7666 10.1465C14.2381 9.46544 15.1724 9.29526 15.8535 9.7666L28.8535 18.7666C29.2582 19.0468 29.5 19.5078 29.5 20C29.5 20.4922 29.2582 20.9532 28.8535 21.2334L15.8535 30.2334C15.1724 30.7047 14.2381 30.5345 13.7666 29.8535C13.2953 29.1724 13.4654 28.2381 14.1465 27.7666L25.3643 20L14.1465 12.2334C13.4654 11.7619 13.2953 10.8276 13.7666 10.1465Z" fill="#FAE9D5"/>
</svg>
