<svg width="419" height="418" viewBox="0 0 419 418" fill="none" xmlns="http://www.w3.org/2000/svg">
<path d="M407.741 226.736C397.621 243.488 378.081 251.394 359.431 253.69C341.931 255.845 324.021 255.223 306.861 251.162C289.981 247.168 273.561 241.19 257.531 234.606C243.681 228.914 230.051 222.633 216.721 215.796C215.271 215.057 213.831 214.317 212.401 213.565C212.151 213.436 211.911 213.303 211.661 213.173C212.311 213.011 212.941 212.822 213.561 212.61C214.871 212.158 216.181 211.679 217.481 211.179C221.451 209.65 225.361 207.921 229.211 206.14C238.151 202.006 246.761 197.192 254.981 191.78C261.771 195.341 269.631 196.165 274.951 189.825C275.101 189.678 275.241 189.507 275.371 189.305C275.481 189.164 275.561 189.011 275.621 188.851C277.811 184.837 276.611 179.637 273.111 176.724C271.171 175.101 268.591 174.338 266.071 174.524C264.811 174.617 263.591 174.9 262.421 175.372C261.831 175.609 261.251 175.87 260.711 176.197C260.691 176.21 260.651 176.233 260.601 176.262C260.431 176.069 260.261 175.879 260.091 175.694C259.091 174.631 257.991 173.695 256.811 172.837C255.071 171.557 253.081 170.529 250.961 170.179C257.851 163.827 264.871 157.615 272.191 151.778C277.291 147.718 282.581 143.796 288.311 140.665C296.991 135.92 306.591 132.436 316.071 129.705C335.821 124.02 358.571 121.767 378.311 128.777C386.701 131.758 395.211 137.399 397.991 146.308C398.701 148.585 399.051 150.915 399.031 153.3C399.011 155.805 398.341 158.164 398.041 160.633C397.591 164.228 397.871 167.869 398.831 171.339C395.661 169.526 391.501 169.045 388.101 168.431C381.051 167.159 373.921 166.275 366.781 165.784C352.301 164.791 337.771 165.47 323.441 167.678C321.821 167.927 322.511 170.385 324.111 170.138C337.411 168.089 350.911 167.428 364.341 168.183C371.001 168.557 377.631 169.269 384.211 170.34C387.271 170.838 390.351 171.353 393.371 172.072C396.071 172.716 398.861 173.649 400.261 176.228C400.461 176.59 400.751 176.78 401.051 176.839C403.001 180.332 405.761 183.29 407.761 186.786C410.081 190.848 411.691 195.26 412.591 199.852C414.401 209.145 412.631 218.652 407.741 226.736Z" fill="#000"/>
<path d="M167.581 126.34C165.301 120.195 163.181 113.912 161.961 107.456C160.201 98.0835 159.861 88.2145 160.121 78.7015C160.671 58.5365 165.291 37.0975 177.021 20.3275C182.081 13.0935 189.641 6.05446 198.831 5.12846C204.081 4.59846 208.651 6.10246 213.191 8.56646C217.591 10.9515 222.651 12.2295 227.661 11.9845C227.981 11.9685 228.291 11.9455 228.601 11.9145C226.041 15.6015 224.151 19.7095 222.571 23.9425C220.031 30.7105 218.141 37.7135 216.651 44.7805C213.691 58.8175 212.361 73.1315 211.041 87.3955C210.891 89.0295 213.441 89.0195 213.591 87.3955L213.599 87.3032C214.877 73.5568 216.157 59.7742 218.951 46.2365C220.311 39.6245 222.031 33.0785 224.271 26.7065C226.211 21.1995 228.571 15.7785 232.291 11.2575C235.411 10.4765 238.401 9.26346 241.611 8.49646C246.141 7.40846 250.841 7.11746 255.481 7.54346C264.981 8.41246 273.691 12.8215 280.101 19.8515C293.441 34.4935 295.071 55.9105 291.521 74.5225C288.191 92.0215 282.001 108.996 272.741 124.214C263.731 139.034 252.971 152.783 241.741 165.975C232.061 177.352 221.911 188.353 211.321 198.896C210.141 200.073 208.951 201.249 207.761 202.414C206.841 203.31 205.921 204.198 204.991 205.086C205.971 202.401 207.141 199.79 208.331 197.183C209.361 194.904 210.411 192.627 211.331 190.306C213.851 184.017 215.681 177.458 216.831 170.783C219.061 157.731 218.751 144.378 215.861 131.464C216.521 131.065 217.161 130.639 217.771 130.185C222.271 126.799 225.631 121.196 224.381 115.461C224.351 115.24 224.301 115.008 224.201 114.763C224.121 114.483 224.011 114.239 223.871 114.028C221.851 109.888 217.191 107.626 212.581 108.758C210.121 109.365 208.021 111.041 206.651 113.149C206.011 114.136 205.521 115.263 205.211 116.397C205.021 117.06 205.021 117.801 205.001 118.525C204.731 118.558 204.461 118.594 204.211 118.622C202.501 118.815 200.801 119.163 199.181 119.756C196.651 120.684 194.161 122.081 192.721 124.453C191.121 127.096 191.091 130.665 193.261 133.014C195.041 134.93 197.671 135.559 200.201 135.579C203.711 135.608 207.581 134.954 211.131 133.673C213.741 145.893 213.951 158.618 211.641 170.909C210.441 177.317 208.611 183.614 206.131 189.648C205.254 191.781 204.298 193.878 203.342 195.976L203.331 196C202.601 197.619 201.871 199.241 201.191 200.88C200.551 199.348 199.901 197.822 199.231 196.301C195.551 187.899 191.461 179.654 187.541 171.404C180.491 156.577 173.321 141.737 167.581 126.34Z" fill="#000"/>
<path d="M109.901 218.02C103.501 218.26 96.9409 218.357 90.5909 217.395C81.1909 215.972 71.8208 213.367 62.8908 210.163C44.4708 203.56 26.2808 192.893 13.9908 177.356C8.13081 169.935 3.1909 159.873 5.5909 150.202C6.8609 145.088 9.76089 141.503 13.4509 137.924C15.4609 135.975 17.1708 133.717 18.5208 131.259C25.4708 128.764 33.3908 129.918 40.5208 131.466C50.2208 133.574 59.6208 136.899 68.5208 141.315C69.9808 142.043 71.2809 139.844 69.8009 139.113C60.2509 134.368 50.1309 130.814 39.6609 128.684C33.2609 127.38 26.3309 126.565 19.9709 128.154C20.2309 127.519 20.4609 126.876 20.6609 126.224C22.1409 121.474 21.5209 116.813 21.8009 111.953C22.0609 107.525 23.0709 103.138 24.6809 99.0095C28.0709 90.3505 34.4209 83.2235 42.6809 78.9635C60.9409 69.5525 82.7708 74.6625 99.8908 84.0025C115.281 92.3945 129.401 103.355 140.911 116.579C152.401 129.782 162.241 144.417 171.411 159.291C178.731 171.159 185.611 183.314 192.001 195.712C188.631 193.64 184.831 192.29 181.081 191.049C176.311 189.469 171.531 187.91 166.931 185.862C165.771 185.345 164.621 184.803 163.481 184.233C167.021 180.822 169.361 175.987 168.281 171.053C168.261 170.832 168.211 170.6 168.111 170.355C168.031 170.075 167.921 169.831 167.781 169.62C165.751 165.48 161.091 163.218 156.491 164.35C154.021 164.957 151.931 166.633 150.561 168.741C149.921 169.728 149.431 170.855 149.111 171.989C148.931 172.652 148.921 173.393 148.901 174.117C148.631 174.15 148.371 174.186 148.121 174.214C146.401 174.407 144.711 174.755 143.091 175.348C140.561 176.276 138.071 177.673 136.631 180.045C135.031 182.688 135.001 186.257 137.171 188.606C138.941 190.522 141.581 191.151 144.101 191.171C148.931 191.211 154.431 189.969 158.861 187.566C163.461 190.067 168.341 192.058 173.271 193.802C178.381 195.61 183.801 196.905 188.551 199.584C189.421 200.075 190.211 200.633 190.941 201.235C193.581 203.397 195.511 206.158 197.791 208.689C194.321 208.869 190.851 209.148 187.381 209.493C178.041 210.422 168.731 211.821 159.461 213.024C143.011 215.161 126.501 217.399 109.901 218.02Z" fill="#000"/>
<path d="M190.981 252.503C187.931 268.783 184.961 285.157 180.451 301.109C178.681 307.359 176.721 313.666 173.791 319.484C169.561 327.866 164.301 335.895 158.561 343.31C146.621 358.733 130.881 372.908 112.331 379.73C102.731 383.26 90.8409 384.863 82.1009 378.345C80.3609 377.049 78.7708 375.455 77.4908 373.711C75.9508 371.625 75.0908 369.27 73.8608 367.021C73.1908 365.788 72.4109 364.619 71.5609 363.508C75.7709 331.999 99.7708 308.382 121.751 287.459C122.941 286.324 121.131 284.523 119.941 285.655C101.631 303.094 82.8609 321.42 73.6009 345.509C71.6809 350.528 70.2608 355.707 69.3908 360.995C68.0908 359.658 66.6608 358.442 65.1108 357.383C61.3508 354.808 57.1309 353.975 52.9309 352.422C48.7409 350.869 44.7208 348.557 41.2608 345.726C34.1108 339.882 29.2008 331.952 27.5208 322.845C23.6908 302.018 35.9609 282.252 50.5709 268.625C63.3109 256.757 78.0209 246.825 94.0809 240.088C110.121 233.359 126.981 228.554 143.861 224.456C158.441 220.915 173.181 217.957 188.011 215.633C189.661 215.374 191.311 215.117 192.971 214.874C193.071 214.859 193.171 214.846 193.271 214.831C191.911 216.018 190.571 217.221 189.231 218.436C186.711 220.72 184.241 223.048 181.811 225.428C178.951 228.234 176.151 231.103 173.411 234.034C172.681 234.26 171.961 234.55 171.281 234.911C170.621 235.259 170.051 235.803 169.481 236.32C169.466 236.308 169.452 236.296 169.438 236.283C169.377 236.232 169.315 236.181 169.253 236.13C169.232 236.113 169.211 236.096 169.19 236.079C169.156 236.051 169.122 236.023 169.088 235.995C169.066 235.977 169.043 235.958 169.021 235.939C167.981 235.091 166.891 234.303 165.731 233.642C163.061 232.122 159.851 230.972 156.741 231.666C154.021 232.275 151.721 234.226 151.071 236.997C150.371 240 152.021 242.85 154.051 244.921C158.181 249.143 164.301 252.746 170.181 253.612C175.681 254.424 181.931 252.916 185.151 248.115C185.321 247.93 185.471 247.702 185.591 247.425C185.741 247.167 185.841 246.911 185.901 246.661C187.411 242.343 185.821 237.466 181.831 234.954C181.351 234.65 180.841 234.401 180.311 234.196C182.361 232.078 184.431 229.983 186.551 227.933C188.481 226.057 190.461 224.222 192.451 222.406C194.271 220.747 196.121 219.111 197.981 217.501C197.361 219.936 196.791 222.385 196.261 224.843C194.251 234.016 192.701 243.314 190.981 252.503Z" fill="#000"/>
<path d="M281.951 260.215C287.251 263.791 292.501 267.583 297.031 272.127C303.891 279.019 310.051 286.746 315.431 294.837C326.301 311.177 334.841 330.827 335.021 350.749C335.111 360.276 332.711 371.219 324.461 377.048C320.381 379.926 316.211 380.626 311.421 381.424C308.021 381.991 304.751 383.227 301.801 385.011C303.101 371.432 298.131 358.012 291.451 346.262C283.521 332.314 273.261 319.703 262.381 307.961C256.161 301.241 249.671 294.78 243.081 288.414C241.901 287.273 240.101 289.074 241.281 290.218C252.421 300.992 263.331 312.065 273.061 324.151C282.651 336.063 291.891 349.267 296.671 363.936C299.091 371.382 300.181 379.215 299.011 386.95C298.991 386.962 298.971 386.974 298.961 386.986C295.351 389.838 293.311 393.65 290.451 397.138C287.441 400.803 283.851 403.969 279.811 406.448C271.871 411.321 262.461 413.36 253.251 411.689C233.391 408.085 219.211 391.889 210.821 374.497C206.301 365.127 203.001 355.12 200.191 345.118C198.271 338.278 197.261 331.201 196.641 324.134C195.091 306.671 195.691 289.016 196.991 271.557C197.481 264.943 198.091 258.335 198.831 251.74C199.281 252.398 199.801 253.014 200.341 253.572C204.481 257.793 210.601 261.396 216.471 262.263C221.981 263.074 228.231 261.566 231.451 256.765C231.611 256.58 231.761 256.352 231.891 256.076C232.041 255.817 232.131 255.561 232.191 255.311C233.711 250.993 232.111 246.117 228.121 243.605C226.041 242.292 223.491 241.925 221.081 242.343C219.861 242.556 218.671 242.978 217.571 243.561C216.941 243.896 216.391 244.412 215.841 244.91C211.181 239.368 208.771 232.475 207.281 225.331C206.671 222.366 206.201 219.358 205.801 216.385C208.371 218.03 210.971 219.613 213.601 221.156C221.941 226.045 230.561 230.513 239.011 235.12C253.551 243.05 268.201 250.944 281.951 260.215Z" fill="#000"/>
<path d="M250.271 188.761C243.771 192.924 237.041 196.717 230.101 200.095C225.681 202.243 221.191 204.222 216.611 206.02C216.521 206.057 216.431 206.097 216.331 206.134C214.661 206.79 212.001 208.124 209.531 208.576C211.531 206.914 213.501 205.214 215.441 203.486C222.261 197.426 228.811 191.032 235.411 184.785C237.661 182.66 239.901 180.532 242.151 178.408C242.491 180.006 243.311 181.522 244.301 182.84C245.851 184.892 247.911 186.953 250.271 188.761Z" fill="#000"/>
</svg>
