<svg width="40" height="40" viewBox="0 0 40 40" fill="none" xmlns="http://www.w3.org/2000/svg">
<path d="M20 1C9.50659 1 1 9.50659 1 20C1 30.4934 9.50659 39 20 39C30.4934 39 39 30.4934 39 20C39 9.50659 30.4934 1 20 1ZM20 4C28.8366 4 36 11.1634 36 20C36 28.8366 28.8366 36 20 36C11.1634 36 4 28.8366 4 20C4 11.1634 11.1634 4 20 4Z" fill="#FAE9D5"/>
<path d="M26.2334 10.1465C25.7619 9.46544 24.8276 9.29526 24.1465 9.7666L11.1465 18.7666C10.7418 19.0468 10.5 19.5078 10.5 20C10.5 20.4922 10.7418 20.9532 11.1465 21.2334L24.1465 30.2334C24.8276 30.7047 25.7619 30.5346 26.2334 29.8535C26.7047 29.1724 26.5346 28.2381 25.8535 27.7666L14.6357 20L25.8535 12.2334C26.5346 11.7619 26.7047 10.8276 26.2334 10.1465Z" fill="#FAE9D5"/>
</svg>
