<svg width="38" height="38" viewBox="0 0 38 38" fill="none" xmlns="http://www.w3.org/2000/svg">
<path fill-rule="evenodd" clip-rule="evenodd" d="M19 0C29.4934 0 38 8.50659 38 19C38 29.4934 29.4934 38 19 38C8.50659 38 0 29.4934 0 19C0 8.50659 8.50659 0 19 0ZM19 3C10.1634 3 3 10.1634 3 19C3 27.8366 10.1634 35 19 35C27.8366 35 35 27.8366 35 19C35 10.1634 27.8366 3 19 3Z" fill="#FAE9D5"/>
<path d="M12.0005 8.00028L12.1538 8.00809C12.91 8.08512 13.5005 8.72379 13.5005 9.50028C13.5003 10.3284 12.8286 11 12.0005 11.0003C11.4487 11.0006 11.0008 11.4475 11.0005 11.9993V26.9993C11.0005 27.5514 11.4475 27.9999 11.9995 28.0003H26.0005C26.5524 28 27.0002 27.5522 27.0005 27.0003V12.0003C27.0004 11.4482 26.5525 11.0005 26.0005 11.0003H25.9976C25.1693 11.0002 24.4977 10.3285 24.4976 9.50028C24.4976 8.67192 25.1692 8.00038 25.9976 8.00028L27.0005 7.9993C28.6569 7.99957 30.0001 9.3429 30.0005 10.9993V27.9993C30.0005 29.6562 28.6564 31.0003 26.9995 31.0003H10.9995C9.34311 30.9999 7.99978 29.6567 7.99951 28.0003V11.0003C7.99959 9.34354 9.34375 7.99938 11.0005 7.9993L12.0005 8.00028Z" fill="#FAE9D5"/>
<path d="M14 9C14 7.89543 14.8954 7 16 7H22C23.1046 7 24 7.89543 24 9C24 10.1046 23.1046 11 22 11H16C14.8954 11 14 10.1046 14 9Z" fill="#FAE9D5"/>
<path d="M13 24.5C13 23.6716 13.6716 23 14.5 23H23.5C24.3284 23 25 23.6716 25 24.5C25 25.3284 24.3284 26 23.5 26H14.5C13.6716 26 13 25.3284 13 24.5Z" fill="#FAE9D5"/>
<path d="M13 19.5C13 18.6716 13.6716 18 14.5 18H20.5C21.3284 18 22 18.6716 22 19.5C22 20.3284 21.3284 21 20.5 21H14.5C13.6716 21 13 20.3284 13 19.5Z" fill="#FAE9D5"/>
<path d="M13 14.5C13 13.6716 13.6716 13 14.5 13H17.5C18.3284 13 19 13.6716 19 14.5C19 15.3284 18.3284 16 17.5 16H14.5C13.6716 16 13 15.3284 13 14.5Z" fill="#FAE9D5"/>
</svg>
