<svg width="40" height="40" viewBox="0 0 40 40" fill="none" xmlns="http://www.w3.org/2000/svg">
    <path d="M19.9956 3.74847C22.8375 3.74847 26.4749 4.87279 28.7435 6.2482L24.9995 12.0031L39.9912 19.5667C39.8801 14.3379 37.7244 9.36076 33.9864 5.70287C30.2483 2.04499 25.2256 -0.00233927 19.9956 2.00586e-06C11.2855 2.00586e-06 3.77741 5.98378 1.24658 13.7496C0.386673 16.3826 3.62187 17.5936 4.78396 15.1028C7.457 9.35896 13.4697 3.74847 19.9956 3.74847ZM19.9956 36.2449C26.386 36.2449 32.832 31.8676 34.9962 26.246C36.2471 22.4975 39.7156 24.1618 38.9002 26.5437C37.538 30.4718 34.986 33.8779 31.5988 36.2886C28.2116 38.6994 24.1576 39.9951 20 39.9956C14.7803 40.0001 9.76578 37.9631 6.02783 34.3198C2.28989 30.6765 0.124966 25.7159 -0.00439453 20.4977L14.4851 28.8146L11.2432 33.7496C13.5452 35.1939 17.0693 36.2449 19.9956 36.2449ZM19.9956 24.9972C18.6697 24.9966 17.3983 24.4693 16.4611 23.5314C15.524 22.5934 14.9978 21.3215 14.9984 19.9956C14.999 18.6696 15.5263 17.3982 16.4643 16.4611C17.4023 15.5239 18.6741 14.9977 20 14.9983C20.6566 14.9986 21.3066 15.1282 21.9131 15.3797C22.5195 15.6313 23.0705 15.9998 23.5345 16.4642C23.9986 16.9287 24.3666 17.48 24.6176 18.0866C24.8685 18.6933 24.9976 19.3435 24.9973 20C24.997 20.6565 24.8674 21.3066 24.6159 21.913C24.3643 22.5195 23.9958 23.0705 23.5314 23.5345C23.067 23.9985 22.5157 24.3665 21.909 24.6175C21.3023 24.8685 20.6521 24.9975 19.9956 24.9972Z" fill="#FAE9D5"/>
<defs>
<clipPath id="clip0_9569_34651">
<rect width="40" height="40" fill="white"/>
</clipPath>
</defs>
</svg>
