<svg width="40" height="40" viewBox="0 0 40 40" fill="none" xmlns="http://www.w3.org/2000/svg">
<path d="M20 1C30.4934 1 39 9.50659 39 20C39 30.4934 30.4934 39 20 39C9.50659 39 1 30.4934 1 20C1 9.50659 9.50659 1 20 1ZM20 4C11.1634 4 4 11.1634 4 20C4 28.8366 11.1634 36 20 36C28.8366 36 36 28.8366 36 20C36 11.1634 28.8366 4 20 4Z" fill="#FAE9D5"/>
<path d="M7 20.2058C7.17805 20.1734 7.40571 20.1992 7.5885 20.1992L9.00084 20.2018C9.16791 20.3728 9.39036 20.4996 9.58788 20.6339L10.3928 21.1892L14.1694 23.7913L15.0263 24.3726L15.8405 24.9409L16.1397 25.1481C16.1721 25.1698 16.2217 25.2139 16.2596 25.2195L14.5766 21.9811L15.4728 21.9822C15.5407 21.9823 15.7359 21.9641 15.787 22.0031L15.79 22.0067L19.238 28.5507L17.7104 27.5428L15.3427 25.916L10.8722 22.8533L8.26443 21.0787L7.52823 20.5778C7.35149 20.459 7.16072 20.3454 7 20.2058Z" fill="#FAE9D5"/>
<path d="M9.14715 20.1899L13.628 20.2007L21.7975 20.1991L24.7855 20.1988L25.5097 20.1985C25.5929 20.1983 25.7014 20.1824 25.7814 20.1984L22.3108 23.6617L20.6195 21.9916L16.9836 21.9889L16.1184 21.9887C16.034 21.9888 15.8572 21.9675 15.7896 22.007L15.7866 22.0035C15.7356 21.9645 15.5403 21.9827 15.4725 21.9826L14.5762 21.9815L16.2593 25.2199C16.2213 25.2143 16.1718 25.1701 16.1394 25.1485L15.8401 24.9413L15.0259 24.373L14.1691 23.7917L10.3924 21.1896L9.58753 20.6343C9.39001 20.5 9.16756 20.3732 9.00049 20.2021C9.05153 20.2023 9.09695 20.1995 9.14715 20.1899Z" fill="#FAE9D5"/>
<path d="M17.7354 12.8085L19.2905 11.728L18.4058 13.3723L18.0939 13.9637C18.0543 14.0395 18.0091 14.16 17.9525 14.2202L15.7176 18.3328L17.2724 18.3357L20.0412 18.3388L20.5181 18.3363C20.5473 18.3363 20.6275 18.3461 20.6533 18.3369C20.6774 18.3284 20.7286 18.2751 20.7482 18.2567L21.9401 17.0611C22.051 16.9531 22.158 16.8208 22.28 16.7269L25.7939 20.1936L25.7818 20.1983C25.7017 20.1823 25.5932 20.1982 25.5101 20.1983L24.7858 20.1986L21.7978 20.1989L13.6283 20.2005L9.14747 20.1898C9.09727 20.1994 9.05185 20.2021 9.00081 20.202L7.58847 20.1994C7.40568 20.1993 7.17802 20.1736 7 20.206L7.00047 20.1979C7.08514 20.1226 7.18934 20.0619 7.28214 19.9962L8.14031 19.4166L10.7276 17.6415L15.4948 14.3585L16.7958 13.4594L17.7354 12.8085Z" fill="#FAE9D5"/>
<path d="M16.2153 15.3637C16.6421 15.1266 17.0413 14.8011 17.4395 14.5183C17.5715 14.4246 17.7184 14.2981 17.8648 14.2296C17.8963 14.2149 17.919 14.2168 17.9526 14.2202L15.7177 18.3327L14.5029 18.3298L16.1251 15.4713L16.1326 15.455L16.2153 15.3637Z" fill="#FAE9D5"/>
<path d="M26.9115 14.6139L26.9529 14.5869C27.0189 14.6131 27.0716 14.6709 27.1261 14.7155L27.5361 15.0733C27.8891 15.403 28.2428 15.7528 28.552 16.1245C29.2045 16.9087 29.7549 17.8332 30.1621 18.7673C30.6991 19.9991 31.038 21.3622 31.1125 22.7047C31.1566 23.4988 31.1213 24.3109 31.0968 25.1059L31.0282 26.3453C31.0207 26.4945 30.9969 26.6612 31.0101 26.8091C30.807 27.1893 30.5318 27.5347 30.2634 27.8702C28.7703 29.7368 26.6537 31.0692 24.3761 31.7589C23.2449 32.1014 22.0472 32.2815 20.8655 32.2855L20.8618 28.5291C22.2306 28.503 23.648 28.0925 24.8322 27.4074C25.0837 27.2619 25.3366 27.1079 25.5687 26.9327C25.7686 26.8189 25.968 26.6361 26.1448 26.4871C27.2645 25.5434 28.0836 24.304 28.5673 22.926C28.9672 21.9445 29.0689 20.8684 29.0629 19.8184C29.0171 19.139 28.9243 18.4627 28.7344 17.8071C28.3883 16.6126 27.748 15.5286 26.9115 14.6139Z" fill="#FAE9D5"/>
<path d="M20.9582 11.8461L20.9027 11.8231C20.8741 11.4992 20.8966 11.1586 20.8966 10.8321L20.8968 8.84393L20.8969 8.2308C20.897 8.16922 20.8824 8.05468 20.9063 8C21.4639 8.02586 22.0166 8.06519 22.5686 8.15184C23.5921 8.31253 24.5814 8.60381 25.5374 8.99999C26.1939 9.27205 26.8361 9.59207 27.435 9.97646C28.3286 10.55 29.1593 11.2609 29.8743 12.0454C31.3303 13.6428 32.2881 15.5579 32.7364 17.671C32.9391 18.6264 33.0347 19.6251 32.9888 20.6019C32.9695 21.012 32.9411 21.42 32.8824 21.8267C32.6814 23.2172 32.2435 24.5318 31.6007 25.7791C31.4237 26.1224 31.2394 26.499 31.0099 26.8088C30.9967 26.661 31.0205 26.4943 31.0281 26.3451L31.0966 25.1056C31.1211 24.3107 31.1564 23.4985 31.1124 22.7045C31.0378 21.362 30.699 19.9988 30.1619 18.767C29.7547 17.8329 29.2044 16.9085 28.5519 16.1243C28.2426 15.7526 27.8889 15.4028 27.5359 15.073L27.126 14.7152C27.0714 14.6706 27.0187 14.6129 26.9527 14.5867L26.9113 14.6136L26.4371 14.1385C25.2594 13.0296 23.7649 12.2996 22.1849 11.9838C21.79 11.9049 21.3622 11.8339 20.9582 11.8461Z" fill="#FAE9D5"/>
</svg>
