<svg width="32" height="32" viewBox="0 0 32 32" fill="none" xmlns="http://www.w3.org/2000/svg">
<path d="M8.79128 4.86085L8.43873 4.92991L8.13707 5.13707L7.92991 5.43873L7.86085 5.79128V26.4351L7.92991 26.7876L8.13707 27.0893L8.43873 27.2965L8.79128 27.3655L9.24195 27.2492L27.7487 16.9273L28.0976 16.5857L28.2285 16.1132L28.0976 15.6407L27.7487 15.2991L9.24195 4.97715L8.79128 4.86085ZM8.79128 3L9.4891 3.08723L10.1433 3.34891L28.6646 13.6708L29.2606 14.1179L29.7113 14.703L29.9948 15.3827L30.0893 16.1132L29.9966 16.8528L29.7186 17.5306L29.2697 18.1103L28.6646 18.5556L10.1578 28.8775L9.50363 29.1391L8.80581 29.2264L7.71547 29.0083L6.82139 28.4123L6.21807 27.5254L6 26.4351V5.79128L6.21807 4.70093L6.81412 3.81412L7.70093 3.21807L8.79128 3Z" fill="white"/>
</svg>
