<?xml version='1.0' encoding='utf-8'?>
<svg xmlns="http://www.w3.org/2000/svg" width="346.91867mm" height="398.47299mm" viewBox="0 0 346.91867 398.47299" version="1.1" id="svg5" xml:space="preserve"><defs id="defs2" /><g id="layer1"><path style="fill:#000000;stroke-width:1" d="m 14.050999999999476 388.28299999999945 c -0.132,-8.693 -0.235,-10.562 -0.699,-12.71 -0.3,-1.386 -0.737,-2.888 -0.97,-3.34 -0.402,-0.777 -0.382,-0.914 0.362,-2.474 0.433,-0.907 0.923,-2.39 1.087,-3.296 0.529,-2.899 0.321,-20.325 -0.805,-67.4 -0.164,-6.864 -0.419,-17.72 -0.566,-24.125 -0.271,-11.835 -0.576,-15.749 -1.944,-24.956 -0.721,-4.85 -1.343,-7.398 -2.604,-10.665 -1.164,-3.011 -1.191,-3.474 -0.366,-6.317 0.609,-2.103 0.623,-2.434 0.572,-14.63 -0.03,-6.863 -0.247,-19.591 -0.486,-28.284 -0.769,-27.919 -1.3,-32.845 -4.343,-40.272 -0.305,-0.746 -0.304,-1.118 0,-2.219 0.945,-3.341 1.12,-4.103 1.394,-6.064 0.159,-1.15 0.289,-5.857 0.288,-10.46 0,-11.986 -1.041,-57.962 -1.394,-61.747 -0.58,-6.23 -1.542,-10.626 -2.92,-13.346 l -0.657,-1.296 0.887,-2.315 0.886,-2.315 0.105,-10.676 c 0.09,-9.476 -0.163,-22.474 -0.684,-35.147 l -0.174,-4.229 h 6.093 6.092 l 0.182,9.636 c 0.457,24.344 1.737,37.178 4.276,42.868 0.647,1.453 0.691,1.754 0.426,2.912 -0.967,4.223 -1.189,5.453 -1.452,8.044 -0.416,4.101 -0.364,10.065 0.259,29.572 0.815,25.568 1.196,32.779 2.109,39.93 0.627,4.913 1.43,8.843 2.367,11.593 l 0.832,2.441 -0.552,1.164 c -1.376,2.9 -1.914,14.333 -1.471,31.238 0.34,12.93 0.504,16.321 1.309,26.91 1.124,14.773 2.138,20.368 4.472,24.665 l 0.972,1.79 -0.927,2.648 -0.927,2.647 v 6.1 c 0,9.064 1.46,57.973 2.214,74.176 0.223,4.804 0.597,13.29 0.83,18.856 0.847,20.273 1.309,25.528 2.7,30.741 0.475,1.775 0.856,3.665 0.85,4.199 0,0.534 -0.394,2.031 -0.86,3.328 -1.336,3.712 -1.805,7.862 -1.815,16.013 v 7.002 h -7.395 -7.395 z m 12.03,-10.466 c 0.732,-0.686 1.788,-1.463 2.345,-1.728 0.713,-0.341 1.215,-0.884 1.697,-1.833 0.738,-1.456 0.713,-1.775 -0.107,-1.337 -1.013,0.542 -5.608,1.706 -6.735,1.706 -1.151,0 -6.59,-1.272 -8.846,-2.069 -0.672,-0.238 -1.252,-0.4 -1.288,-0.36 -0.04,0.04 0.304,0.897 0.755,1.905 l 0.824,1.835 1.789,0.166 c 2.03,0.19 3.688,0.872 5.103,2.103 1.505,1.306 2.769,1.196 4.463,-0.388 z m -0.294,-5.385 c 0.833,-0.291 2.295,-0.682 3.249,-0.868 1.903,-0.372 2.141,-0.737 1.042,-1.601 -1.037,-0.816 -2.327,-0.942 -4.606,-0.451 -1.128,0.243 -3.696,0.484 -5.706,0.535 -2.01,0.05 -3.882,0.224 -4.16,0.386 -0.277,0.162 -0.442,0.299 -0.365,0.305 0.07,0.01 1.511,0.495 3.188,1.085 3.516,1.238 5.168,1.374 7.358,0.609 z m -12.308,-134.524 c 1.112,-0.768 2.458,-1.579 2.991,-1.801 1.669,-0.697 3.814,-0.509 6.333,0.559 0.55,0.233 2.108,-1.221 2.852,-2.661 l 0.418,-0.809 -1.881,0.05 c -1.034,0.02 -2.891,-0.05 -4.127,-0.171 -2.239,-0.218 -2.251,-0.216 -4.047,0.788 -0.991,0.554 -2.108,1.008 -2.485,1.008 -0.872,0 -5.287,1.095 -5.601,1.39 -0.362,0.338 0.339,2.158 1.013,2.629 1.128,0.791 2.359,0.524 4.534,-0.979 z m -0.98,-6.051 c 3.192,-1.687 4.193,-1.992 4.565,-1.39 0.125,0.202 0.726,0.257 1.704,0.156 1.037,-0.107 2.173,0.01 3.613,0.382 1.156,0.295 2.167,0.471 2.247,0.392 0.218,-0.217 -2.199,-2.611 -3.13,-3.1 -1.203,-0.631 -6.133,-0.366 -8.239,0.443 -2.47,0.948 -4.325,2.783 -5.235,5.175 l -0.272,0.715 0.763,-0.536 c 0.421,-0.294 2.213,-1.301 3.984,-2.237 z m -3.91,-80.523 c 2.129,-1.107 2.405,-1.178 4.528,-1.174 2.052,0 2.409,0.08 3.847,0.921 2.119,1.228 2.776,1.118 3.045,-0.509 0.115,-0.687 0.278,-1.54 0.365,-1.896 0.105,-0.409 0.05,-0.582 -0.13,-0.469 -0.593,0.366 -2.981,0.162 -4.562,-0.391 -0.946,-0.331 -2.334,-0.572 -3.287,-0.572 -1.614,0 -2.058,0.155 -5.058,1.767 -0.457,0.246 -1.362,0.449 -2.01,0.45 -0.648,0 -1.179,0.105 -1.179,0.224 0,0.397 1.645,2.828 1.913,2.828 0.143,0 1.282,-0.531 2.528,-1.179 z m -1.362,-4.504 c 3.291,-2.415 6.082,-2.735 9.677,-1.112 2.043,0.922 3.333,1.219 3.323,0.763 0,-0.114 -0.736,-1.019 -1.63,-2.01 l -1.627,-1.803 -3.291,0.02 c -2.778,0.01 -3.508,0.116 -4.677,0.637 -1.422,0.634 -4.298,3.204 -4.298,3.842 0,0.601 1.521,0.399 2.523,-0.336 z m 8.759,-88.816 c 0.18,-0.114 0.568,-0.768 0.861,-1.452 l 0.533,-1.242 h -1.832 c -1.569,0 -2.128,-0.15 -3.88,-1.039 -2.756,-1.401 -4.064,-1.406 -6.695,-0.03 -1.919,1.006 -1.941,1.009 -3.042,0.577 -0.61,-0.239 -1.11,-0.368 -1.11,-0.286 0,0.08 0.446,0.883 0.991,1.78 0.655,1.078 1.171,1.631 1.522,1.631 0.292,0 1.34,-0.553 2.328,-1.229 3.005,-2.059 4.887,-1.984 6.969,0.275 0.919,0.997 1.314,1.23 2.08,1.226 0.52,0 1.094,-0.09 1.275,-0.213 z m -11.545,-5.213 c 1.322,-1.375 2.213,-1.779 3.922,-1.777 1.966,0 3.112,0.351 5.087,1.55 1.58,0.959 3.733,1.565 3.731,1.05 0,-1.224 -4.971,-4.07 -7.931,-4.546 -1.752,-0.283 -3.959,0.09 -5.601,0.95 -0.886,0.463 -2.158,2.669 -1.909,3.315 0.313,0.817 1.654,0.548 2.701,-0.542 z m 49.62,345.528 c 0,-0.08 0.766,-1.857 1.703,-3.952 5.213,-11.66 8.732,-20.678 10.246,-26.265 0.474,-1.748 0.566,-2.656 0.438,-4.298 -0.08,-1.146 -0.241,-2.355 -0.339,-2.688 -0.143,-0.483 0.181,-0.989 1.595,-2.496 3.509,-3.739 5.088,-6.661 10.761,-19.915 10.058,-23.495 11.09,-26.428 11.09,-31.51 0,-1.836 0.03,-1.93 0.763,-2.205 2.321,-0.876 5.12,-5.397 9.089,-14.672 1.964,-4.593 10.195,-24.884 12.078,-29.775 1.599,-4.155 2.472,-7.298 2.472,-8.898 0,-1.003 0.183,-1.322 1.599,-2.789 2.071,-2.148 3.553,-4.725 7.011,-12.194 5.859,-12.662 7.005,-15.552 6.872,-17.344 -0.03,-0.384 0.402,-1.384 0.988,-2.293 0.572,-0.886 1.681,-2.932 2.465,-4.545 1.354,-2.785 1.423,-3.032 1.357,-4.904 -0.04,-1.084 -0.246,-3.219 -0.461,-4.745 -1.03,-7.286 -1.337,-13.176 -1.338,-25.649 0,-12.503 0.302,-19.719 1.477,-35.217 0.751,-9.888 1.101,-16.867 1.107,-22.045 0,-4.622 0.225,-5.711 0.955,-4.755 1.117,1.461 4.134,18.264 5.261,29.296 1.06,10.375 1.426,26.927 0.737,33.275 -0.766,7.056 -2.214,13.488 -5.143,22.845 -1.81,5.784 -2.012,6.669 -1.586,6.933 0.256,0.158 5.786,-11.311 7.004,-14.526 0.433,-1.145 0.864,-2.676 0.956,-3.403 0.09,-0.728 0.368,-1.476 0.612,-1.664 1.972,-1.511 3.134,-3.134 5.513,-7.698 3.125,-5.995 6.262,-12.665 6.908,-14.688 0.267,-0.838 0.641,-1.905 0.832,-2.37 0.287,-0.698 0.276,-0.978 -0.06,-1.63 -1.295,-2.474 -0.402,-13.341 2.042,-24.839 2.439,-11.479 7.156,-30.411 11.191,-44.921 1.378,-4.957 3.054,-11.116 3.722,-13.688 0.67,-2.57 1.358,-4.815 1.531,-4.988 0.637,-0.636 0.869,0.455 0.704,3.285 -0.553,9.408 -2.307,31.6 -3.059,38.684 -1.413,13.306 -4.697,24.463 -12.04,40.901 -1.09,2.439 -2.1,4.554 -2.244,4.7 -0.144,0.145 -0.262,0.453 -0.262,0.685 0,0.311 0.104,0.273 0.397,-0.144 0.218,-0.311 0.757,-0.952 1.197,-1.423 0.44,-0.471 1.715,-2.334 2.835,-4.14 1.119,-1.806 3.01,-4.795 4.199,-6.643 3.838,-5.957 8.824,-14.556 10.869,-18.748 2.079,-4.257 2.277,-4.477 4.294,-4.774 0.256,-0.04 1.494,-1.553 2.75,-3.369 1.257,-1.817 2.887,-3.926 3.622,-4.688 0.735,-0.763 1.57,-1.699 1.857,-2.081 0.287,-0.38 0,-0.162 -0.626,0.486 -1.104,1.135 -2.295,1.546 -2.678,0.926 -0.345,-0.558 2.843,-10.384 5.316,-16.385 2.654,-6.442 7.982,-17.26 16.457,-33.414 2.961,-5.644 7.006,-13.494 8.989,-17.447 1.984,-3.952 3.731,-7.196 3.884,-7.209 1.068,-0.09 -0.191,4.611 -5.636,21.051 -6.97,21.038 -10.927,29.564 -20.77,44.746 -1.125,1.734 -1.999,3.198 -1.944,3.252 0.05,0.05 1.402,-1.483 2.994,-3.417 6.672,-8.106 14.787,-17.77 19.359,-23.053 4.341,-5.017 5.016,-5.931 6.034,-8.181 4.097,-9.047 13.123,-20.718 25.236,-32.625 7.504,-7.376 16.157,-14.711 26.858,-22.767 4.509,-3.394 5.074,-3.738 5.478,-3.332 0.405,0.403 -0.05,1.038 -4.912,6.833 -2.303,2.745 -5.925,7.238 -8.049,9.983 -6.318,8.164 -11.428,14.463 -14.962,18.44 -9.106,10.248 -20.263,20.612 -27.362,25.418 -1.315,0.89 -3.187,2.491 -4.163,3.559 -3.578,3.918 -15.2,17.705 -22.496,26.691 -1.489,1.833 -3.523,4.242 -4.52,5.354 -1.675,1.869 -5.372,6.962 -6.225,8.579 -0.238,0.45 0.241,0.132 1.366,-0.908 5.134,-4.747 9.714,-7.602 17.888,-11.154 5.687,-2.473 14.608,-5.118 29.829,-8.845 15.924,-3.901 19.614,-4.619 19.879,-3.871 0.209,0.587 -23.342,12.871 -31.691,16.53 -14.486,6.352 -25.958,10.185 -33.387,11.16 -4.17,0.547 -5.115,0.829 -5.843,1.739 -0.468,0.587 -0.568,0.632 -0.443,0.201 0.08,-0.305 0.244,-0.911 0.349,-1.347 l 0.189,-0.792 -1.179,0.654 c -0.649,0.359 -1.241,0.872 -1.318,1.139 -0.17,0.594 -0.451,0.616 -0.905,0.07 -0.37,-0.445 -1.387,-0.575 -1.387,-0.177 0,0.131 0.343,0.682 0.762,1.221 0.42,0.541 0.965,1.351 1.213,1.802 0.487,0.886 1.718,1.32 2.177,0.768 0.179,-0.216 0.18,-0.656 0,-1.276 -0.148,-0.521 -0.271,-0.99 -0.271,-1.04 0,-0.05 0.312,0.278 0.693,0.731 0.381,0.453 0.694,0.869 0.694,0.925 0,0.05 -0.64,0.787 -1.419,1.624 -2.988,3.205 -6.281,8.181 -15.202,22.976 -4.959,8.222 -5.666,9.655 -5.626,11.394 0.03,1.145 -0.06,1.32 -0.921,1.885 -0.523,0.343 -1.27,1.129 -1.659,1.746 -2.279,3.609 -9,17.555 -9.002,18.676 0,0.52 0,0.52 0.58,0 0.32,-0.289 1.057,-1.338 1.636,-2.329 1.598,-2.737 3.282,-4.784 7.152,-8.696 6.711,-6.784 13.975,-12.434 22.936,-17.841 9.851,-5.943 25.93,-13.795 35.458,-17.315 1.668,-0.616 2.272,-0.732 2.562,-0.492 0.208,0.173 0.313,0.421 0.232,0.552 -0.08,0.13 -2.793,2.263 -6.028,4.739 -3.234,2.477 -11.463,8.969 -18.283,14.426 -24.332,19.468 -27.7,21.576 -39.391,24.644 -4.3,1.129 -5.605,1.717 -6.589,2.97 -0.499,0.633 -0.551,0.962 -0.391,2.453 0.182,1.705 0.176,1.726 -0.644,2.151 -1.404,0.725 -2.131,1.88 -5.574,8.837 -5.432,10.98 -7.244,15.547 -7.452,18.786 -0.105,1.641 -0.265,2.226 -0.754,2.773 -1.352,1.51 -2.575,3.671 -5.707,10.086 -3.584,7.342 -6.35,13.642 -7.056,16.07 -0.281,0.967 -0.425,2.302 -0.376,3.489 l 0.07,1.923 -1.155,1.062 c -2.09,1.92 -5.024,7.858 -9.842,19.918 -3.949,9.883 -7.425,19.965 -7.425,21.535 0,0.972 0.348,1.005 0.946,0.09 0.249,-0.38 0.641,-0.692 0.87,-0.692 0.229,0 1.289,-0.44 2.356,-0.977 3.098,-1.56 11.19,-4.943 16.255,-6.796 2.568,-0.939 4.825,-1.794 5.016,-1.901 0.192,-0.107 1.629,-1.442 3.195,-2.969 3.999,-3.898 8.991,-7.127 23.094,-14.933 8.751,-4.846 12.418,-6.661 13,-6.438 0.491,0.189 0.49,0.215 -0.01,0.781 -1.775,1.991 -12.613,10.607 -17.305,13.758 -6.835,4.591 -10.258,6.254 -17.001,8.257 -1.347,0.4 -2.38,0.796 -2.297,0.88 0.161,0.16 5.025,-0.644 10.569,-1.747 9.759,-1.943 14.064,-2.313 27.036,-2.324 9.783,-0.01 23.908,0.804 30.503,1.755 2.516,0.361 4.669,0.604 4.783,0.539 0.115,-0.06 0.208,-0.539 0.208,-1.054 0,-0.917 0.02,-0.93 0.875,-0.683 0.482,0.137 1.449,0.731 2.149,1.319 2.244,1.882 2.508,1.977 7.886,2.828 2.838,0.448 5.982,1.007 6.986,1.24 2.924,0.678 2.902,0.687 2.902,-1.219 v -1.643 l -3.12,-0.708 c -8.268,-1.876 -10.762,-2.456 -16.291,-3.788 -3.279,-0.789 -7.334,-1.746 -9.012,-2.126 -1.678,-0.38 -3.351,-0.808 -3.717,-0.951 -1.24,-0.485 -0.139,-0.878 3.086,-1.101 1.72,-0.119 5.111,-0.409 7.538,-0.645 5.62,-0.546 14.898,-0.549 20.559,-0.01 14.307,1.371 31.447,5.432 42.966,10.181 4.458,1.839 14.913,6.556 15.23,6.872 0.763,0.762 -0.552,0.761 -6.633,-0.01 -7.743,-0.98 -30.834,-4.353 -37.712,-5.51 -6.636,-1.116 -7.626,-1.245 -7.626,-0.99 0,0.117 0.461,1.003 1.025,1.967 1.022,1.747 1.034,1.757 3.259,2.492 1.228,0.407 4.291,1.546 6.808,2.533 8.051,3.153 14.696,5.375 14.696,4.912 0,-0.226 0.07,-0.41 0.16,-0.41 0.612,0 6.812,2.682 10.349,4.477 4.971,2.523 10.06,5.859 14.171,9.288 4.276,3.567 13.313,12.715 19.139,19.372 2.804,3.203 7.693,8.451 10.864,11.665 3.172,3.213 5.767,6.052 5.767,6.308 0,0.776 -0.94,0.552 -4.654,-1.114 -9.484,-4.254 -18.434,-9.398 -25.709,-14.776 -6.872,-5.078 -16.421,-14.049 -20.648,-19.396 -2.59,-3.275 -6.799,-9.466 -7.857,-11.554 -0.389,-0.766 -0.872,-1.532 -1.075,-1.699 -0.204,-0.169 -1.644,-0.801 -3.2,-1.405 l -2.831,-1.097 1.346,1.56 c 2.323,2.695 5.705,8.866 7.919,14.454 2.909,7.341 8.141,24.561 7.617,25.07 -0.46,0.447 -1.437,-0.839 -4.355,-5.729 -6.343,-10.634 -9.323,-16.623 -11.619,-23.362 -1.212,-3.558 -1.693,-5.645 -2.062,-8.956 -0.163,-1.468 -0.412,-2.882 -0.55,-3.142 -0.322,-0.6 -15.386,-6.558 -15.725,-6.219 -0.05,0.05 0.365,1.015 0.931,2.136 4.049,8.026 6.925,19.639 8.981,36.27 0.639,5.169 0.704,7.105 0.248,7.387 -0.492,0.303 -1.064,-0.646 -4.348,-7.214 -8.551,-17.101 -12.786,-29.019 -13.531,-38.078 -0.104,-1.259 -0.218,-2.288 -0.255,-2.288 -0.04,0 -1.299,-0.253 -2.803,-0.563 -2.551,-0.525 -10.904,-1.932 -11.47,-1.932 -0.139,0 0.355,0.804 1.099,1.786 2.966,3.919 6.085,10.623 10.123,21.762 3.723,10.272 4.481,12.715 4.066,13.129 -0.425,0.427 -0.548,0.283 -3.844,-4.511 -7.68,-11.17 -16.394,-26.675 -17.697,-31.491 -0.287,-1.061 -0.693,-1.921 -0.977,-2.073 -0.941,-0.504 -10.793,-1.888 -10.793,-1.517 0,0.106 0.63,0.897 1.399,1.761 8.601,9.645 16.705,30.897 23.932,62.752 3.695,16.282 3.923,17.403 3.607,17.72 -0.53,0.529 -1.094,-0.02 -2.779,-2.724 -4.837,-7.752 -10.883,-19.41 -14.7,-28.345 -7.811,-18.291 -11.765,-32.607 -12.176,-44.089 -0.188,-5.281 -0.269,-5.749 -1.026,-5.979 -0.337,-0.105 -1.051,-0.514 -1.584,-0.915 -0.792,-0.594 -1.339,-0.747 -2.965,-0.829 l -1.995,-0.105 0.16,2.456 c 0.506,7.846 -2.042,21.406 -6.61,35.177 -2.326,7.009 -2.843,8.181 -3.373,7.65 -0.934,-0.934 1.403,-24.358 3.185,-31.913 1.286,-5.455 2.903,-9.713 4.532,-11.931 0.567,-0.774 0.944,-1.494 0.837,-1.601 -0.255,-0.254 -26.384,-0.254 -26.64,0 -0.107,0.108 0.242,0.707 0.777,1.33 3.474,4.06 6.401,13.703 9.369,30.873 1.332,7.701 1.412,8.905 0.557,8.377 -0.596,-0.368 -4.505,-9.302 -6.801,-15.54 -3.88,-10.546 -5.624,-18.067 -5.244,-22.624 0.114,-1.359 0.07,-2.18 -0.113,-2.295 -0.375,-0.232 -5.831,0.472 -10.599,1.367 -4.441,0.833 -5.862,1.162 -5.187,1.201 2.309,0.134 8.585,5.516 14.744,12.645 4.034,4.669 4.985,5.991 4.522,6.285 -0.193,0.123 -0.495,0.226 -0.669,0.228 -0.453,0.01 -7.498,-5.047 -11.519,-8.262 -4.971,-3.973 -7.244,-6.352 -8.433,-8.823 -0.844,-1.756 -1.069,-2.026 -1.587,-1.915 -3.784,0.814 -7.153,1.736 -10.726,2.934 -7.588,2.546 -17.803,7.162 -20.025,9.049 -0.685,0.583 -1.83,1.401 -2.544,1.821 -0.949,0.557 -1.431,1.077 -1.798,1.941 -0.867,2.042 -1.774,5.827 -1.821,7.594 -0.04,1.666 -0.07,1.735 -1.695,3.504 -3.155,3.452 -5.821,8.843 -12.031,24.328 -6.708,16.727 -9.445,24.987 -9.445,28.509 0,1.742 -0.04,1.837 -1.226,3.107 -0.674,0.721 -1.597,2.047 -2.051,2.945 -1.558,3.087 -4.804,11.022 -8.095,19.788 -0.887,2.364 -1.7,4.516 -1.805,4.783 -0.175,0.44 -0.726,0.485 -5.986,0.485 -3.186,0 -5.794,-0.06 -5.794,-0.143 z m 18.06,-27.417 c 0.515,-0.211 1.621,-0.47 2.461,-0.574 2.92,-0.363 3.23,-0.688 1.162,-1.218 -2.351,-0.602 -3.014,-1.185 -3.581,-3.148 -0.466,-1.612 -0.599,-1.792 -1.747,-2.364 -0.683,-0.339 -1.648,-0.699 -2.143,-0.797 -0.883,-0.175 -0.902,-0.158 -0.902,0.818 0,0.964 0.03,0.996 0.986,0.959 0.564,-0.02 1.168,0.148 1.415,0.396 0.541,0.54 1.194,3.26 1.201,4.997 0,0.724 0.05,1.317 0.109,1.317 0.05,0 0.525,-0.174 1.039,-0.386 z m 3.957,-7.9 -2.134,-2.805 h -3.425 c -1.884,0 -3.424,0.109 -3.424,0.243 0,0.468 0.708,0.789 2.495,1.126 2.726,0.517 3.424,0.943 4.176,2.546 0.359,0.768 1.025,1.661 1.478,1.984 0.453,0.323 1.27,1.08 1.813,1.685 l 0.991,1.098 0.08,-1.535 c 0.08,-1.53 0.07,-1.546 -2.052,-4.342 z m 5.692,-18.939 c 1.67,-4.166 4.242,-10.446 5.715,-13.954 6.372,-15.164 7.276,-17.608 6.514,-17.608 -0.464,0 -1.905,3.228 -8.051,18.024 -5.524,13.3 -7.877,19.616 -8.187,21.976 l -0.155,1.179 0.563,-1.021 c 0.312,-0.561 1.931,-4.429 3.601,-8.596 z m 19.337,-31.16 c 0.201,-0.524 -0.637,-2.459 -1.522,-3.509 -1.339,-1.593 -2.185,-1.97 -4.885,-2.174 -1.46,-0.11 -2.912,-0.387 -3.424,-0.651 -0.861,-0.445 -0.888,-0.442 -0.888,0.111 0,0.937 0.743,2.427 1.382,2.769 0.386,0.207 1.206,0.254 2.324,0.134 l 1.728,-0.184 0.964,1.068 c 0.531,0.587 1.133,1.472 1.338,1.967 0.34,0.822 0.477,0.899 1.595,0.899 0.85,0 1.274,-0.131 1.388,-0.43 z m 5.648,-29.813 c 3.729,-9.356 8.612,-20.703 10.195,-23.691 1.006,-1.899 1.052,-1.941 2.137,-1.959 1.456,-0.02 1.602,-0.675 0.307,-1.372 -1.168,-0.629 -2.136,-0.315 -2.759,0.893 -0.447,0.865 -6.422,15.13 -9.386,22.403 -2.147,5.272 -4.388,11.671 -4.375,12.494 0,0.459 0.04,0.475 0.263,0.105 0.139,-0.239 1.768,-4.232 3.618,-8.873 z m 16.205,-28.058 c -0.343,-1.147 -0.966,-1.87 -2.424,-2.81 -1.569,-1.013 -5.341,-2.073 -5.787,-1.629 -0.158,0.16 0.16,0.778 0.827,1.609 1.043,1.301 1.132,1.349 2.362,1.273 1.149,-0.07 1.37,0.02 2.185,0.889 0.863,0.922 1.393,1.188 2.518,1.26 0.398,0.02 0.465,-0.09 0.319,-0.592 z m 1.908,-14.535 c 1.58,-3.177 3.965,-8.114 5.303,-10.97 1.339,-2.856 2.615,-5.344 2.837,-5.529 0.307,-0.255 0.604,-0.261 1.232,-0.02 0.63,0.238 0.8,0.234 0.719,-0.02 -0.164,-0.502 -1.925,-1.005 -2.482,-0.71 -0.553,0.292 -1.474,2.152 -7.134,14.426 -3.867,8.383 -4.814,10.697 -3.76,9.193 0.228,-0.326 1.707,-3.192 3.285,-6.37 z m 12.22,-17.247 c 0.296,-0.477 -0.555,-2.63 -1.242,-3.142 -0.407,-0.305 -1.714,-0.688 -3.121,-0.916 -1.332,-0.215 -2.542,-0.467 -2.691,-0.559 -0.628,-0.388 -0.203,0.658 0.566,1.395 0.705,0.676 1.116,0.82 2.614,0.915 1.692,0.108 1.793,0.154 2.121,0.983 0.19,0.479 0.463,1.026 0.609,1.217 0.305,0.399 0.927,0.458 1.144,0.107 z m -3.117,-5.964 c 0.255,-0.352 2.733,-5.057 5.505,-10.458 2.773,-5.402 5.412,-10.476 5.866,-11.277 0.826,-1.461 1.665,-2.181 2.173,-1.867 0.317,0.195 0.359,-0.418 0.06,-0.86 -0.112,-0.166 -0.481,-0.371 -0.818,-0.457 -0.699,-0.176 -1.066,0.48 -9.094,16.288 -2.4,4.727 -4.489,8.752 -4.641,8.943 -0.194,0.243 -0.162,0.343 0.105,0.337 0.209,0 0.59,-0.296 0.846,-0.649 z m 17.143,-24.645 c 0,-0.594 -1.142,-3.386 -1.466,-3.586 -0.17,-0.105 -0.939,-0.266 -1.708,-0.357 -4.333,-0.516 -4.035,-0.521 -4.035,0.07 0,0.636 0.959,1.05 3.085,1.332 1.179,0.156 1.439,0.306 1.813,1.046 0.241,0.476 0.629,1.083 0.863,1.35 0.49,0.559 1.449,0.651 1.448,0.138 z m 7.955,-25.581 c -0.277,-0.497 -0.327,-0.439 -0.476,0.554 -0.09,0.61 -0.256,1.422 -0.365,1.803 -0.109,0.382 0.105,0.132 0.476,-0.554 0.543,-1.006 0.614,-1.355 0.365,-1.803 z m 3.535,-0.208 c -0.651,-2.09 -0.592,-2.04 -3.202,-2.712 -1.244,-0.32 -1.971,-0.393 -2.084,-0.211 -0.185,0.3 0.371,0.762 0.922,0.77 0.182,0 0.869,0.629 1.525,1.391 0.986,1.145 1.354,1.386 2.114,1.386 0.827,0 0.9,-0.06 0.725,-0.624 z m 15.061,-30.69 c 1.412,-2.44 2.566,-4.592 2.566,-4.779 0,-0.618 -0.466,0.104 -2.919,4.482 -1.322,2.363 -2.652,4.734 -2.955,5.269 l -0.551,0.97 0.647,-0.753 c 0.356,-0.413 1.802,-2.749 3.212,-5.189 z m -20.443,144.304 c 0.543,-0.654 5.051,-3.371 8.512,-5.13 5.063,-2.572 14.113,-5.316 21.845,-6.622 5.647,-0.954 13.646,-1.966 15.534,-1.966 3.118,0 2.352,0.547 -4.65,3.318 -8.895,3.521 -14.327,5.339 -21.143,7.074 -5.319,1.353 -17.908,3.75 -19.704,3.75 -0.638,0 -0.695,-0.06 -0.394,-0.424 z m 65.32,-186.99 c -0.207,-0.333 0.56,-0.958 2.194,-1.787 0.763,-0.387 2.76,-1.594 4.438,-2.682 4.098,-2.659 12.591,-6.867 16.423,-8.137 5.99,-1.987 11.885,-3.039 19.625,-3.504 8.058,-0.483 16.914,-0.234 16.914,0.475 0,0.561 -23.17,8.366 -29.897,10.071 -7.308,1.852 -14.901,3.246 -21.745,3.99 -2.668,0.29 -4.543,0.654 -5.786,1.121 -2.11,0.795 -1.974,0.766 -2.166,0.453 z m 42.264,-18.915 c 0,-0.308 2.459,-1.274 8.109,-3.185 12.152,-4.112 20.761,-5.94 33.485,-7.109 6.756,-0.622 37.578,-0.236 39.999,0.5 1.019,0.309 0.482,0.903 -1.109,1.228 -0.877,0.178 -5.462,1.242 -10.19,2.363 -10.283,2.439 -14.498,3.238 -21.884,4.148 -8.291,1.02 -13.491,1.472 -20.56,1.785 -7.63,0.339 -27.85,0.535 -27.85,0.27 z" id="path149" /></g></svg>