<?xml version='1.0' encoding='utf-8'?>
<svg xmlns="http://www.w3.org/2000/svg" width="353.55109mm" height="398.4722mm" viewBox="0 0 353.55109 398.4722" version="1.1" id="svg5" xml:space="preserve"><defs id="defs2" /><g id="layer1"><path style="fill:#000000" d="m 28.8691000000008 389.46659999999974 c 0.057,-8.1897 0.01,-9.5198 -0.3652,-10.3848 l -0.4306,-0.9922 h 1.1771 c 1.1264,0 1.5084,-0.2932 0.8843,-0.6789 -0.2128,-0.1315 -0.211,-0.2315 0.01,-0.366 0.1646,-0.1018 0.4187,-1.2478 0.5645,-2.5466 0.1458,-1.2989 0.747,-5.6358 1.3359,-9.6376 1.2576,-8.5455 1.6437,-12.3039 2.2017,-21.4313 0.2269,-3.7107 0.6488,-10.6164 0.9375,-15.3458 0.7107,-11.6406 1.0275,-18.5114 1.2016,-26.0615 0.081,-3.4925 0.2146,-7.581 0.2978,-9.0855 l 0.1513,-2.7356 0.7854,0.7512 c 1.0458,1.0003 3.265,5.4771 3.6726,7.4088 l 0.3258,1.5445 0.3362,-1.6223 c 0.7219,-3.4843 1.5717,-4.1154 3.4591,-2.5688 1.3797,1.1305 3.9758,4.0989 4.4009,5.0318 0.4756,1.0439 0.6775,0.6893 0.6775,-1.1902 0,-3.0406 1.0415,-4.599 3.9567,-5.9208 0.9368,-0.4248 1.7383,-0.7355 1.7811,-0.6906 0.043,0.045 -0.3193,1.0342 -0.8045,2.1984 -0.4852,1.1641 -0.9594,2.712 -1.0538,3.4396 -0.2108,1.6257 -2.8698,17.7451 -3.557,21.5635 -1.2455,6.9201 -4.6546,22.0552 -5.8437,25.944 -1.0353,3.3856 -1.121,4.0938 -3.0264,24.9883 -0.7399,8.1143 -2.8398,23.509 -3.5999,26.3921 l -0.2616,0.9922 h -3.694 c -2.0317,0 -3.6939,-0.1078 -3.6939,-0.2395 0,-0.1316 0.1727,-1.7687 0.3838,-3.638 0.5481,-4.8532 1.4226,-16.4774 1.7286,-22.9776 0.1438,-3.056 0.3381,-6.8064 0.4318,-8.3344 0.2967,-4.8407 -0.079,-2.7392 -0.5442,3.0427 -0.2458,3.0559 -0.5591,6.6278 -0.6962,7.9375 -0.1371,1.3097 -0.5473,5.2983 -0.9115,8.8634 -1.8995,18.5943 -2.3088,19.7677 -2.2154,6.35 z m -26.6609,6.8183 c 0.094,-1.2034 0.1711,-3.2596 0.1721,-4.5693 v -2.3813 l 1.6535,-0.1213 c 4.51,-0.331 6.1771,-0.061 7.5329,1.2187 0.5499,0.5191 1.5951,1.2431 2.3227,1.6087 1.6552,0.8319 1.5581,0.7113 1.1587,1.4385 -0.1867,0.3399 -0.5946,1.5704 -0.9065,2.7346 l -0.5672,2.1167 -5.7691,0.071 -5.7691,0.071 z m 38.1952,-3.4448 c 1.6339,-10.5768 2.6822,-19.9932 4.0578,-36.4463 0.1642,-1.9645 0.3821,-3.9833 0.4841,-4.4861 l 0.1854,-0.9143 0.555,0.782 c 0.5362,0.7557 1.9398,4.7773 1.9398,5.5581 0,0.6575 0.4497,0.4201 0.7982,-0.4213 0.8597,-2.0756 2.3205,-3.0475 4.1647,-2.771 1.9578,0.2936 2.6983,1.415 3.116,4.7189 l 0.1613,1.2757 0.8842,-1.845 c 0.8185,-1.708 2.5702,-4.0136 3.0493,-4.0136 0.1133,0 0.099,0.4464 -0.031,0.9921 -1.286,5.3768 -2.1311,10.5927 -3.1402,19.3808 -0.4844,4.2193 -1.5619,15.7649 -2.0062,21.4973 l -0.1794,2.3151 h -7.4536 -7.4536 z m -25.9831,-1.8187 c -0.7276,-0.5897 -1.6656,-1.42 -2.0843,-1.8451 -0.7735,-0.7852 -2.4353,-1.3896 -4.6845,-1.7038 -1.187,-0.1658 -3.1972,0.2514 -4.4552,0.9247 -0.8179,0.4377 -0.7173,-0.068 0.5248,-2.6362 2.2567,-4.6666 4.7172,-13.4983 8.329,-29.8963 2.9335,-13.319 3.8005,-19.0107 3.8194,-25.0759 0.01,-1.6515 0.1328,-2.1775 0.899,-3.7042 2.2184,-4.4202 3.8014,-9.862 6.2132,-21.3585 1.9191,-9.1482 2.9474,-15.4145 3.1296,-19.0722 0.1576,-3.1648 0.1654,-3.1959 0.7722,-3.0799 0.3371,0.064 1.5368,-0.088 2.6659,-0.3396 2.1041,-0.4681 4.3306,-0.4251 5.3169,0.1027 0.4885,0.2615 0.5138,0.583 0.4857,6.173 l -0.03,5.8973 -1.7725,8.7312 c -3.1315,15.4265 -3.9161,20.5514 -3.9161,25.5812 0,1.4111 -0.099,2.6269 -0.2201,2.7017 -0.121,0.075 -0.797,-0.4497 -1.5022,-1.1657 -2.3832,-2.4196 -6.219,-3.3099 -9.7423,-2.2613 -3.2262,0.9602 -2.6901,1.3379 1.8989,1.3379 h 3.6159 l 2.3528,1.5213 c 1.2941,0.8368 2.5152,1.5214 2.7137,1.5214 0.2516,0 0.089,0.5407 -0.5381,1.7859 -2.4998,4.9663 -4.1828,11.5588 -8.7302,34.1974 -1.8061,8.9917 -2.7385,14.9699 -3.2289,20.7035 -0.096,1.1278 -0.2507,2.0463 -0.3427,2.0411 -0.092,-0.01 -0.7627,-0.4919 -1.4903,-1.0816 z m -10.1647,-10.3717 c -0.7312,-1.7002 -1.3984,-5.0941 -2.5058,-12.7465 -1.1087,-7.6616 -1.4206,-10.8446 -1.6075,-16.4042 l -0.1423,-4.2333 1.0598,3.175 c 2.5004,7.4909 4.1367,15.2286 5.0166,23.7232 0.2694,2.6011 -0.017,4.8413 -0.8741,6.8361 l -0.3978,0.926 z m 23.7907,-4.6372 c 0,-0.1238 0.1388,-0.6233 0.3084,-1.1098 0.2357,-0.676 0.2307,-2.636 -0.021,-8.3078 -0.3146,-7.0908 -0.1777,-12.6251 0.416,-16.8077 0.1536,-1.0827 0.1883,-1.1275 0.4104,-0.5292 1.0812,2.9127 1.6943,10.7009 1.374,17.4546 -0.1207,2.5466 -0.1932,5.4236 -0.1609,6.3932 0.082,2.4667 -0.2142,3.1318 -1.3944,3.1318 -0.5129,0 -0.9326,-0.1013 -0.9326,-0.2251 z m 24.7386,-24.5213 c -3.056,-0.6263 -6.0028,-1.2135 -6.5485,-1.305 -1.5861,-0.2659 -1.1539,-0.6112 1.02,-0.815 2.1159,-0.1982 4.8084,-0.02 6.5868,0.4372 1.9698,0.5059 6.1928,2.1355 6.5032,2.5095 0.5255,0.6333 -1.5389,0.4076 -7.5615,-0.8267 z m 4.9508,-1.7006 c -3.6106,-1.746 -4.4365,-1.9099 -8.5889,-1.7045 -2.0009,0.099 -3.638,0.1182 -3.638,0.043 0,-0.075 0.1763,-0.5591 0.3918,-1.0748 1.6935,-4.0531 5.7847,-24.2895 9.5489,-47.232 0.079,-0.4822 0.2752,-0.8331 0.4358,-0.7795 0.6894,0.2298 1.8111,2.8255 2.1115,4.8861 l 0.308,2.1135 1.7413,-1.8117 c 1.5224,-1.584 1.8614,-1.8117 2.6977,-1.8117 1.257,0 1.5999,0.4703 1.7901,2.4557 l 0.1572,1.6406 0.8475,-1.7246 c 0.7378,-1.5016 2.4598,-3.3691 2.4598,-2.6678 0,0.1369 -0.2954,1.3609 -0.6565,2.7199 -2.359,8.8786 -5.9315,32.0898 -6.6415,43.1507 -0.121,1.886 -0.2865,2.8443 -0.4912,2.8443 -0.1697,0 -1.2828,-0.4711 -2.4735,-1.047 z m 5.6717,-50.1522 c -2.1613,-0.4937 -4.7806,-1.1918 -5.8208,-1.5513 l -1.8913,-0.6536 2.6458,-0.019 c 1.7691,-0.013 3.3472,0.1506 4.7625,0.4928 2.4143,0.5838 5.8208,1.9202 5.8208,2.2834 0,0.4923 -1.6805,0.3241 -5.517,-0.5523 z m 4.0618,-1.6318 c -3.0227,-1.3475 -4.5626,-1.7203 -7.8364,-1.897 l -3.2063,-0.1731 1.106,-2.7781 c 1.3755,-3.4553 2.3096,-6.5071 7.1477,-23.3534 4.6678,-16.2532 5.094,-17.9664 5.4838,-22.0414 l 0.3055,-3.1938 2.6859,-0.053 2.6858,-0.053 1.5681,1.3721 c 0.8624,0.7547 2.0655,1.5922 2.6734,1.8612 l 1.1054,0.4889 -1.1341,2.4438 c -2.5648,5.5267 -5.3813,15.7227 -8.3236,30.1328 -1.2874,6.3048 -2.0794,11.442 -2.3125,14.9996 -0.097,1.4883 -0.2485,2.748 -0.3354,2.7993 -0.087,0.051 -0.8129,-0.1986 -1.6133,-0.5554 z m -20.6375,-8.4674 c -3.4155,-0.5557 -9.7353,-1.7769 -10.036,-1.9395 -0.2488,-0.1344 0.16,-0.3281 1.1906,-0.5641 1.751,-0.4011 15.528,-0.4982 18.6717,-0.1316 1.5476,0.1804 1.7409,0.2646 1.6251,0.7074 -0.2247,0.8593 -0.6866,1.0325 -4.2019,1.575 -3.1747,0.49 -5.6617,0.611 -7.2495,0.3528 z m -9.9497,-5.0082 c 0.2383,-1.1188 1.141,-9.6465 1.5234,-14.3913 0.2228,-2.7653 0.3347,-10.5391 0.3435,-23.8664 l 0.013,-19.7654 0.8947,0.8477 c 1.3074,1.2387 2.7486,3.5599 3.9033,6.2868 1.093,2.5814 0.9927,2.5662 1.5179,0.23 0.2403,-1.069 1.9419,-3.1058 3.0794,-3.6862 1.4388,-0.7339 3.3653,-0.7013 4.5224,0.077 1.1095,0.746 2.4077,3.2501 3.0314,5.8476 0.2486,1.0353 0.54,2.0489 0.6475,2.2525 0.1205,0.2279 0.6755,-1.1444 1.4447,-3.5719 1.3361,-4.2166 2.6652,-7.0676 3.7664,-8.0789 l 0.6812,-0.6256 -0.1534,1.4552 c -0.084,0.8004 -0.3952,3.4793 -0.6909,5.9532 -1.3653,11.423 -1.9827,22.7283 -1.8859,34.5281 0.041,5.0205 0.086,10.4378 0.099,12.0385 0.014,1.6611 -0.1216,3.4064 -0.3149,4.0658 l -0.3387,1.1553 -1.106,-0.1784 c -5.2899,-0.8535 -6.8634,-1.0097 -10.2341,-1.0163 -2.5691,-0.01 -4.6231,0.1436 -6.2177,0.4498 -1.3097,0.2515 -2.9005,0.525 -3.5351,0.6079 l -1.1537,0.1507 z m -10.606,-2.1613 c 0.077,-0.2509 0.6167,-1.5382 1.1994,-2.8607 2.1312,-4.8367 3.9836,-11.0625 7.8657,-26.435 l 1.9377,-7.6729 v 6.2177 c 0.01,11.5125 -0.744,26.9311 -1.452,29.7522 l -0.1461,0.5821 -1.3721,-0.4773 c -1.653,-0.5751 -2.8311,-0.456 -5.9651,0.6027 -1.9295,0.6518 -2.194,0.689 -2.072,0.2912 z m 53.3641,-36.6181 c -3.2043,-2.551 -4.6859,-3.0007 -7.6417,-2.3192 -0.6377,0.147 -1.2057,0.221 -1.2622,0.1645 -0.056,-0.057 0.6773,-1.5972 1.6307,-3.4238 1.7903,-3.4298 5.953,-14.1207 7.6197,-19.5694 0.5182,-1.6938 1.0742,-4.0702 1.2356,-5.2807 0.5688,-4.2662 0.3396,-3.8251 2.0817,-4.0072 2.0169,-0.2108 3.2147,0.1492 4.6609,1.4009 1.3098,1.1336 2.179,1.5167 2.5652,1.1305 0.2497,-0.2497 -1.1657,-1.5655 -3.2158,-2.9895 -0.8245,-0.5727 -1.1641,-0.6351 -3.1267,-0.5746 -2.4613,0.076 -2.4074,0.2065 -0.7996,-1.9401 0.5517,-0.7366 1.41,-2.2249 1.9073,-3.3073 0.9968,-2.1694 3.9769,-10.3627 5.72,-15.7263 0.6149,-1.8917 2.1203,-6.297 3.3454,-9.7895 4.0067,-11.4222 6.172,-19.5455 6.1796,-23.1838 0,-0.7235 0.355,-1.4772 1.4405,-3.0712 1.9712,-2.8945 3.7433,-6.2855 5.9826,-11.4482 4.5838,-10.5678 6.8967,-16.9989 7.6843,-21.3667 0.2723,-1.5096 0.5723,-2.8698 0.6668,-3.0227 0.269,-0.4352 2.3621,-0.086 3.7488,0.6252 0.6912,0.3545 1.485,1.0274 1.7779,1.507 0.2911,0.4766 1.0789,1.6167 1.7507,2.5335 l 1.2215,1.6669 -1.1788,1.8185 c -1.8445,2.8456 -4.0561,7.4363 -6.3571,13.1956 -3.1914,7.9879 -4.8701,13.1409 -6.0119,18.4544 -0.4066,1.8924 -0.4801,2.0291 -0.9538,1.7755 -0.2823,-0.1511 -1.0014,-0.8951 -1.598,-1.6533 -0.5966,-0.7583 -1.3926,-1.5433 -1.7688,-1.7446 -0.8982,-0.4805 -5.4588,-0.5515 -5.9182,-0.092 -0.6061,0.6061 0.2144,0.9352 2.8236,1.1325 l 2.5343,0.1917 1.5571,1.4851 c 1.4245,1.3588 1.8505,1.6186 2.4759,1.51 0.2369,-0.041 0.2123,0.01 -1.0275,1.9596 -2.15,3.3881 -3.7163,7.3511 -8.5749,21.6958 -5.0873,15.0198 -8.2628,25.864 -7.7952,26.6205 0.3038,0.4917 0.8323,0.1078 12.3767,-8.9899 1.9139,-1.5083 5.5634,-4.2197 8.11,-6.0254 6.8808,-4.8789 7.2043,-5.1468 7.9375,-6.5726 0.584,-1.1355 0.8222,-1.338 2.0329,-1.7273 1.4349,-0.4616 4.1053,-1.9633 4.701,-2.6438 0.1911,-0.2183 0.5829,-1.4094 0.8707,-2.647 0.4413,-1.8974 0.4815,-2.5402 0.2567,-4.101 -0.6669,-4.6294 1.6771,-18.9079 4.5068,-27.4538 1.6573,-5.0054 1.8019,-5.1168 1.7192,-1.3244 -0.1938,8.8828 -2.1571,21.3776 -4.3349,27.5887 -1.6985,4.844 -2.3679,6.9412 -2.287,7.1659 0.084,0.2346 11.5283,-8.39 13.5398,-10.2042 0.7115,-0.6417 1.4574,-1.2296 1.6576,-1.3064 0.7527,-0.2889 0.9573,-1.7533 1.1673,-8.3553 0.118,-3.7108 0.4043,-8.6519 0.6362,-10.9802 1.2854,-12.9084 4.2724,-26.102 7.907,-34.925 0.6469,-1.5706 0.6561,-1.5791 0.8616,-0.7938 0.3373,1.2887 0.2478,16.8806 -0.1161,20.2406 -1.2401,11.4508 -3.4701,19.9736 -7.8749,30.097 -0.6491,1.492 -1.2552,3.0873 -1.3468,3.5452 l -0.1665,0.8325 1.035,-0.6347 c 1.7287,-1.0602 6.427,-4.3606 13.157,-9.2424 l 6.3951,-4.6388 -0.083,-1.4466 c -0.046,-0.7956 -0.3708,-3.1134 -0.7227,-5.1507 -1.0216,-5.9145 -1.2108,-8.3194 -1.2076,-15.3458 0.01,-13.1476 1.7617,-26.0167 4.863,-35.6477 0.5966,-1.8527 1.1175,-3.3358 1.1575,-3.2957 0.04,0.04 0.3122,2.0916 0.6047,4.5591 0.8077,6.8122 1.1619,14.5705 0.972,21.2874 -0.3554,12.5699 -1.3872,20.1257 -4.0236,29.4641 -0.9505,3.3669 -1.3371,5.2413 -0.9848,4.7752 0.12,-0.1588 1.1872,-0.7903 2.3716,-1.4032 1.1843,-0.613 2.8993,-1.7895 3.8109,-2.6145 2.668,-2.4144 3.0222,-3.5719 3.7014,-12.0977 0.5104,-6.4071 1.928,-13.6792 4.7967,-24.6062 3.5108,-13.3732 6.4214,-21.8887 9.9931,-29.2365 l 1.3504,-2.7781 -0.1216,7.0115 c -0.1611,9.2972 -1.1526,16.762 -3.4912,26.2862 -2.8634,11.6616 -5.3424,18.1445 -9.6774,25.3075 -2.0447,3.3788 -4.84,8.7313 -4.5597,8.7313 0.5025,0 6.1417,-4.0527 6.5069,-4.6763 0.242,-0.4133 0.8572,-1.181 1.3671,-1.706 0.759,-0.7815 1.1657,-0.9774 2.244,-1.0811 1.3043,-0.1253 2.9495,-0.9541 7.3921,-3.7239 1.9675,-1.2267 1.9438,-1.0832 0.9495,-5.749 -0.6236,-2.9264 -0.7023,-3.8643 -0.6877,-8.1991 0.022,-6.4445 1.4041,-20.33 2.868,-28.8068 0.4479,-2.5936 1.9372,-9.3204 2.8484,-12.8651 l 0.6121,-2.3813 0.4489,2.3813 c 0.6636,3.5201 1.4218,9.7601 1.7588,14.4755 0.5026,7.0318 -0.2788,16.666 -2.0224,24.9372 -0.631,2.9931 -2.7972,10.0181 -4.018,13.0303 -0.3072,0.7581 -0.4508,1.4451 -0.3189,1.5266 0.283,0.1749 7.8387,-4.8192 9.3315,-6.1678 0.5666,-0.5119 1.2042,-1.2672 1.4168,-1.6783 0.3301,-0.6385 0.547,-0.7475 1.4868,-0.7475 0.6052,0 1.624,-0.2535 2.2641,-0.5634 0.9708,-0.4699 1.1356,-0.6564 0.994,-1.1244 -0.5151,-1.7024 -1.4719,-6.9526 -1.8927,-10.385 -0.6802,-5.5486 -0.6838,-21.9705 -0.01,-28.673 0.5561,-5.5026 1.7274,-12.5022 2.7672,-16.5365 l 0.7502,-2.9104 0.4607,2.5081 c 0.6402,3.485 1.6807,10.7294 1.9959,13.8961 0.4826,4.8489 0.8811,15.8274 0.713,19.6453 -0.091,2.0737 -0.072,3.7703 0.044,3.7703 0.1154,0 0.6668,-1.1013 1.2253,-2.4474 1.9807,-4.7739 11.0592,-22.2872 15.0526,-29.038 2.3133,-3.9106 7.7904,-12.2857 9.9494,-15.2136 l 1.3656,-1.852 -0.1713,1.1906 c -1.3321,9.2554 -5.9353,23.7242 -10.5642,33.2052 -2.9134,5.9673 -8.7989,15.5029 -13.2462,21.4612 l -2.4742,3.3149 -0.8095,3.3279 c -0.4452,1.8304 -0.7738,3.3637 -0.7302,3.4073 0.044,0.043 1.6233,-0.7461 3.5104,-1.7549 1.8871,-1.0088 5.2996,-2.8184 7.5832,-4.0213 2.8592,-1.5062 4.2425,-2.3838 4.4426,-2.8187 0.3686,-0.8011 1.138,-4.0895 2.1429,-9.1581 1.626,-8.2014 4.3464,-17.7253 7.2174,-25.2677 l 1.3596,-3.5719 0.085,3.0428 c 0.095,3.4 -0.3271,9.2966 -0.8988,12.5453 -0.2071,1.1765 -0.3748,2.2581 -0.3728,2.4036 0,0.1455 0.6656,-0.9779 1.4746,-2.4964 5.1857,-9.734 14.7096,-23.8025 21.4156,-31.6348 2.7601,-3.2237 8.1022,-8.9112 8.2403,-8.7731 0.1817,0.1817 -2.1931,6.5294 -4.0591,10.8495 -5.3327,12.346 -12.1987,24.2018 -21.3986,36.9496 -1.6279,2.2556 -3.15,4.4735 -3.3826,4.9288 -0.5479,1.0725 -1.5008,4.5154 -1.5008,5.4225 v 0.7046 l 4.8286,-1.9778 c 2.6558,-1.0878 6.4955,-2.611 8.5328,-3.385 9.6611,-3.6702 14.441,-5.5041 16.1396,-6.1922 2.0045,-0.812 7.1819,-2.5294 8.4667,-2.8085 1.0556,-0.2294 9.4957,-3.3966 12.1684,-4.5663 3.5119,-1.5371 13.4816,-7.4423 16.4066,-9.718 2.9545,-2.2986 6.7371,-4.7484 9.4097,-6.094 4.8722,-2.4531 12.1791,-5.3177 18.575,-7.282 2.9324,-0.9006 11.948,-2.8988 13.0793,-2.8988 1.0244,0 -10.5778,7.8463 -15.0092,10.1503 -7.7103,4.0088 -16.5466,6.9693 -24.2169,8.1136 l -3.9546,0.5899 -4.101,2.4389 c -2.2556,1.3414 -4.4583,2.6401 -4.8948,2.8859 -0.4595,0.2588 -0.571,0.3943 -0.2646,0.3217 0.291,-0.069 2.7913,-0.5608 5.5562,-1.093 2.7649,-0.5322 5.8605,-1.245 6.8792,-1.584 4.6267,-1.5396 9.8478,-1.9866 17.1979,-1.4725 9.715,0.6795 16.6398,1.9915 25.6646,4.8626 2.5807,0.821 3.2414,1.1152 2.6458,1.178 -0.4365,0.046 -2.3415,0.3466 -4.2333,0.6677 -3.0839,0.5234 -4.3424,0.5823 -12.1708,0.5698 -12.7739,-0.021 -20.5747,-0.9658 -27.4946,-3.3316 -3.707,-1.2674 -4.0238,-1.2628 -10.3409,0.1503 -3.0893,0.691 -5.3759,1.4461 -10.3187,3.4075 -3.4925,1.3859 -7.0584,2.7255 -7.9243,2.9769 l -1.5743,0.4572 4.4847,1.1228 c 5.1354,1.2858 8.7066,2.5432 16.9201,5.9578 12.2015,5.0725 17.5081,7.8356 26.2861,13.687 3.1108,2.0737 5.5144,3.7703 5.3412,3.7703 -0.1731,0 -1.921,-0.245 -3.8841,-0.5445 -3.7713,-0.5753 -9.1419,-1.987 -13.3234,-3.5022 -2.8281,-1.0248 -14.9575,-5.9187 -18.7638,-7.5708 -1.3706,-0.5948 -2.5229,-1.0506 -2.5607,-1.0128 -0.038,0.038 1.273,1.1063 2.9128,2.3745 3.5549,2.7491 7.913,6.8537 10.9936,10.3545 1.4184,1.6118 2.9217,2.9951 4.1011,3.7739 2.7901,1.8423 11.1131,8.3895 10.7984,8.4944 -0.5617,0.1872 -5.7742,-1.0453 -10.8444,-2.5643 -2.8798,-0.8628 -8.9011,-2.88 -13.3807,-4.4828 -18.2307,-6.5228 -32.6496,-12.784 -36.869,-16.0099 -1.0376,-0.7933 -2.7343,-1.8692 -3.7703,-2.391 -1.036,-0.5217 -1.8836,-0.9832 -1.8836,-1.0255 0,-0.042 0.8632,0.072 1.9182,0.254 1.055,0.182 3.7421,0.5141 5.9712,0.738 8.1699,0.8209 14.0305,2.5311 26.2418,7.658 1.2369,0.5193 2.0294,0.7986 1.7611,0.6207 -0.2683,-0.178 -1.5534,-1.0276 -2.8557,-1.8881 -4.6518,-3.0737 -13.3329,-10.4453 -15.4885,-13.1522 -0.3039,-0.3816 -1.0808,-0.8956 -1.7265,-1.1422 l -1.1739,-0.4483 -6.3317,2.4303 c -3.4824,1.3366 -8.5938,3.2981 -11.3587,4.3587 -6.9271,2.6574 -8.2688,3.2387 -7.8052,3.3819 0.2182,0.067 1.8256,0.5003 3.5718,0.9619 6.3547,1.68 11.0161,3.4936 20.7698,8.0808 15.2363,7.1657 21.2814,10.969 29.6874,18.6778 2.3892,2.191 5.632,5.7586 5.4238,5.9669 -0.5188,0.5187 -16.556,-6.7978 -26.086,-11.901 -2.0939,-1.1213 -3.8511,-1.9946 -3.9049,-1.9408 -0.054,0.054 1.0281,1.0815 2.4042,2.2839 3.8004,3.3206 10.9828,11.4085 15.1631,17.0748 1.0716,1.4525 1.8306,2.6801 1.6867,2.7281 -0.5966,0.1989 -9.0619,-5.3387 -14.4162,-9.4304 -4.2123,-3.219 -9.7239,-8.0759 -15.2497,-13.4383 -2.8377,-2.7537 -6.9075,-6.463 -9.044,-8.243 -4.2882,-3.5725 -6.0558,-5.3954 -7.7803,-8.0241 -1.0244,-1.5617 -1.2802,-1.7852 -2.3512,-2.0549 -1.162,-0.2926 -1.2998,-0.2584 -4.1761,1.0374 -1.636,0.737 -4.3736,1.9594 -6.0835,2.7164 -3.0236,1.3384 -3.0891,1.385 -2.3813,1.695 2.5511,1.1174 9.7981,3.8081 11.5482,4.2877 5.7788,1.5837 11.6173,4.797 17.7375,9.7621 6.6169,5.368 10.5121,9.3286 17.311,17.6015 5.0656,6.1639 12.6264,16.4924 11.6437,15.9061 -0.1994,-0.119 -2.089,-1.399 -4.199,-2.8446 -4.432,-3.0362 -8.8522,-6.4471 -14.2875,-11.0251 -2.1101,-1.7772 -6.2773,-5.2714 -9.2605,-7.765 -9.7175,-8.1226 -13.8578,-11.7251 -15.7556,-13.7087 -1.735,-1.8136 -5.411,-6.7768 -5.411,-7.3058 0,-0.4615 -5.5933,-2.7016 -9.7774,-3.9159 l -2.2367,-0.6491 -6.4945,3.6135 c -9.9186,5.5185 -13.0907,7.4985 -12.0135,7.4985 0.093,0 2.8392,0.5394 6.102,1.1986 11.079,2.2385 15.731,4.2353 23.8909,10.2545 6.326,4.6665 11.6767,9.6687 17.3245,16.1959 2.9561,3.4164 6.9411,8.5599 7.9308,10.2362 l 0.5167,0.8753 -0.649,-0.414 c -0.357,-0.2277 -1.4229,-0.8752 -2.3688,-1.4389 -0.9459,-0.5638 -6.2442,-3.9581 -11.774,-7.5431 -5.5298,-3.585 -12.9712,-8.4045 -16.5364,-10.71 -15.0562,-9.7362 -18.2975,-12.1281 -20.757,-15.3175 -1.1096,-1.4389 -1.4663,-1.7239 -2.3311,-1.8622 -1.1327,-0.1811 -1.5182,-0.047 -1.5182,0.5295 0,0.5936 -3.3677,11.0813 -4.3507,13.5488 -0.7766,1.9494 -0.8257,2.2165 -0.444,2.4165 0.236,0.1237 1.9196,0.8357 3.7413,1.5823 10.2466,4.1995 20.5228,11.5529 31.5368,22.5671 3.2689,3.269 4.3714,4.2128 5.1594,4.4167 0.5511,0.1426 3.0856,0.7704 5.6322,1.3951 4.4157,1.0832 4.575,1.1444 3.4396,1.3214 -0.6549,0.1021 -2.8873,0.1945 -4.961,0.2053 -2.0736,0.011 -3.7703,0.091 -3.7703,0.1772 0,0.087 0.2186,0.4736 0.4858,0.8599 0.9258,1.3384 1.006,1.5471 0.4249,1.1061 -0.2826,-0.2144 -0.9573,-0.777 -1.4993,-1.25 -0.542,-0.4731 -1.2564,-0.9195 -1.5875,-0.9919 -1.6373,-0.3584 -7.4955,-0.7328 -14.8895,-0.9517 -4.5111,-0.1335 -9.2736,-0.362 -10.5833,-0.5077 -1.3097,-0.1458 -2.9766,-0.2645 -3.7042,-0.2638 h -1.3229 l 3.3073,1.7987 c 2.8746,1.5633 3.3938,1.763 3.9687,1.5268 0.3859,-0.1585 3.0867,-0.2686 6.4823,-0.2643 10.5233,0.013 19.2446,1.4766 29.1066,4.8832 4.2995,1.4852 7.3229,2.7492 10.5809,4.4235 l 2.1167,1.0877 -4.3673,0.013 c -5.2101,0.016 -9.0042,-0.3995 -16.7994,-1.8388 -10.8602,-2.0054 -19.1768,-4.2531 -25.0724,-6.7765 -1.1401,-0.488 -2.0083,-0.7827 -1.9293,-0.6549 0.3153,0.5102 8.7682,5.5159 12.2771,7.2704 0.8675,0.4337 1.8949,0.6614 3.4798,0.7709 2.621,0.1811 6.2124,1.1636 8.5452,2.3376 2.5066,1.2614 6.5509,4.1206 10.5048,7.4262 3.6854,3.0812 11.5812,10.7494 12.1362,11.7864 0.2995,0.5597 0.2814,0.5742 -0.396,0.3166 -1.9702,-0.7491 -8.6632,-4.2167 -12.5161,-6.4847 -8.1992,-4.8262 -15.2385,-9.7397 -18.5883,-12.9747 -1.1155,-1.0773 -2.9764,-2.3734 -5.6032,-3.9026 -2.1632,-1.2594 -3.974,-2.2897 -4.024,-2.2897 -0.05,0 0.3737,0.8632 0.9415,1.9182 0.5678,1.055 1.391,2.9917 1.8294,4.3037 1.8478,5.5295 3.7373,17.9426 3.7217,24.4505 l -0.01,3.8557 -1.16,-2.6867 c -2.0208,-4.6805 -4.9001,-14.4015 -5.9439,-20.0675 -0.7809,-4.2386 -1.135,-8.7645 -0.817,-10.4414 0.1448,-0.7635 0.1908,-1.5054 0.1023,-1.6487 -0.242,-0.3915 -4.9296,-3.3768 -8.3642,-5.3266 -3.8088,-2.1624 -11.0661,-5.8072 -11.2321,-5.6412 -0.2327,0.2327 0.5758,1.3621 0.975,1.3621 0.6971,0 2.0322,5.186 2.6226,10.1865 1.1178,9.4683 1.1743,30.0576 0.092,33.4698 -0.1838,0.5794 -0.1236,0.7896 -1.7416,-6.0855 -1.0084,-4.2848 -2.3028,-11.769 -2.9502,-17.0577 -0.5455,-4.4567 -0.542,-14.0108 0.01,-16.5443 0.2723,-1.2592 0.3463,-2.4594 0.2309,-3.749 -0.1583,-1.7697 -0.2165,-1.9085 -0.8682,-2.0718 -0.3842,-0.096 -2.1058,-0.7011 -3.8256,-1.3443 -1.7199,-0.6431 -3.2863,-1.1693 -3.481,-1.1693 -0.2226,0 -0.4195,0.4777 -0.5311,1.289 -0.1566,1.1392 -0.048,1.5927 0.9362,3.9026 2.6256,6.1629 5.7515,16.7415 6.8559,23.2015 0.5838,3.4147 1.8327,17.1705 1.5299,16.8506 -0.2636,-0.2785 -3.1798,-7.8086 -5.3794,-13.8906 -3.0571,-8.4529 -6.3318,-18.384 -7.2223,-21.9022 -0.397,-1.5687 -0.8048,-2.7693 -0.9062,-2.6679 -0.3313,0.3313 -0.1954,-0.3782 0.4737,-2.4735 0.362,-1.1333 0.6596,-2.4553 0.6615,-2.9378 0,-0.4826 0.1266,-1.1076 0.2773,-1.3891 0.2447,-0.4573 0.1813,-0.5125 -0.5953,-0.5181 -0.9034,-0.01 -5.4338,-1.2669 -4.6679,-1.2986 0.3656,-0.015 2.873,0.4314 5.1877,0.9238 0.3274,0.07 0.5953,0.015 0.5953,-0.1203 0,-0.1358 -2.5896,-1.2759 -5.7547,-2.5336 -6.2997,-2.5032 -8.2593,-3.4944 -10.4726,-5.2974 -1.3092,-1.0664 -1.6068,-1.1926 -2.8134,-1.1926 h -1.3493 l 1.0435,1.3891 c 6.0717,8.0823 13.2597,25.8896 16.1921,40.1133 0.5575,2.7041 1.324,7.5121 1.2149,7.6211 -0.2498,0.2498 -5.3765,-9.2069 -9.4187,-17.3735 -3.9229,-7.9257 -5.6051,-11.7488 -7.0082,-15.927 -2.147,-6.3939 -2.5569,-8.208 -2.7234,-12.0527 -0.1291,-2.9795 -0.2157,-3.5062 -0.5774,-3.5093 -0.234,0 -2.4149,0.1359 -4.8464,0.3063 l -4.421,0.31 0.748,0.9504 c 1.7477,2.2206 4.4635,7.1417 5.8602,10.6189 1.4331,3.5676 3.493,10.18 4.7089,15.1161 1.8113,7.3528 2.5551,11.3779 3.1941,17.2842 0.9396,8.6856 1.1255,8.338 -1.5716,2.9387 -3.4746,-6.9558 -5.965,-13.4434 -9.2533,-24.1054 -2.6052,-8.4467 -3.7008,-14.0721 -3.7104,-19.05 0,-1.6007 -0.1111,-3.077 -0.2401,-3.2807 -0.3248,-0.5129 -2.4702,-0.1973 -3.8925,0.5727 -1.0485,0.5676 -7.1805,4.5789 -13.592,8.8913 -2.6906,1.8097 -19.3864,14.1235 -20.3481,15.0075 -0.3143,0.2889 -0.2733,0.3618 0.2646,0.4697 4.8732,0.978 7.1565,1.8482 10.3816,3.9566 2.8328,1.8519 7.2754,5.5039 10.8679,8.9339 3.3805,3.2276 11.5142,12.5565 10.2859,11.7973 -0.1616,-0.1 -1.584,-1.1535 -3.1609,-2.3415 -3.0857,-2.3247 -13.4956,-9.2995 -20.2748,-13.5844 -4.716,-2.9808 -8.0033,-5.6406 -8.786,-7.1088 -0.4545,-0.8526 -0.6291,-0.9729 -1.2373,-0.8527 -1.6211,0.3204 -3.6146,1.601 -10.223,6.5668 -13.7911,10.3631 -23.8508,18.8092 -23.0375,19.3421 0.056,0.037 0.5782,0.2249 1.1603,0.4181 2.8649,0.9506 5.2084,3.2162 7.7139,7.4575 1.9635,3.3239 5.7799,10.8982 7.0548,14.0015 1.0203,2.4837 2.4063,6.858 2.229,7.0352 -0.1855,0.1856 -3.3883,-4.0322 -6.4708,-8.5216 -1.587,-2.3112 -4.3947,-6.2633 -6.2395,-8.7825 -1.8448,-2.5191 -3.9444,-5.5552 -4.6657,-6.7468 -1.5979,-2.6398 -2.101,-3.3572 -2.3542,-3.3572 -0.2416,0 -0.4698,0.5907 -2.4532,6.35 -2.4828,7.209 -4.2194,14.8889 -4.637,20.5052 -0.2647,3.5617 -0.1802,3.5047 -2.4804,1.6734 z m 137.8479,-68.8797 c 4.0244,-1.708 9.6118,-3.2973 13.0601,-3.7149 l 1.5508,-0.1877 -3.4029,-1.8115 c -1.8715,-0.9964 -3.6216,-1.8144 -3.8891,-1.818 -0.2675,0 -1.4581,0.4221 -2.6458,0.9459 -2.8665,1.264 -10.0726,3.6394 -12.8428,4.2333 l -2.2166,0.4753 3.4072,1.6243 c 3.8263,1.8241 3.3212,1.8058 6.9791,0.2533 z m -8.427,-5.8483 c 1.8717,-1.3988 4.6823,-3.3108 6.2458,-4.2489 1.5634,-0.9381 2.9409,-1.803 3.0611,-1.9219 0.1201,-0.1188 -2.0602,-1.4919 -4.8453,-3.0513 -4.8605,-2.7213 -8.426,-4.5065 -8.6178,-4.3148 -0.05,0.05 -0.8511,2.1703 -1.7805,4.712 -0.9294,2.5418 -1.8758,4.9763 -2.1031,5.4101 l -0.4132,0.7888 2.4207,2.5646 c 1.3314,1.4106 2.4676,2.5736 2.5249,2.5846 0.057,0.011 1.6356,-1.1245 3.5074,-2.5232 z m -13.1366,1.2202 c -0.09,-0.1455 -0.2825,-0.2646 -0.4281,-0.2646 -0.1455,0 -0.191,0.1191 -0.101,0.2646 0.09,0.1455 0.2826,0.2646 0.4281,0.2646 0.1455,0 0.191,-0.1191 0.101,-0.2646 z m 2.9965,-10.9216 c 1.066,-2.6516 1.9933,-5.0592 2.0607,-5.3503 0.1013,-0.437 -0.259,-0.7277 -2.0704,-1.67 -3.3324,-1.7337 -8.839,-5.072 -9.9865,-6.0542 -0.9288,-0.7951 -1.1783,-0.8747 -2.7389,-0.8747 -1.3891,0 -2,0.1488 -3.1991,0.7796 -2.0798,1.094 -9.1562,5.928 -10.062,6.8734 l -0.7525,0.7855 0.6313,0.1356 c 8.1218,1.7439 15.5859,4.7876 22.0626,8.9964 1.0187,0.662 1.9116,1.2027 1.9844,1.2016 0.073,0 1.0044,-2.1714 2.0704,-4.8229 z m -26.973,1.0144 c 2.2381,-0.2157 4.1072,-0.4301 4.1536,-0.4764 0.046,-0.046 -1.0523,-1.1306 -2.4414,-2.4094 -1.7865,-1.6445 -2.6538,-2.2757 -2.963,-2.1564 -0.2405,0.093 -0.973,0.303 -1.6279,0.4673 -0.6548,0.1643 -1.4287,0.5024 -1.7198,0.7514 -0.291,0.2489 -1.6007,1.2469 -2.9104,2.2177 -1.3097,0.9708 -2.4271,1.8932 -2.4831,2.0499 -0.1191,0.3329 3.6801,0.164 9.992,-0.4441 z m 34.4628,-21.9773 c 2.103,-6.2938 2.4889,-7.6874 2.1498,-7.764 -0.2274,-0.051 -1.2232,0.3297 -2.213,0.8468 -1.6664,0.8704 -11.8575,7.1282 -17.6979,10.8672 l -2.5124,1.6085 3.5988,0.1685 c 4.3975,0.2059 7.219,0.574 10.6864,1.3939 1.4552,0.3441 2.8212,0.6086 3.0355,0.5877 0.2662,-0.026 1.202,-2.4687 2.9528,-7.7086 z m 2.346,-10.3891 c 0,-0.7066 -0.662,-0.1451 -0.7336,0.6221 -0.069,0.7377 -0.053,0.7497 0.3308,0.2598 0.2215,-0.2825 0.4028,-0.6793 0.4028,-0.8819 z m 3.6822,-2.8113 c 0.3267,-0.3937 1.6094,-4.7811 1.5935,-5.4505 -0.018,-0.7734 -2.6298,4.9165 -2.6298,5.73 0,0.2508 0.7681,0.044 1.0363,-0.2795 z m 19.6805,-9.5977 c 0.4657,-0.2437 2.2651,-1.0564 3.9986,-1.8061 l 3.152,-1.363 0.7101,-2.758 c 0.3906,-1.5169 0.8047,-3.1152 0.9202,-3.5517 0.1155,-0.4366 0.1621,-0.7343 0.1035,-0.6615 -0.059,0.073 -2.4203,2.4838 -5.248,5.3578 -2.8278,2.8741 -4.9933,5.2255 -4.8123,5.2255 0.181,0 0.7101,-0.1993 1.1759,-0.443 z m 51.779,-10.7638 c 0,-0.052 -1.1289,-0.9541 -2.5086,-2.0048 -1.3797,-1.0508 -2.9094,-2.3931 -3.3994,-2.9829 l -0.8908,-1.0724 -2.725,0.969 c -1.4988,0.533 -2.8484,1.0453 -2.9992,1.1385 -0.3801,0.2349 1.1438,0.7425 5.7761,1.9241 2.1828,0.5568 4.5641,1.2557 5.2917,1.5532 1.5148,0.6192 1.4552,0.5998 1.4552,0.4753 z m -33.0563,116.8478 c -6.3112,-7.8843 -12.5154,-18.3787 -14.6858,-24.8406 -0.6722,-2.0014 -1.5825,-6.4285 -1.3663,-6.6447 0.1423,-0.1424 2.2865,2.1634 4.0635,4.3696 4.5005,5.5878 9.2538,14.3335 12.5353,23.0638 1.1043,2.9378 2.4062,7.1838 2.2504,7.3396 -0.051,0.05 -1.3093,-1.4289 -2.7971,-3.2877 z m -212.4748,0.7265 c -0.5927,-0.3717 -0.1497,-0.6515 2.5113,-1.5859 5.46,-1.9172 8.067,-2.2072 12.1909,-1.3561 4.0208,0.8298 9.6601,2.4719 9.5548,2.7822 -0.1176,0.3465 -1.1348,0.3419 -7.9874,-0.037 -4.8342,-0.2668 -14.2,-0.076 -15.4591,0.3147 -0.2287,0.071 -0.5934,0.018 -0.8105,-0.1184 z m 190.4321,-6.1434 c -8.111,-13.1903 -12.9615,-21.9651 -16.2573,-29.4102 -1.0323,-2.3318 -3.5208,-9.4493 -3.5208,-10.0699 0,-0.6474 5.283,4.7743 7.3275,7.5199 3.3823,4.5422 5.9836,9.223 9.386,16.8895 1.7498,3.9426 3.0906,7.4674 4.0925,10.7581 0.9226,3.0303 2.521,9.4372 2.3877,9.5706 -0.062,0.062 -1.5991,-2.304 -3.4156,-5.258 z m -169.4,2.7853 c -8.1368,-2.7577 -10.5543,-3.0259 -14.8559,-1.6479 -1.4075,0.4508 -3.4478,1.2247 -4.5341,1.7198 -1.0862,0.495 -2.0033,0.9 -2.0378,0.9 -0.035,0 0.1592,-0.9227 0.4308,-2.0505 1.4545,-6.0415 2.471,-22.3529 2.4434,-39.2102 l -0.018,-10.7012 0.7367,0.8825 c 0.6449,0.7724 1.4196,2.8519 2.5683,6.894 l 0.2632,0.926 0.027,-0.8119 c 0.1436,-4.3177 3.481,-6.4578 7.1707,-4.5981 1.6564,0.8348 2.2858,1.7771 3.16,4.7306 0.4493,1.5181 0.859,2.8022 0.9104,2.8536 0.051,0.051 0.1797,-1.1227 0.2851,-2.6091 0.2687,-3.79 0.5712,-4.4475 2.0505,-4.4558 0.8294,0 1.0301,0.5347 1.5245,4.097 0.5461,3.9359 0.534,3.9228 1.2021,1.3045 0.3316,-1.2996 0.8728,-3.0772 1.2026,-3.9504 0.6074,-1.6078 2.0752,-4.2143 2.2658,-4.0236 0.057,0.057 -0.073,1.618 -0.2897,3.4686 -1.5296,13.0763 -2.059,33.2001 -1.1546,43.8917 0.1574,1.8616 0.2417,3.4232 0.1872,3.4704 -0.055,0.047 -1.6469,-0.4389 -3.5387,-1.08 z m -23.2833,0.3958 c -0.5821,-0.304 -1.9543,-1.4596 -3.0493,-2.568 -3.7492,-3.7949 -11.1842,-16.5774 -14.7919,-25.4309 l -0.8086,-1.9844 1.728,1.8521 c 5.4718,5.8648 11.2301,14.0543 15.5424,22.1045 1.2332,2.3022 2.8346,5.961 2.8346,6.4765 0,0.2286 -0.3826,0.1104 -1.4552,-0.4498 z m 43.6862,-6.2921 c 0.076,-1.6674 0.2452,-3.2152 0.3766,-3.4395 0.3715,-0.6345 0.2794,2.1915 -0.1463,4.4869 l -0.368,1.9843 z m 1.537,-6.2706 c 0.093,-0.2414 0.2284,-2.5928 0.3017,-5.2255 0.1006,-3.6129 0.2122,-4.7548 0.4552,-4.6565 0.1771,0.072 1.1852,0.097 2.2402,0.057 1.0551,-0.04 1.9174,0.02 1.9164,0.1344 0,0.362 -1.8509,5.1244 -2.4232,6.2462 -0.641,1.2565 -2.356,3.883 -2.5355,3.883 -0.068,0 -0.047,-0.1975 0.045,-0.4388 z m 0.242,-11.1367 c 0.083,-0.2547 0.4064,-1.1774 0.7187,-2.0506 0.5234,-1.4633 0.617,-2.8185 1.1969,-17.3302 0.346,-8.6585 0.6313,-17.5881 0.6341,-19.8437 0.01,-4.6954 0.025,-4.64 -2.6317,-7.6642 -2.7387,-3.1179 -7.0006,-10.0049 -10.2132,-16.5044 l -1.9819,-4.0095 1.2391,1.3229 c 2.2981,2.4534 4.6558,5.5349 7.3984,9.6696 3.0063,4.5321 4.6754,7.5921 5.2972,9.7114 0.4552,1.5514 0.3728,1.5329 3.0649,0.6882 1.1045,-0.3465 1.3267,-0.344 2.0373,0.023 0.4388,0.2269 1.3488,0.4125 2.0225,0.4125 1.1935,0 1.2212,0.019 1.0856,0.7276 -0.4209,2.2008 -0.5984,5.4713 -1.3609,25.0693 -0.2208,5.6753 -0.5275,11.0164 -0.6814,11.8691 -0.2952,1.6352 -1.9845,6.7568 -2.3561,7.1433 -0.121,0.1258 -0.6414,0.087 -1.1674,-0.086 -0.8708,-0.2874 -1.0667,-0.246 -2.3717,0.5006 -1.6236,0.9289 -2.1499,1.0246 -1.9304,0.3509 z m 8.5249,-12.3693 c 0.068,-1.6007 0.3025,-7.6729 0.5221,-13.4938 0.4571,-12.1141 0.8262,-18.0451 1.2207,-19.6171 0.2145,-0.8549 0.1761,-1.5413 -0.1744,-3.1168 -0.4097,-1.8413 -0.4234,-2.9057 -0.1554,-12.0006 0.3278,-11.1202 0.3369,-17.1108 0.017,-10.9061 -0.1014,1.9646 -0.2696,7.6796 -0.3737,12.7 -0.1601,7.7187 -0.1279,9.3528 0.2081,10.583 0.2185,0.8002 0.3693,1.4829 0.335,1.5172 -0.034,0.034 -1.0663,-0.3622 -2.2934,-0.8811 l -2.2311,-0.9434 -1.6587,0.8153 c -0.9122,0.4484 -1.7687,0.8153 -1.9033,0.8153 -0.1346,0 -0.02,-0.508 0.2546,-1.1289 0.9623,-2.1752 1.2475,-6.1427 1.8496,-25.7263 0.1432,-4.6567 0.3365,-10.5503 0.4295,-13.0969 0.1655,-4.5281 0.1538,-4.6759 -0.5302,-6.6995 l -0.6993,-2.0693 0.6697,-2.4286 c 0.8818,-3.1978 1.1005,-6.7758 1.4501,-23.7276 0.8258,-40.0405 0.8289,-41.2771 0.115,-46.5667 -0.1024,-0.7585 0,-1.8147 0.2877,-2.9104 0.5009,-1.921 0.9006,-7.9366 0.9159,-13.7821 0.01,-2.1232 0.088,-5.8439 0.1839,-8.2682 l 0.1738,-4.4079 h 2.9435 2.9435 l -0.1065,11.7772 c -0.1023,11.3202 -0.084,11.8728 0.4631,14.2418 0.5397,2.3358 0.5478,2.5466 0.1546,4.0316 -0.2728,1.0304 -0.4971,3.696 -0.655,7.7847 -0.3476,8.9964 -0.933,42.0686 -0.9227,52.1229 0.01,7.4859 0.068,8.7488 0.4631,9.7567 0.7854,2.0022 0.6731,2.1771 -0.9115,1.4188 -2.3575,-1.1283 -2.7142,-1.1612 -4.9465,-0.456 -2.1086,0.6661 -3.2136,1.2742 -2.8948,1.593 0.4135,0.4135 2.5826,0.4206 4.1709,0.014 1.5575,-0.399 1.7667,-0.3987 2.822,0 0.627,0.2395 1.3598,0.3779 1.6285,0.3076 0.4604,-0.1204 0.4685,-0.05 0.1409,1.2127 -0.4979,1.9195 -1.3493,10.6667 -1.5362,15.7825 -0.088,2.4011 -0.2191,4.7526 -0.2919,5.2256 -0.2544,1.6511 0.3689,0.8453 0.6661,-0.8612 0.8863,-5.0897 2.4155,-18.7215 2.3574,-21.0154 l -0.063,-2.4959 0.731,-0.2437 c 0.753,-0.251 2.6843,-0.072 3.2879,0.3042 0.2633,0.1642 0.2746,0.3873 0.05,0.979 -0.3836,1.0088 -1.0822,5.8441 -2.2723,15.7262 -0.8158,6.7742 -0.9289,8.3247 -0.7045,9.6573 0.1471,0.8731 0.2286,1.6321 0.1812,1.6865 -0.047,0.055 -0.4645,-0.2192 -0.9269,-0.6083 -0.6922,-0.5824 -1.0565,-0.6934 -2.0617,-0.6282 -1.1421,0.074 -1.2261,0.1304 -1.2996,0.8729 l -0.079,0.7937 2.1291,-0.086 c 2.0224,-0.082 2.4461,0.06 1.8782,0.6286 -1.1855,1.1875 -3.4445,22.4011 -4.6334,43.5108 -0.6629,11.7689 -0.7084,12.3503 -1.0806,13.805 -0.3543,1.3847 -0.3583,1.3592 -0.2377,-1.5019 z m 2.6276,-74.7542 c 0.2224,-2.8429 0.5225,-5.5805 0.6668,-6.0837 0.3248,-1.1325 0.325,-1.2936 8e-4,-0.7861 -0.1395,0.2183 -0.3755,0.9922 -0.5245,1.7198 -0.3191,1.5584 -1.0767,12.9927 -1.0254,15.4782 0.023,1.0996 0.1152,0.4795 0.2566,-1.7198 0.1217,-1.8918 0.4033,-5.7656 0.6257,-8.6084 z m -1.8593,-82.0034 c 0.6302,-0.2429 1.0073,-0.2164 1.929,0.1356 1.1809,0.451 2.6133,0.3395 2.2931,-0.1786 -0.2967,-0.48 -2.8426,-1.5475 -3.6826,-1.5441 -1.3436,0.01 -4.2996,1.5728 -3.9705,2.1054 0.1434,0.2319 2.349,-0.1012 3.431,-0.5183 z m -45.2265,140.2874 c -2.6156,-0.043 -4.86,-0.1833 -4.9876,-0.3109 -0.2957,-0.2957 0,-0.3792 4.203,-1.1874 4.6487,-0.8938 8.5031,-1.2244 11.0965,-0.9516 1.8919,0.199 7.3478,1.3295 8.4412,1.749 0.5388,0.2068 0.5405,0.5327 0,0.7386 -0.3966,0.1522 -8.2809,0.1364 -18.7569,-0.038 z m -4.9012,-2.5323 c 3e-4,-0.1717 0.1726,-1.979 0.3828,-4.0163 1.0954,-10.6139 1.5003,-24.6467 1.6529,-57.2822 0.1253,-26.814 -0.1149,-46.4135 -0.6291,-51.3292 l -0.1522,-1.4552 0.7223,0.6614 c 0.8225,0.7534 2.0316,3.0719 3.3113,6.35 0.4829,1.237 0.9608,2.344 1.0619,2.4602 0.1011,0.1162 0.4429,-1.1127 0.7594,-2.7307 0.3165,-1.618 0.7583,-3.2209 0.9817,-3.5618 0.8564,-1.3071 4.105,-2.1058 6.0091,-1.4774 1.6704,0.5513 2.3239,1.3191 3.8301,4.4997 l 1.4487,3.059 0.641,-2.5135 c 0.3526,-1.3825 0.926,-3.1369 1.2742,-3.8988 0.6359,-1.3915 1.9751,-3.3468 2.1633,-3.1586 0.056,0.055 -0.08,2.7078 -0.301,5.8942 -0.9181,13.2344 -1.2023,46.3407 -0.6677,77.76 0.2501,14.6998 0.4673,19.5261 1.201,26.6927 0.2218,2.1662 0.3405,4.0013 0.2638,4.078 -0.077,0.077 -1.9557,-0.3254 -4.1754,-0.8936 -3.744,-0.9584 -4.2942,-1.032 -7.6077,-1.0181 -3.6461,0.015 -6.1882,0.4226 -10.3849,1.664 -1.2493,0.3695 -1.7858,0.4344 -1.7855,0.2162 z m 44.1157,-39.735 c -0.3506,-2.7629 -0.696,-6.91 -1.2478,-14.9823 -0.4321,-6.3218 -0.634,-8.0624 -1.0437,-8.9958 -1.1437,-2.606 -1.9324,-8.625 -2.4398,-18.6198 -0.1835,-3.6137 -0.2206,-6.9452 -0.091,-8.2021 l 0.2176,-2.1167 0.8792,3.5719 c 0.4836,1.9645 1.1115,4.8861 1.3954,6.4923 1.2727,7.2007 1.8468,16.6537 1.134,18.6699 -0.2838,0.8027 -0.231,2.1992 0.3352,8.8635 0.3696,4.3509 0.7985,9.1609 0.9531,10.6889 0.1546,1.528 0.2425,3.552 0.1953,4.4979 l -0.086,1.7198 z m 40.0213,-4.6838 c -0.3638,-0.45 -1.1426,-1.6042 -1.7306,-2.5651 -1.3783,-2.2521 -2.7375,-3.0495 -4.8099,-2.8219 l -1.3812,0.1517 1.1515,-1.655 c 3.0059,-4.3205 8.7601,-18.3261 9.9495,-24.2168 0.2654,-1.3144 0.4237,-1.6337 0.7607,-1.535 0.2341,0.068 1.1996,0.2559 2.1454,0.4165 2.542,0.4317 2.5211,0.4194 3.8198,2.2394 0.6606,0.9258 1.3438,1.7308 1.5181,1.7889 0.206,0.069 -0.03,0.6775 -0.6741,1.7373 -3.5471,5.8392 -8.5399,19.2964 -9.2969,25.0584 -0.3354,2.5523 -0.4401,2.6534 -1.4523,1.4016 z m 210.2115,-15.5738 c -5.7713,-0.4064 -10.0833,-1.0947 -18.8874,-3.0151 -10.6633,-2.3259 -19.4114,-5.1655 -22.6104,-7.3393 l -0.9676,-0.6575 1.1195,-0.3354 c 1.8274,-0.5475 6.4456,-0.8548 10.125,-0.6737 4.8822,0.2402 8.3739,0.7717 13.0228,1.9823 9.1098,2.3722 16.0233,5.1998 23.0929,9.445 l 1.4552,0.8739 -1.7198,-0.038 c -0.9459,-0.021 -3.0295,-0.1299 -4.6302,-0.2426 z m -75.8492,-2.0094 c 0.2909,-0.5703 1.3271,-3.0563 2.3026,-5.5245 2.8639,-7.2462 5.0423,-11.2979 10.3075,-19.172 8.7707,-13.1165 15.4711,-20.9024 24.2094,-28.1313 0.7983,-0.6604 1.483,-1.1692 1.5216,-1.1306 0.1197,0.1196 -5.0376,9.9113 -7.3387,13.9333 -8.7427,15.2811 -14.3346,23.5089 -21.6217,31.8138 -2.104,2.3979 -4.9094,5.0595 -8.5262,8.0893 l -1.3835,1.1589 z m 14.3695,-5.9815 c 1.2172,-1.5324 3.106,-3.9557 4.1974,-5.3852 6.9485,-9.1012 26.8884,-25.4902 39.3643,-32.3544 2.9118,-1.6021 6.4208,-3.2848 6.5486,-3.1403 0.1121,0.1268 -4.8519,6.0417 -7.9867,9.5165 -4.3678,4.8416 -11.7313,11.7154 -17.6856,16.5092 -7.2876,5.8674 -13.1321,9.8485 -19.1823,13.0664 -2.2556,1.1996 -4.8588,2.7195 -5.7849,3.3775 l -1.6838,1.1963 z m -174.9255,0.922 c -0.9321,-0.6314 -2.1058,-0.7016 -3.2658,-0.1952 -0.4537,0.198 -0.4489,0.1369 0.067,-0.8752 0.8186,-1.6047 1.2259,-3.405 2.2747,-10.0564 0.5201,-3.2982 1.4796,-9.1228 2.1324,-12.9436 1.5657,-9.1643 2.4943,-15.5153 2.4949,-17.064 l 5e-4,-1.2568 h 1.2899 c 0.7094,0 1.6511,0.072 2.0927,0.1606 l 0.8028,0.1605 -0.4998,1.4527 c -0.7329,2.1304 -1.0619,3.9068 -3.3954,18.3345 -1.165,7.2033 -2.2572,13.9303 -2.4271,14.949 -0.1699,1.0186 -0.3837,3.2266 -0.4751,4.9067 l -0.1661,3.0546 z m 37.2832,-7.6303 c -1.928,-2.3905 -2.4023,-2.6877 -4.8718,-3.0534 -1.1641,-0.1723 -2.163,-0.3491 -2.2197,-0.3928 -0.057,-0.044 0.5534,-1.184 1.3556,-2.5341 1.9422,-3.2682 2.2933,-3.9863 4.2648,-8.7232 2.8611,-6.8743 4.1333,-10.5016 5.1882,-14.7932 0.9518,-3.8719 1.1084,-4.2666 2.5191,-6.35 1.8738,-2.7674 3.5266,-6.1678 5.9372,-12.2147 3.0956,-7.7655 4.7061,-12.7859 5.1651,-16.1007 0.11,-0.7943 0.6848,-2.093 1.6397,-3.7042 2.6583,-4.4856 4.4972,-8.5617 8.9669,-19.8773 l 1.5416,-3.9026 h 3.7857 3.7856 l -0.6875,1.5213 c -4.1193,9.1152 -8.2368,20.333 -9.4931,25.8631 -0.6547,2.8819 -0.6435,2.8569 -1.1059,2.4732 -0.2205,-0.183 -0.9259,-1.015 -1.5676,-1.8489 -1.3038,-1.6945 -1.443,-1.7642 -4.0791,-2.0459 -2.9668,-0.317 -2.5675,0.542 0.4818,1.0364 1.399,0.2268 1.6164,0.3642 2.9791,1.881 1.3525,1.5057 1.5526,1.6333 2.5052,1.5974 0.6677,-0.025 2.3065,-0.6459 4.6155,-1.7485 5.0343,-2.404 10.0813,-4.2103 15.5492,-5.565 9.1526,-2.2676 13.5791,-3.0066 19.1195,-3.1917 l 3.8365,-0.1282 -2.1167,0.6288 c -1.1642,0.3458 -5.6885,1.7042 -10.0542,3.0185 -13.7692,4.1456 -17.4842,4.9976 -22.6831,5.2026 -2.4847,0.098 -3.2501,0.223 -3.8365,0.6272 -0.4028,0.2777 -1.9561,1.3146 -3.4517,2.3041 -3.0964,2.0486 -3.5281,2.6202 -5.8889,7.7974 -3.4224,7.5051 -6.2621,16.1302 -7.2619,22.0562 l -0.1723,1.0218 -0.6734,-0.6249 c -0.3703,-0.3438 -1.2001,-1.3061 -1.844,-2.1386 -1.3386,-1.7306 -2.2843,-2.1467 -4.5705,-2.0111 -1.7114,0.1016 -2.1063,0.645 -0.6331,0.8712 3.384,0.5198 3.7039,0.6491 4.4664,1.8067 0.4026,0.6112 1.1406,1.4877 1.6399,1.9477 l 0.9078,0.8362 -1.1187,1.6475 c -3.7336,5.4978 -9.2021,20.0324 -9.9067,26.3306 -0.2736,2.4461 -0.4034,2.477 -2.014,0.4801 z m -30.2718,-35.5934 c -1.2093,-0.5445 -2.0596,-0.6104 -2.7955,-0.2165 -0.649,0.3473 -0.644,0.289 0.1327,-1.5565 0.8114,-1.9278 1.1633,-3.4661 2.5207,-11.0206 0.6015,-3.3469 1.6879,-9.181 2.4144,-12.9645 1.7214,-8.9653 2.3578,-12.9109 2.3579,-14.6182 v -1.389 h 1.0845 c 1.1887,0 2.8844,0.6788 2.8842,1.1546 -10e-5,0.1653 -0.236,0.921 -0.5242,1.6793 -0.2882,0.7584 -0.9506,3.7348 -1.472,6.6145 -0.5213,2.8797 -1.9036,10.3555 -3.0718,16.6129 -1.1682,6.2574 -2.2024,12.4579 -2.2982,13.7788 l -0.1743,2.4017 z m -63.9984,-5.7323 c -0.2201,-0.3561 4.6656,-1.9613 7.7376,-2.542 3.7403,-0.7071 7.1065,-0.4572 12.6046,0.9361 1.9781,0.5013 2.7684,0.8602 2.4953,1.1334 -0.063,0.063 -4.3417,0.1801 -9.5074,0.2594 -5.1656,0.079 -10.2386,0.2236 -11.2733,0.3206 -1.2374,0.116 -1.9414,0.079 -2.0568,-0.1075 z m 0.214,-3.1586 c 0.4762,-2.9717 0.7222,-10.8659 0.8618,-27.649 l 0.1557,-18.7192 h 9.7152 9.7151 l 0.1573,14.3537 c 0.1935,17.6568 0.4423,22.3062 1.6708,31.2207 0.2135,1.5496 0.3026,1.5413 -3.623,0.3361 -6.1761,-1.8962 -8.7857,-1.8506 -14.9498,0.2616 -1.9073,0.6535 -3.5565,1.1882 -3.665,1.1882 -0.1084,0 -0.1255,-0.4464 -0.038,-0.9921 z m 71.7219,-33.4501 c -0.5374,-0.3416 -1.1568,-0.479 -1.9182,-0.4255 -0.6185,0.043 -1.1245,0 -1.1245,-0.088 0,-0.092 0.2288,-0.6878 0.5083,-1.3248 0.4063,-0.9256 2.6667,-10.8065 2.6667,-11.6567 0,-0.1194 0.6549,-0.217 1.4552,-0.217 0.8004,0 1.4552,0.055 1.4552,0.1229 0,0.068 -0.4167,2.4104 -0.926,5.2061 -0.5093,2.7957 -0.926,5.8885 -0.926,6.8728 0,0.9844 -0.089,1.8404 -0.1985,1.9022 -0.1091,0.062 -0.5556,-0.1147 -0.9922,-0.3922 z" id="path2" /></g></svg>