<svg width="804" height="904" viewBox="0 0 804 904" fill="none" xmlns="http://www.w3.org/2000/svg">
<path d="M802 2H2V902H802V2Z" stroke="#785940" stroke-width="4"/>
<path d="M402 502V902Z" fill="#785940"/>
<path d="M402 502V902" stroke="#785940" stroke-width="4"/>
<path d="M502 502V902Z" fill="#785940"/>
<path d="M502 502V902" stroke="#785940" stroke-width="4"/>
<path d="M602 502V902Z" fill="#785940"/>
<path d="M602 502V902" stroke="#785940" stroke-width="4"/>
<path d="M702 502V902Z" fill="#785940"/>
<path d="M702 502V902" stroke="#785940" stroke-width="4"/>
<path d="M802 502H402Z" fill="#785940"/>
<path d="M802 502H402" stroke="#785940" stroke-width="4"/>
<path d="M802 602H402Z" fill="#785940"/>
<path d="M802 602H402" stroke="#785940" stroke-width="4"/>
<path d="M802 702H402Z" fill="#785940"/>
<path d="M802 702H402" stroke="#785940" stroke-width="4"/>
<path d="M802 802H402Z" fill="#785940"/>
<path d="M802 802H402" stroke="#785940" stroke-width="4"/>
<path d="M402 802L502 702Z" fill="#785940"/>
<path d="M402 802L502 702" stroke="#785940" stroke-width="4"/>
<path d="M402 802L502 902Z" fill="#785940"/>
<path d="M402 802L502 902" stroke="#785940" stroke-width="4"/>
<path d="M402 502V902Z" fill="#785940"/>
<path d="M402 502V902" stroke="#785940" stroke-width="4"/>
<path d="M302 502V902Z" fill="#785940"/>
<path d="M302 502V902" stroke="#785940" stroke-width="4"/>
<path d="M202 502V902Z" fill="#785940"/>
<path d="M202 502V902" stroke="#785940" stroke-width="4"/>
<path d="M102 502V902Z" fill="#785940"/>
<path d="M102 502V902" stroke="#785940" stroke-width="4"/>
<path d="M2 502H402Z" fill="#785940"/>
<path d="M2 502H402" stroke="#785940" stroke-width="4"/>
<path d="M2 602H402Z" fill="#785940"/>
<path d="M2 602H402" stroke="#785940" stroke-width="4"/>
<path d="M2 702H402Z" fill="#785940"/>
<path d="M2 702H402" stroke="#785940" stroke-width="4"/>
<path d="M2 802H402Z" fill="#785940"/>
<path d="M2 802H402" stroke="#785940" stroke-width="4"/>
<path d="M402 802L302 702Z" fill="#785940"/>
<path d="M402 802L302 702" stroke="#785940" stroke-width="4"/>
<path d="M402 802L302 902Z" fill="#785940"/>
<path d="M402 802L302 902" stroke="#785940" stroke-width="4"/>
<path d="M402 402L402 2Z" fill="#785940"/>
<path d="M402 402L402 2" stroke="#785940" stroke-width="4"/>
<path d="M302 402L302 2Z" fill="#785940"/>
<path d="M302 402L302 2" stroke="#785940" stroke-width="4"/>
<path d="M202 402L202 2Z" fill="#785940"/>
<path d="M202 402L202 2" stroke="#785940" stroke-width="4"/>
<path d="M102 402L102 2Z" fill="#785940"/>
<path d="M102 402L102 2" stroke="#785940" stroke-width="4"/>
<path d="M2 402L402 402Z" fill="#785940"/>
<path d="M2 402L402 402" stroke="#785940" stroke-width="4"/>
<path d="M2 302L402 302Z" fill="#785940"/>
<path d="M2 302L402 302" stroke="#785940" stroke-width="4"/>
<path d="M2 202L402 202Z" fill="#785940"/>
<path d="M2 202L402 202" stroke="#785940" stroke-width="4"/>
<path d="M2 102L402 102Z" fill="#785940"/>
<path d="M2 102L402 102" stroke="#785940" stroke-width="4"/>
<path d="M178 294H194V278" stroke="#785940" stroke-width="4"/>
<path d="M194 326V310H178" stroke="#785940" stroke-width="4"/>
<path d="M226 310H210V326" stroke="#785940" stroke-width="4"/>
<path d="M210 278V294H226" stroke="#785940" stroke-width="4"/>
<path d="M178 594H194V578" stroke="#785940" stroke-width="4"/>
<path d="M194 626V610H178" stroke="#785940" stroke-width="4"/>
<path d="M226 610H210V626" stroke="#785940" stroke-width="4"/>
<path d="M210 578V594H226" stroke="#785940" stroke-width="4"/>
<path d="M78 694H94V678" stroke="#785940" stroke-width="4"/>
<path d="M94 726V710H78" stroke="#785940" stroke-width="4"/>
<path d="M126 710H110V726" stroke="#785940" stroke-width="4"/>
<path d="M110 678V694H126" stroke="#785940" stroke-width="4"/>
<path d="M378 294H394V278" stroke="#785940" stroke-width="4"/>
<path d="M394 326V310H378" stroke="#785940" stroke-width="4"/>
<path d="M426 310H410V326" stroke="#785940" stroke-width="4"/>
<path d="M410 278V294H426" stroke="#785940" stroke-width="4"/>
<path d="M378 594H394V578" stroke="#785940" stroke-width="4"/>
<path d="M394 626V610H378" stroke="#785940" stroke-width="4"/>
<path d="M426 610H410V626" stroke="#785940" stroke-width="4"/>
<path d="M410 578V594H426" stroke="#785940" stroke-width="4"/>
<path d="M578 294H594V278" stroke="#785940" stroke-width="4"/>
<path d="M594 326V310H578" stroke="#785940" stroke-width="4"/>
<path d="M626 310H610V326" stroke="#785940" stroke-width="4"/>
<path d="M610 278V294H626" stroke="#785940" stroke-width="4"/>
<path d="M578 594H594V578" stroke="#785940" stroke-width="4"/>
<path d="M594 626V610H578" stroke="#785940" stroke-width="4"/>
<path d="M626 610H610V626" stroke="#785940" stroke-width="4"/>
<path d="M610 578V594H626" stroke="#785940" stroke-width="4"/>
<path d="M678 694H694V678" stroke="#785940" stroke-width="4"/>
<path d="M694 726V710H678" stroke="#785940" stroke-width="4"/>
<path d="M726 710H710V726" stroke="#785940" stroke-width="4"/>
<path d="M710 678V694H726" stroke="#785940" stroke-width="4"/>
<path d="M78 194H94V178" stroke="#785940" stroke-width="4"/>
<path d="M94 226V210H78" stroke="#785940" stroke-width="4"/>
<path d="M126 210H110V226" stroke="#785940" stroke-width="4"/>
<path d="M110 178V194H126" stroke="#785940" stroke-width="4"/>
<path d="M26 310H10L10 326" stroke="#785940" stroke-width="4"/>
<path d="M10 278L10 294H26" stroke="#785940" stroke-width="4"/>
<path d="M26 610H10L10 626" stroke="#785940" stroke-width="4"/>
<path d="M10 578L10 594H26" stroke="#785940" stroke-width="4"/>
<path d="M778 310H794V326" stroke="#785940" stroke-width="4"/>
<path d="M794 278V294H778" stroke="#785940" stroke-width="4"/>
<path d="M778 610H794V626" stroke="#785940" stroke-width="4"/>
<path d="M794 578V594H778" stroke="#785940" stroke-width="4"/>
<path d="M402 102L302 202Z" fill="#785940"/>
<path d="M402 102L302 202" stroke="#785940" stroke-width="4"/>
<path d="M402 102L302 2Z" fill="#785940"/>
<path d="M402 102L302 2" stroke="#785940" stroke-width="4"/>
<path d="M402 402L402 2Z" fill="#785940"/>
<path d="M402 402L402 2" stroke="#785940" stroke-width="4"/>
<path d="M502 402L502 2Z" fill="#785940"/>
<path d="M502 402L502 2" stroke="#785940" stroke-width="4"/>
<path d="M602 402V2Z" fill="#785940"/>
<path d="M602 402V2" stroke="#785940" stroke-width="4"/>
<path d="M702 402V2Z" fill="#785940"/>
<path d="M702 402V2" stroke="#785940" stroke-width="4"/>
<path d="M802 402H402Z" fill="#785940"/>
<path d="M802 402H402" stroke="#785940" stroke-width="4"/>
<path d="M802 302H402Z" fill="#785940"/>
<path d="M802 302H402" stroke="#785940" stroke-width="4"/>
<path d="M802 202L402 202Z" fill="#785940"/>
<path d="M802 202L402 202" stroke="#785940" stroke-width="4"/>
<path d="M802 102L402 102Z" fill="#785940"/>
<path d="M802 102L402 102" stroke="#785940" stroke-width="4"/>
<path d="M726 194H710V178" stroke="#785940" stroke-width="4"/>
<path d="M710 226V210H726" stroke="#785940" stroke-width="4"/>
<path d="M678 210H694V226" stroke="#785940" stroke-width="4"/>
<path d="M694 178V194H678" stroke="#785940" stroke-width="4"/>
<path d="M402 102L502 202Z" fill="#785940"/>
<path d="M402 102L502 202" stroke="#785940" stroke-width="4"/>
<path d="M402 102L502 2Z" fill="#785940"/>
<path d="M402 102L502 2" stroke="#785940" stroke-width="4"/>
</svg>
