<?xml version="1.0" encoding="UTF-8" standalone="no"?>
<!DOCTYPE svg PUBLIC "-//W3C//DTD SVG 1.1//EN" "http://www.w3.org/Graphics/SVG/1.1/DTD/svg11.dtd">
<svg width="100%" height="100%" viewBox="0 0 23 21" version="1.1" xmlns="http://www.w3.org/2000/svg" xmlns:xlink="http://www.w3.org/1999/xlink" xml:space="preserve" xmlns:serif="http://www.serif.com/" style="fill-rule:evenodd;clip-rule:evenodd;stroke-linejoin:round;stroke-miterlimit:2;">
    <g transform="matrix(1,0,0,1,-169.675684,-79.412994)">
        <g>
            <path d="M172.337,96.495L172.266,96.397C172.266,96.397 172.475,96.248 172.837,95.987C173.017,95.856 173.237,95.7 173.491,95.519C173.742,95.335 174.017,95.121 174.343,94.915C174.978,94.483 175.755,94.042 176.574,93.548C177.412,93.075 178.204,92.434 178.957,91.748C179.141,91.571 179.318,91.405 179.51,91.22C179.686,91.04 179.863,90.861 180.038,90.682C180.375,90.312 180.708,89.95 181.015,89.587C181.634,88.865 182.192,88.177 182.675,87.595C182.92,87.309 183.125,87.021 183.316,86.778C183.513,86.524 183.672,86.323 183.809,86.148C184.086,85.8 184.245,85.602 184.245,85.602L184.337,85.678C184.337,85.678 184.179,85.877 183.904,86.225C183.765,86.398 183.603,86.604 183.407,86.853C183.217,87.095 183.014,87.384 182.77,87.67C182.286,88.253 181.728,88.942 181.107,89.665C180.799,90.028 180.463,90.393 180.125,90.763C179.949,90.942 179.77,91.125 179.592,91.309C179.399,91.492 179.223,91.659 179.038,91.835C178.855,92.016 178.652,92.177 178.46,92.346C178.271,92.518 178.068,92.67 177.867,92.823L177.568,93.05L177.261,93.266C177.052,93.396 176.847,93.521 176.64,93.647C175.817,94.144 175.042,94.587 174.414,95.013C174.09,95.217 173.812,95.434 173.562,95.615C173.308,95.799 173.088,95.956 172.907,96.086C172.543,96.347 172.34,96.494 172.337,96.495Z" style="fill:rgb(51,51,51);fill-rule:nonzero;"/>
            <path d="M171.626,97.574C171.359,97.814 171.112,98.043 170.903,98.26C170.7,98.485 170.514,98.675 170.372,98.846C170.336,98.889 170.3,98.93 170.265,98.968C170.236,99.005 170.208,99.04 170.183,99.074C170.151,99.109 170.125,99.139 170.1,99.168C170.08,99.196 170.048,99.237 170.029,99.265C169.938,99.382 169.858,99.438 169.798,99.421C169.736,99.404 169.697,99.315 169.683,99.17C169.679,99.133 169.673,99.095 169.677,99.048C169.683,99.001 169.692,98.948 169.7,98.896C169.71,98.838 169.724,98.779 169.737,98.716C169.759,98.657 169.78,98.598 169.801,98.536C169.889,98.274 170.066,98.008 170.269,97.717C170.478,97.428 170.739,97.149 171.031,96.886C171.622,96.363 172.216,96.009 172.664,95.789C173.116,95.573 173.42,95.488 173.497,95.588C173.573,95.688 173.387,95.965 173.034,96.315C172.68,96.668 172.162,97.096 171.626,97.574Z" style="fill:rgb(51,51,51);fill-rule:nonzero;"/>
            <path d="M184.249,85.698C183.233,84.673 182.796,83.325 182.598,82.24C182.485,81.706 182.415,81.253 182.383,80.928C182.37,80.762 182.357,80.632 182.352,80.544C182.347,80.453 182.345,80.404 182.345,80.399L182.408,80.397C182.409,80.401 182.411,80.451 182.415,80.54C182.422,80.629 182.432,80.756 182.445,80.92C182.479,81.241 182.544,81.692 182.665,82.215C182.86,83.291 183.292,84.629 184.299,85.642L184.249,85.698Z" style="fill:rgb(51,51,51);fill-rule:nonzero;"/>
            <path d="M184.249,85.698C183.737,85.185 183.463,84.603 183.338,84.017C183.275,83.725 183.247,83.433 183.247,83.15C183.247,83.006 183.252,82.867 183.265,82.731C183.273,82.596 183.279,82.467 183.294,82.34C183.347,81.837 183.47,81.405 183.56,81.099C183.599,80.948 183.635,80.829 183.665,80.744C183.697,80.657 183.713,80.613 183.715,80.61L183.771,80.634C183.772,80.638 183.754,80.683 183.724,80.767C183.696,80.849 183.658,80.969 183.621,81.117C183.603,81.189 183.578,81.275 183.551,81.366C183.527,81.453 183.502,81.55 183.477,81.656C183.426,81.864 183.386,82.093 183.358,82.34C183.345,82.464 183.334,82.591 183.329,82.722C183.321,82.856 183.314,82.995 183.315,83.135C183.315,83.414 183.341,83.703 183.404,83.989C183.528,84.564 183.797,85.138 184.299,85.642L184.249,85.698Z" style="fill:rgb(51,51,51);fill-rule:nonzero;"/>
            <path d="M184.249,85.698C183.235,84.68 182.453,83.771 181.919,83.117C181.653,82.788 181.449,82.524 181.311,82.342C181.243,82.249 181.191,82.178 181.154,82.128C181.118,82.082 181.1,82.053 181.1,82.052L181.155,82.006C181.155,82.006 181.175,82.033 181.209,82.083C181.247,82.131 181.3,82.203 181.367,82.294C181.503,82.477 181.707,82.74 181.974,83.066C182.507,83.719 183.287,84.626 184.299,85.642L184.249,85.698Z" style="fill:rgb(51,51,51);fill-rule:nonzero;"/>
            <path d="M184.249,85.698C183.809,85.258 183.623,84.687 183.68,84.009C183.704,83.751 183.761,83.489 183.843,83.227C183.918,82.969 184.011,82.711 184.125,82.461C184.179,82.336 184.24,82.211 184.304,82.091C184.369,81.965 184.427,81.855 184.491,81.733C184.608,81.501 184.733,81.279 184.861,81.073C184.927,80.967 184.988,80.869 185.046,80.776C185.127,80.659 185.203,80.547 185.273,80.439C185.361,80.316 185.341,80.326 185.361,80.299C185.372,80.289 185.377,80.283 185.386,80.271C185.397,80.254 185.406,80.237 185.411,80.224C185.433,80.191 185.448,80.17 185.462,80.144C185.474,80.121 185.484,80.103 185.494,80.087C185.517,80.053 185.528,80.038 185.53,80.036L185.588,80.057C185.586,80.058 185.578,80.075 185.551,80.11C185.542,80.126 185.532,80.144 185.521,80.171C185.505,80.195 185.489,80.217 185.469,80.251C185.46,80.267 185.453,80.282 185.442,80.301C185.431,80.311 185.426,80.318 185.417,80.331C185.395,80.358 185.414,80.351 185.326,80.474C185.254,80.579 185.18,80.692 185.104,80.807C185.043,80.9 184.98,80.998 184.917,81.102C184.79,81.306 184.666,81.523 184.55,81.755C184.486,81.876 184.427,81.987 184.362,82.109C184.303,82.229 184.242,82.351 184.185,82.476C184.075,82.724 183.98,82.978 183.908,83.232C183.828,83.491 183.771,83.75 183.75,84.002C183.691,84.661 183.874,85.216 184.299,85.642L184.249,85.698Z" style="fill:rgb(51,51,51);fill-rule:nonzero;"/>
            <path d="M184.249,85.698C183.737,85.185 183.436,84.517 183.259,83.808C183.172,83.452 183.117,83.086 183.086,82.724C183.071,82.543 183.054,82.366 183.041,82.193C183.029,82.019 183.02,81.85 183.009,81.69C183,81.36 183,81.052 183.009,80.774C182.997,80.501 182.993,80.262 182.992,80.062C182.997,79.86 183.001,79.701 183.003,79.591C183.009,79.48 183.014,79.417 183.014,79.413L183.075,79.422C183.077,79.427 183.073,79.486 183.065,79.6C183.063,79.707 183.06,79.865 183.054,80.065C183.053,80.263 183.059,80.501 183.07,80.771C183.069,81.044 183.061,81.352 183.075,81.676C183.082,82.002 183.115,82.345 183.152,82.699C183.183,83.058 183.238,83.42 183.324,83.772C183.496,84.476 183.797,85.138 184.299,85.642L184.249,85.698Z" style="fill:rgb(51,51,51);fill-rule:nonzero;"/>
            <path d="M184.249,85.698C183.737,85.185 183.502,84.576 183.432,83.958C183.397,83.65 183.405,83.336 183.438,83.032C183.458,82.878 183.479,82.729 183.499,82.587C183.52,82.444 183.547,82.302 183.58,82.167C183.645,81.894 183.722,81.639 183.804,81.41C183.875,81.183 183.94,80.984 184.004,80.818C184.071,80.652 184.128,80.518 184.171,80.425C184.218,80.33 184.244,80.279 184.247,80.275L184.303,80.305C184.303,80.306 184.278,80.358 184.23,80.453C184.184,80.544 184.127,80.676 184.064,80.84C184,81.005 183.932,81.202 183.868,81.426C183.786,81.651 183.707,81.904 183.646,82.17C183.581,82.439 183.539,82.721 183.507,83.021C183.472,83.321 183.463,83.627 183.5,83.933C183.567,84.54 183.798,85.138 184.299,85.642L184.249,85.698Z" style="fill:rgb(51,51,51);fill-rule:nonzero;"/>
            <path d="M184.25,85.701C183.897,85.414 183.728,85.011 183.742,84.511C183.754,84.092 183.91,83.626 184.108,83.179C184.205,82.956 184.314,82.736 184.432,82.523C184.497,82.415 184.558,82.31 184.616,82.21C184.677,82.11 184.734,82.014 184.795,81.914C185.021,81.529 185.249,81.196 185.422,80.957L185.457,80.915L185.458,80.911L185.46,80.907L185.49,80.864L185.497,80.853L185.514,80.83C185.534,80.801 185.556,80.774 185.575,80.748C185.614,80.696 185.647,80.651 185.671,80.614C185.704,80.571 185.706,80.575 185.713,80.562C185.717,80.555 185.721,80.551 185.721,80.551L185.774,80.585C185.771,80.585 185.769,80.59 185.762,80.599C185.757,80.607 185.754,80.613 185.722,80.654C185.695,80.691 185.662,80.735 185.625,80.788C185.604,80.812 185.584,80.838 185.565,80.868L185.548,80.891L185.544,80.896L185.514,80.94L185.506,80.951L185.475,80.994C185.303,81.23 185.075,81.56 184.852,81.941L184.766,82.086L184.673,82.235C184.617,82.332 184.555,82.436 184.492,82.543C184.376,82.754 184.264,82.97 184.171,83.19C184.08,83.409 183.982,83.638 183.921,83.858C183.859,84.079 183.819,84.295 183.81,84.501C183.797,84.98 183.958,85.365 184.297,85.641L184.25,85.701Z" style="fill:rgb(51,51,51);fill-rule:nonzero;"/>
            <path d="M184.24,85.683C184.214,85.5 184.355,85.116 184.586,84.641C184.703,84.403 184.842,84.145 184.983,83.873C185.131,83.599 185.281,83.32 185.427,83.052C185.503,82.915 185.576,82.787 185.651,82.648C185.719,82.515 185.786,82.384 185.853,82.256C185.982,82.005 186.104,81.773 186.209,81.569C186.269,81.46 186.322,81.358 186.372,81.267C186.395,81.224 186.417,81.183 186.437,81.145L186.467,81.091L186.479,81.053C186.516,80.956 186.539,80.899 186.546,80.884L186.603,80.909C186.601,80.912 186.583,80.961 186.547,81.052C186.539,81.074 186.529,81.101 186.519,81.128C186.5,81.164 186.479,81.203 186.457,81.244C186.411,81.333 186.357,81.432 186.301,81.538C186.196,81.736 186.074,81.969 185.942,82.219C185.811,82.471 185.68,82.747 185.519,83.018C185.212,83.567 184.907,84.144 184.666,84.62C184.43,85.099 184.28,85.483 184.306,85.659L184.24,85.683Z" style="fill:rgb(51,51,51);fill-rule:nonzero;"/>
            <path d="M184.249,85.698C183.737,85.185 183.436,84.517 183.259,83.808C183.172,83.452 183.117,83.086 183.086,82.724C183.071,82.543 183.054,82.366 183.041,82.193C183.029,82.019 183.02,81.85 183.009,81.69C183,81.36 183,81.052 183.009,80.774C182.997,80.501 182.993,80.262 182.992,80.062C182.997,79.86 183.001,79.701 183.003,79.591C183.009,79.48 183.014,79.417 183.014,79.413L183.075,79.422C183.077,79.427 183.073,79.486 183.065,79.6C183.063,79.707 183.06,79.865 183.054,80.065C183.053,80.263 183.059,80.501 183.07,80.771C183.069,81.044 183.061,81.352 183.075,81.676C183.082,82.002 183.115,82.345 183.152,82.699C183.183,83.058 183.238,83.42 183.324,83.772C183.496,84.476 183.797,85.138 184.299,85.642L184.249,85.698Z" style="fill:rgb(51,51,51);fill-rule:nonzero;"/>
            <path d="M184.247,85.698C184.032,85.46 184.029,85.071 184.148,84.621C184.266,84.172 184.51,83.659 184.752,83.181C184.875,82.942 185.005,82.709 185.134,82.492C185.251,82.285 185.371,82.072 185.462,81.905C185.662,81.562 185.811,81.332 185.833,81.296L185.888,81.33C185.885,81.333 185.851,81.391 185.789,81.486C185.732,81.58 185.652,81.718 185.55,81.886C185.459,82.047 185.35,82.248 185.23,82.465C185.104,82.677 184.968,82.909 184.844,83.148C184.717,83.386 184.605,83.634 184.492,83.876C184.382,84.121 184.289,84.36 184.226,84.584C184.101,85.031 184.094,85.416 184.3,85.646L184.247,85.698Z" style="fill:rgb(51,51,51);fill-rule:nonzero;"/>
            <path d="M184.249,85.698C183.237,84.683 182.341,83.92 181.697,83.409C181.375,83.156 181.115,82.963 180.934,82.835C180.845,82.772 180.774,82.723 180.725,82.689C180.676,82.656 180.652,82.638 180.651,82.636L180.691,82.575C180.692,82.578 180.719,82.594 180.768,82.627C180.815,82.659 180.885,82.71 180.976,82.772C181.155,82.902 181.417,83.095 181.74,83.35C182.386,83.861 183.287,84.623 184.299,85.642L184.249,85.698Z" style="fill:rgb(51,51,51);fill-rule:nonzero;"/>
            <path d="M184.249,85.698C183.234,84.676 182.563,83.376 182.133,82.336C182.026,82.074 181.929,81.831 181.855,81.61C181.771,81.398 181.7,81.21 181.638,81.052C181.582,80.895 181.536,80.769 181.503,80.685C181.476,80.598 181.461,80.548 181.46,80.544L181.518,80.524C181.52,80.528 181.536,80.576 181.566,80.662C181.597,80.746 181.64,80.871 181.698,81.028C181.757,81.182 181.831,81.368 181.916,81.581C181.998,81.798 182.087,82.043 182.192,82.301C182.625,83.333 183.291,84.626 184.299,85.642L184.249,85.698Z" style="fill:rgb(51,51,51);fill-rule:nonzero;"/>
            <path d="M184.226,85.683L184.271,85.62C185.461,86.399 186.992,86.623 188.239,86.637C188.874,86.618 189.446,86.536 189.862,86.458C190.074,86.413 190.24,86.378 190.354,86.354C190.472,86.324 190.538,86.309 190.543,86.307L190.54,86.381C190.537,86.383 190.471,86.399 190.347,86.429C190.231,86.459 190.062,86.495 189.853,86.533C189.436,86.609 188.858,86.699 188.221,86.709C186.966,86.695 185.426,86.469 184.226,85.683Z" style="fill:rgb(51,51,51);fill-rule:nonzero;"/>
            <path d="M184.226,85.683L184.271,85.62C184.864,86.008 185.542,86.136 186.226,86.106C186.566,86.093 186.91,86.039 187.246,85.96C187.583,85.873 187.92,85.742 188.236,85.606C188.553,85.463 188.855,85.315 189.128,85.157C189.4,84.983 189.645,84.808 189.849,84.657C190.056,84.502 190.221,84.367 190.337,84.272C190.454,84.175 190.516,84.115 190.52,84.11L190.557,84.165C190.554,84.171 190.488,84.232 190.371,84.329C190.252,84.426 190.083,84.562 189.874,84.719C189.666,84.873 189.417,85.049 189.143,85.224C188.867,85.378 188.562,85.535 188.242,85.675C188.082,85.745 187.917,85.811 187.749,85.874C187.582,85.934 187.411,85.992 187.24,86.03C186.902,86.111 186.556,86.164 186.208,86.177C185.514,86.207 184.831,86.077 184.226,85.683Z" style="fill:rgb(51,51,51);fill-rule:nonzero;"/>
            <path d="M184.226,85.683L184.271,85.62C185.466,86.401 186.643,87.072 187.522,87.545C187.966,87.776 188.332,87.967 188.585,88.101C188.846,88.226 188.992,88.3 188.997,88.302L188.958,88.37C188.95,88.367 188.803,88.294 188.544,88.166C188.291,88.034 187.928,87.844 187.482,87.61C186.601,87.136 185.424,86.467 184.226,85.683Z" style="fill:rgb(51,51,51);fill-rule:nonzero;"/>
            <path d="M184.226,85.683L184.271,85.62C184.958,86.069 185.662,86.166 186.356,85.907C186.977,85.689 187.503,85.156 187.864,84.707C188.046,84.487 188.183,84.258 188.277,84.094C188.321,84.015 188.355,83.947 188.382,83.898C188.407,83.853 188.418,83.824 188.419,83.823L188.482,83.842C188.481,83.843 188.466,83.87 188.442,83.92C188.415,83.97 188.378,84.037 188.335,84.118C188.239,84.288 188.1,84.522 187.912,84.747C187.542,85.206 187.006,85.751 186.371,85.973C185.653,86.241 184.932,86.143 184.226,85.683Z" style="fill:rgb(51,51,51);fill-rule:nonzero;"/>
            <path d="M184.226,85.683L184.271,85.62C184.866,86.009 185.632,86.149 186.455,86.136C186.66,86.133 186.87,86.12 187.08,86.099C187.289,86.077 187.5,86.052 187.715,86.003C188.146,85.911 188.581,85.788 188.996,85.648L189.305,85.539C189.408,85.502 189.507,85.466 189.61,85.417C189.813,85.319 190.007,85.224 190.189,85.137C190.556,84.945 190.908,84.768 191.181,84.581L191.283,84.515L191.296,84.506L191.3,84.501L191.302,84.501C191.363,84.4 191.225,84.634 191.239,84.61L191.242,84.609L191.263,84.596L191.306,84.571C191.361,84.54 191.416,84.508 191.464,84.481C191.514,84.451 191.557,84.43 191.606,84.395C191.682,84.304 191.752,84.22 191.819,84.141C192.075,83.826 192.216,83.625 192.226,83.61L192.229,83.731C192.215,83.745 192.073,83.948 191.812,84.265C191.779,84.306 191.744,84.346 191.708,84.39L191.68,84.42C191.668,84.433 191.661,84.445 191.656,84.446L191.625,84.463C191.582,84.489 191.537,84.516 191.485,84.546C191.435,84.573 191.383,84.606 191.327,84.637L191.305,84.648L191.305,84.649C191.333,84.6 191.237,84.762 191.368,84.538L191.366,84.539L191.361,84.544L191.347,84.552L191.298,84.585C191.263,84.608 191.232,84.629 191.197,84.653C190.918,84.839 190.565,85.02 190.194,85.212C190.011,85.3 189.816,85.394 189.611,85.494C189.407,85.58 189.203,85.648 188.992,85.72C188.571,85.86 188.135,85.986 187.703,86.077C187.27,86.161 186.848,86.198 186.432,86.205C185.602,86.22 184.831,86.075 184.226,85.683Z" style="fill:rgb(51,51,51);fill-rule:nonzero;"/>
            <path d="M184.226,85.683L184.271,85.62C184.767,85.945 185.296,86.073 185.854,86.009C186.412,85.938 186.995,85.695 187.619,85.188C187.851,85.001 188.065,84.802 188.256,84.609C188.445,84.399 188.609,84.195 188.745,84.017C188.876,83.84 188.986,83.686 189.056,83.576C189.091,83.522 189.122,83.481 189.138,83.449C189.16,83.42 189.168,83.403 189.171,83.402L189.228,83.431C189.227,83.431 189.215,83.448 189.198,83.479C189.177,83.509 189.148,83.552 189.111,83.608C189.039,83.718 188.93,83.875 188.792,84.055C188.656,84.235 188.49,84.446 188.299,84.656C188.105,84.853 187.887,85.053 187.651,85.243C187.434,85.415 187.185,85.593 186.924,85.728C186.661,85.861 186.382,85.97 186.084,86.032C185.498,86.156 184.861,86.096 184.226,85.683Z" style="fill:rgb(51,51,51);fill-rule:nonzero;"/>
            <path d="M184.225,85.679L184.272,85.623C184.643,85.923 185.048,85.998 185.481,85.841C185.806,85.722 186.125,85.484 186.419,85.192C186.711,84.884 186.977,84.521 187.202,84.176C187.255,84.091 187.306,84.009 187.36,83.921C187.409,83.833 187.453,83.748 187.496,83.668C187.576,83.508 187.648,83.358 187.712,83.227C187.767,83.103 187.814,82.998 187.848,82.923C187.878,82.85 187.895,82.806 187.896,82.802L187.958,82.817C187.949,82.844 187.883,83.021 187.759,83.283C187.695,83.418 187.619,83.57 187.539,83.731C187.493,83.815 187.447,83.902 187.402,83.989L187.239,84.244C187.011,84.59 186.744,84.95 186.447,85.256C186.151,85.548 185.827,85.787 185.491,85.907C185.035,86.071 184.612,85.996 184.225,85.679Z" style="fill:rgb(51,51,51);fill-rule:nonzero;"/>
            <path d="M184.245,85.686L184.253,85.615C184.391,85.606 184.624,85.396 184.908,85.061C185.05,84.894 185.206,84.694 185.372,84.474C185.532,84.251 185.697,84.002 185.868,83.744C185.952,83.615 186.037,83.481 186.124,83.346L186.25,83.144L186.37,82.931C186.519,82.651 186.67,82.367 186.825,82.085C186.966,81.811 187.129,81.522 187.21,81.277C187.238,81.216 187.253,81.151 187.271,81.088C187.288,81.025 187.305,80.965 187.323,80.903C187.348,80.783 187.36,80.666 187.374,80.554L187.438,80.557C187.434,80.584 187.418,80.688 187.396,80.848C187.387,80.93 187.353,81.017 187.325,81.122C187.302,81.23 187.252,81.336 187.205,81.46C187.102,81.706 186.942,81.988 186.788,82.285C186.623,82.586 186.446,82.911 186.277,83.219C185.513,84.461 184.608,85.66 184.245,85.686Z" style="fill:rgb(51,51,51);fill-rule:nonzero;"/>
            <path d="M184.226,85.683L184.271,85.62C184.867,86.008 185.604,86.186 186.38,86.229C186.769,86.251 187.167,86.238 187.56,86.203C187.958,86.16 188.36,86.072 188.744,85.977C189.128,85.877 189.495,85.77 189.835,85.647C190.175,85.505 190.485,85.361 190.747,85.23C191.008,85.098 191.229,84.988 191.371,84.895C191.517,84.8 191.597,84.747 191.603,84.744L191.62,84.816C191.614,84.821 191.534,84.873 191.383,84.969C191.239,85.062 191.018,85.172 190.753,85.305C190.49,85.437 190.176,85.584 189.835,85.724C189.494,85.84 189.123,85.953 188.736,86.051C188.542,86.1 188.345,86.144 188.145,86.186C187.947,86.222 187.745,86.26 187.546,86.274C187.149,86.31 186.748,86.322 186.357,86.3C185.575,86.256 184.831,86.075 184.226,85.683Z" style="fill:rgb(51,51,51);fill-rule:nonzero;"/>
            <path d="M184.226,85.683L184.27,85.618C184.542,85.779 184.931,85.605 185.35,85.276C185.556,85.11 185.771,84.913 185.981,84.687C186.187,84.46 186.389,84.219 186.577,83.984C186.676,83.857 186.773,83.727 186.874,83.596C186.961,83.462 187.051,83.327 187.139,83.196C187.3,82.941 187.452,82.694 187.586,82.478C187.619,82.424 187.647,82.375 187.677,82.325L187.687,82.307L187.688,82.302L187.691,82.3C187.686,82.308 187.701,82.287 187.682,82.317L187.681,82.315L187.683,82.314L187.686,82.305L187.708,82.269L187.746,82.205C187.793,82.117 187.83,82.054 187.871,81.978C187.91,81.899 187.938,81.838 187.958,81.795C187.979,81.752 187.99,81.728 187.991,81.727L188.05,81.747C188.05,81.75 188.039,81.772 188.02,81.816C187.997,81.86 187.967,81.922 187.93,82.001C187.904,82.047 187.89,82.074 187.868,82.111C187.849,82.15 187.825,82.191 187.801,82.232L187.763,82.298L187.746,82.333L187.739,82.34L187.735,82.349L187.733,82.349L187.733,82.351C187.739,82.344 187.722,82.368 187.746,82.335L187.733,82.352C187.705,82.401 187.675,82.453 187.641,82.506C187.506,82.724 187.352,82.973 187.193,83.231C187.105,83.363 187.013,83.499 186.927,83.632C186.822,83.766 186.724,83.896 186.625,84.023C186.347,84.371 186.088,84.675 185.849,84.918C185.606,85.156 185.384,85.344 185.184,85.479C184.781,85.751 184.46,85.821 184.226,85.683Z" style="fill:rgb(51,51,51);fill-rule:nonzero;"/>
            <path d="M184.226,85.683L184.271,85.62C185.471,86.402 186.407,87.124 187.041,87.654C187.356,87.922 187.599,88.137 187.763,88.289C187.844,88.366 187.905,88.425 187.95,88.467C187.991,88.508 188.012,88.53 188.013,88.532L187.958,88.59C187.958,88.588 187.937,88.564 187.894,88.524C187.854,88.484 187.791,88.424 187.71,88.346C187.546,88.196 187.306,87.978 186.989,87.716C186.357,87.185 185.424,86.463 184.226,85.683Z" style="fill:rgb(51,51,51);fill-rule:nonzero;"/>
            <path d="M184.226,85.683L184.271,85.62C185.465,86.401 186.758,86.921 187.76,87.24C188.26,87.401 188.69,87.513 188.994,87.584C189.148,87.617 189.268,87.642 189.35,87.66C189.436,87.676 189.485,87.686 189.486,87.686L189.46,87.758C189.457,87.758 189.411,87.75 189.326,87.732C189.244,87.714 189.12,87.689 188.964,87.654C188.66,87.583 188.232,87.472 187.729,87.311C186.722,86.988 185.426,86.467 184.226,85.683Z" style="fill:rgb(51,51,51);fill-rule:nonzero;"/>
        </g>
    </g>
</svg>
