<svg width="40" height="40" viewBox="0 0 40 40" fill="none" xmlns="http://www.w3.org/2000/svg">
<path d="M20 1C9.50659 1 1 9.50659 1 20C1 30.4934 9.50659 39 20 39C30.4934 39 39 30.4934 39 20C39 9.50659 30.4934 1 20 1ZM20 4C28.8366 4 36 11.1634 36 20C36 28.8366 28.8366 36 20 36C11.1634 36 4 28.8366 4 20C4 11.1634 11.1634 4 20 4Z" fill="#FAE9D5"/>
<path d="M13.4998 30V11C13.4998 10.1716 12.8282 9.5 11.9998 9.5C11.1713 9.5 10.4998 10.1716 10.4998 11V30C10.4998 30.8284 11.1713 31.5 11.9998 31.5C12.8282 31.5 13.4998 30.8284 13.4998 30ZM28.7205 12.1279C28.2389 11.4539 27.3018 11.2978 26.6277 11.7793L16.1277 19.2793C15.7465 19.5516 15.5149 19.9868 15.5008 20.4551C15.4867 20.9233 15.6923 21.3713 16.0564 21.666L26.5564 30.166C27.2003 30.687 28.1446 30.5871 28.6658 29.9434C29.1867 29.2995 29.0869 28.3551 28.4431 27.834L19.4763 20.5742L28.3718 14.2207C29.0459 13.7392 29.202 12.802 28.7205 12.1279Z" fill="#FAE9D5"/>
</svg>
