<svg width="40" height="40" viewBox="0 0 40 40" fill="none" xmlns="http://www.w3.org/2000/svg">
<path d="M20 1C30.4934 1 39 9.50659 39 20C39 30.4934 30.4934 39 20 39C9.50659 39 1 30.4934 1 20C1 9.50659 9.50659 1 20 1ZM20 4C11.1634 4 4 11.1634 4 20C4 28.8366 11.1634 36 20 36C28.8366 36 36 28.8366 36 20C36 11.1634 28.8366 4 20 4Z" fill="#FAE9D5"/>
<path d="M25.0002 30V11C25.0002 10.1716 25.6718 9.5 26.5002 9.5C27.3287 9.5 28.0002 10.1716 28.0002 11V30C28.0002 30.8284 27.3287 31.5 26.5002 31.5C25.6718 31.5 25.0002 30.8284 25.0002 30ZM9.77952 12.1279C10.2611 11.4539 11.1982 11.2978 11.8723 11.7793L22.3723 19.2793C22.7535 19.5516 22.9851 19.9868 22.9992 20.4551C23.0133 20.9233 22.8077 21.3713 22.4436 21.666L11.9436 30.166C11.2997 30.687 10.3554 30.5871 9.83421 29.9434C9.31327 29.2995 9.41309 28.3551 10.0569 27.834L19.0237 20.5742L10.1282 14.2207C9.45411 13.7392 9.29803 12.802 9.77952 12.1279Z" fill="#FAE9D5"/>
</svg>
