<svg width="63" height="75" viewBox="0 0 63 75" fill="none" xmlns="http://www.w3.org/2000/svg">
<g filter="url(#filter0_f_9685_33202)">
<path d="M27.3286 41.8571C41.4118 54.2338 54.5549 61.4167 60 63.0635C56.0092 56.5408 48.6438 37.2431 37.5 26.5635C26.3562 15.8838 8.89659 13.107 3.0001 11.0635C4.99284 16.5686 13.2454 29.4804 27.3286 41.8571Z" fill="url(#paint0_linear_9685_33202)"/>
</g>
<path d="M26.3288 42.8569C40.412 55.2336 54.823 61.6215 60.2681 63.2683C56.2773 56.7456 47.0218 40.6786 35.878 29.999C24.7342 19.3193 8.64305 12.914 2.74657 10.8705C4.73931 16.3757 12.2456 30.4802 26.3288 42.8569Z" fill="url(#paint1_linear_9685_33202)"/>
<defs>
<filter id="filter0_f_9685_33202" x="0" y="8.06348" width="63" height="58" filterUnits="userSpaceOnUse" color-interpolation-filters="sRGB">
<feFlood flood-opacity="0" result="BackgroundImageFix"/>
<feBlend mode="normal" in="SourceGraphic" in2="BackgroundImageFix" result="shape"/>
<feGaussianBlur stdDeviation="1.5" result="effect1_foregroundBlur_9685_33202"/>
</filter>
<linearGradient id="paint0_linear_9685_33202" x1="47" y1="52.0635" x2="29.5" y2="22.5635" gradientUnits="userSpaceOnUse">
<stop stop-color="#307C2B"/>
<stop offset="1" stop-color="#6AA36A"/>
</linearGradient>
<linearGradient id="paint1_linear_9685_33202" x1="47.1486" y1="52.1846" x2="29.5193" y2="22.4379" gradientUnits="userSpaceOnUse">
<stop stop-color="#307C2B"/>
<stop offset="1" stop-color="#6AA36A"/>
</linearGradient>
</defs>
</svg>
