<svg width="24" height="24" viewBox="0 0 24 24" fill="none" xmlns="http://www.w3.org/2000/svg">
<path d="M6.5 17.5H13.125V10.875H6.5V17.5ZM16.125 18.125C16.125 18.5108 16.0212 19.0558 15.667 19.5479C15.2576 20.1164 14.5889 20.5 13.75 20.5H5.875C5.48918 20.5 4.94416 20.3962 4.45215 20.042C3.88361 19.6326 3.5 18.9639 3.5 18.125V10.25C3.5 9.86418 3.60383 9.31916 3.95801 8.82715C4.36735 8.25861 5.03612 7.875 5.875 7.875H13.75C14.1358 7.875 14.6808 7.97883 15.1729 8.33301C15.7414 8.74235 16.125 9.41112 16.125 10.25V18.125Z" fill="#FFEFCE"/>
<path d="M20.5 15.5C20.5 16.3284 19.8284 17 19 17C18.1716 17 17.5 16.3284 17.5 15.5V6.5H8.5C7.67157 6.5 7 5.82843 7 5C7 4.17157 7.67157 3.5 8.5 3.5H18.125C18.5108 3.5 19.0558 3.60383 19.5479 3.95801C20.1164 4.36735 20.5 5.03612 20.5 5.875V15.5Z" fill="#FFEFCE"/>
</svg>
