<svg width="26" height="25" viewBox="0 0 26 25" fill="none" xmlns="http://www.w3.org/2000/svg">
<path d="M24.7267 0.00400019L24.7293 4.70133L17.44 11.9893L21.2107 15.7613L23.0973 13.876L24.9827 15.7613L21.684 19.0613L25.4547 22.8333L23.5693 24.7187L19.7973 20.9467L16.4973 24.2467L14.612 22.3613L16.4973 20.4747L12.7267 16.704L8.956 20.4747L10.8427 22.3613L8.95733 24.2467L5.65733 20.9467L1.88533 24.7187L0 22.8333L3.77333 19.06L0.472 15.7613L2.35733 13.876L4.24267 15.76L8.012 11.9893L0.732 4.70933L0.726667 0L5.45467 0.00400019L12.7267 7.276L20.0027 0L24.7267 0.00400019ZM6.12667 17.6453L7.07067 18.588L10.84 14.8173L9.89733 13.8747L6.12667 17.6453Z" fill="#EA5D58"/>
</svg>
