<svg width="40" height="40" viewBox="0 0 40 40" fill="none" xmlns="http://www.w3.org/2000/svg">
<g filter="url(#filter0_i_9520_33674)">
<path d="M20 1C30.4934 1 39 9.50659 39 20C39 30.4934 30.4934 39 20 39C9.50659 39 1 30.4934 1 20C1 9.50659 9.50659 1 20 1ZM20 4C11.1634 4 4 11.1634 4 20C4 28.8366 11.1634 36 20 36C28.8366 36 36 28.8366 36 20C36 11.1634 28.8366 4 20 4Z" fill="#FAE9D5"/>
</g>
<g filter="url(#filter1_i_9520_33674)">
<path d="M31.5 19.134C32.1667 19.5189 32.1667 20.4811 31.5 20.866L15 30.3923C14.3333 30.7772 13.5 30.2961 13.5 29.5263L13.5 10.4737C13.5 9.70392 14.3333 9.22279 15 9.60769L31.5 19.134Z" fill="#FAE9D5"/>
</g>
<defs>
<filter id="filter0_i_9520_33674" x="1" y="1" width="38" height="39" filterUnits="userSpaceOnUse" color-interpolation-filters="sRGB">
<feFlood flood-opacity="0" result="BackgroundImageFix"/>
<feBlend mode="normal" in="SourceGraphic" in2="BackgroundImageFix" result="shape"/>
<feColorMatrix in="SourceAlpha" type="matrix" values="0 0 0 0 0 0 0 0 0 0 0 0 0 0 0 0 0 0 127 0" result="hardAlpha"/>
<feOffset dy="1"/>
<feGaussianBlur stdDeviation="1"/>
<feComposite in2="hardAlpha" operator="arithmetic" k2="-1" k3="1"/>
<feColorMatrix type="matrix" values="0 0 0 0 0.221154 0 0 0 0 0.118374 0 0 0 0 0.0361501 0 0 0 1 0"/>
<feBlend mode="normal" in2="shape" result="effect1_innerShadow_9520_33674"/>
</filter>
<filter id="filter1_i_9520_33674" x="13.5" y="9.47217" width="18.5" height="22.0557" filterUnits="userSpaceOnUse" color-interpolation-filters="sRGB">
<feFlood flood-opacity="0" result="BackgroundImageFix"/>
<feBlend mode="normal" in="SourceGraphic" in2="BackgroundImageFix" result="shape"/>
<feColorMatrix in="SourceAlpha" type="matrix" values="0 0 0 0 0 0 0 0 0 0 0 0 0 0 0 0 0 0 127 0" result="hardAlpha"/>
<feOffset dy="1"/>
<feGaussianBlur stdDeviation="1"/>
<feComposite in2="hardAlpha" operator="arithmetic" k2="-1" k3="1"/>
<feColorMatrix type="matrix" values="0 0 0 0 0.221154 0 0 0 0 0.118374 0 0 0 0 0.0361501 0 0 0 1 0"/>
<feBlend mode="normal" in2="shape" result="effect1_innerShadow_9520_33674"/>
</filter>
</defs>
</svg>
