<svg width="38" height="38" viewBox="0 0 38 38" fill="none" xmlns="http://www.w3.org/2000/svg">
<path fill-rule="evenodd" clip-rule="evenodd" d="M19 0C29.4934 0 38 8.50659 38 19C38 29.4934 29.4934 38 19 38C8.50659 38 0 29.4934 0 19C0 8.50659 8.50659 0 19 0ZM19 3C10.1634 3 3 10.1634 3 19C3 27.8366 10.1634 35 19 35C27.8366 35 35 27.8366 35 19C35 10.1634 27.8366 3 19 3Z" fill="#FAE9D5"/>
<path d="M11.9209 9.17673C12.1037 8.36901 12.9076 7.85785 13.7168 8.03512C14.3208 8.16778 14.7561 8.64659 14.8623 9.21676C16.6071 9.04043 18.5789 8.87323 20.1641 8.81247C21.2238 8.77186 22.2726 8.76972 22.9482 8.8945C23.1222 8.92664 23.3698 8.9838 23.6143 9.10153C23.7955 9.18888 24.3946 9.50968 24.5508 10.2666C24.6739 10.8643 24.4403 11.319 24.2451 11.581C24.2889 11.5836 24.3339 11.5877 24.3799 11.5898C25.2035 11.6271 26.2737 11.581 27.5752 11.4121L29.9443 11.1054L26.2881 22.122L25.291 22.1963C23.974 22.2943 21.9277 22.3372 20.4277 22.1758C20.0477 22.1348 19.6678 22.0772 19.3262 21.9931C19.0247 21.919 18.5865 21.7866 18.2158 21.5107C18.0173 21.3629 17.7515 21.11 17.5938 20.7177C17.5153 20.5223 17.4767 20.3237 17.4707 20.1299C15.8965 20.2538 13.875 20.5593 12.3565 20.8379L10.9678 26.9795C10.7849 27.7871 9.98108 28.2976 9.17188 28.1201C8.36289 27.9424 7.85462 27.1445 8.03712 26.3369L9.13282 21.4922L9.0918 21.5009L10.4863 15.5146L11.9209 9.17673ZM20.1582 11.8154C18.4145 11.8874 16.1682 12.0904 14.3184 12.289L13.4072 16.1972L13.0742 17.667C14.4984 17.434 16.1084 17.2176 17.4316 17.123C17.9681 17.0847 18.4837 17.0642 18.9346 17.0752C19.3441 17.0851 19.8494 17.1222 20.2813 17.2724C20.4856 17.3436 20.8779 17.5069 21.1797 17.8906C21.5045 18.3037 21.5922 18.7993 21.5059 19.25C22.3185 19.2931 23.2502 19.2905 24.0772 19.2588L25.627 14.5879C25.1317 14.6061 24.67 14.6061 24.2441 14.5869C23.2393 14.5414 22.316 14.3909 21.6113 14.0713C21.2592 13.9115 20.8429 13.6561 20.5371 13.2373C20.2404 12.8308 20.0971 12.3319 20.1582 11.8154Z" fill="#FAE9D5"/>
</svg>
