<svg width="38" height="38" viewBox="0 0 38 38" fill="none" xmlns="http://www.w3.org/2000/svg">
<path d="M35 19C35 10.1634 27.8366 3 19 3C10.1634 3 3 10.1634 3 19C3 27.8366 10.1634 35 19 35V38C8.50659 38 0 29.4934 0 19C0 8.50659 8.50659 0 19 0C29.4934 0 38 8.50659 38 19C38 29.4934 29.4934 38 19 38V35C27.8366 35 35 27.8366 35 19ZM17.877 12.8564C25.5407 12.8568 31.7536 19.0697 31.7539 26.7334C31.7539 26.9048 31.7484 27.0762 31.7422 27.2461C29.1999 24.05 25.2782 22.0001 20.877 22C19.8469 22 18.843 22.1123 17.877 22.3252V27.4277L4 17.7139L17.877 8V12.8564ZM9.23145 17.7139L14.877 21.665V19.9141L17.2314 19.3955C18.408 19.1362 19.6284 19 20.877 19L21.377 19.0068C23.1105 19.0574 24.7778 19.3718 26.3418 19.9072C24.3479 17.4378 21.2978 15.8566 17.877 15.8564H14.877V13.7617L9.23145 17.7139Z" fill="#FAE9D5"/>
</svg>
