<svg width="32" height="32" viewBox="0 0 32 32" fill="none" xmlns="http://www.w3.org/2000/svg">
<path d="M16.2344 12.5L14.874 12.7734L13.7598 13.5254L13.0078 14.6396L12.7344 16L13.0078 17.3604L13.7598 18.4746L14.874 19.2266L16.2344 19.5L17.5947 19.2266L18.709 18.4746L19.4609 17.3604L19.7344 16L19.4609 14.6396L18.709 13.5254L17.5947 12.7734L16.2344 12.5ZM16.2344 10.75L17.2939 10.8525L18.2852 11.1602L19.9531 12.2812L21.0742 13.9492L21.3818 14.9404L21.4844 16L21.3818 17.0596L21.0742 18.0508L19.9531 19.7188L18.2852 20.8398L17.2939 21.1475L16.2344 21.25L15.1748 21.1475L14.1836 20.8398L12.5156 19.7188L11.3945 18.0508L11.0869 17.0596L10.9844 16L11.0869 14.9404L11.3945 13.9492L12.5156 12.2812L14.1836 11.1602L15.1748 10.8525L16.2344 10.75ZM16.2344 3.75L15.25 3.78418L14.2793 3.88672L14.0469 5.24023L13.7871 6.58008L13.3633 7.69434L12.625 8.57617L11.6406 9.15723L10.4648 9.36914L9.30273 9.16406H9.28906L6.77344 8.23438H6.75977L5.625 9.85449L4.76367 11.625V11.6387L6.85547 13.416L7.74414 14.5713L8.05859 16L7.7373 17.4355L6.8418 18.5977L4.77734 20.3203V20.334L4.83203 20.4912L4.90039 20.6484L5.68652 22.2686L6.71875 23.752H6.73242L9.30273 22.8223L10.4238 22.6309L11.3159 22.7437L12.1328 23.082L13.2197 24.0664L13.7871 25.4199L14.252 28.0859L16.2344 28.25L17.2188 28.2158L18.1895 28.1133L18.3125 27.3682L18.4629 26.459L18.6406 25.5703L18.832 24.8867L19.3311 23.9639L20.0625 23.2461L20.9751 22.7847L22.0176 22.6309L22.8721 22.7607L23.8701 23.0684L24.8613 23.4375L25.709 23.7656L26.8438 22.1455L27.7051 20.375V20.3613L25.6133 18.584L24.7246 17.4287L24.4102 16L24.7314 14.5645L25.627 13.4023L27.6914 11.6797V11.666L27.6367 11.5088L27.5684 11.3516L26.7822 9.73145L25.75 8.24805H25.7363L23.166 9.17773L22.0449 9.36914L21.1528 9.25635L20.3359 8.91797L19.249 7.93359L18.6816 6.58008L18.2168 3.91406L16.2344 3.75ZM16.2344 2L17.3828 2.04102L18.5176 2.19141L19.4609 2.66992L19.9395 3.61328L20.0625 4.2832L20.2812 5.5957L20.4043 6.26562L20.5991 6.80225L20.9648 7.23633L21.4536 7.52344L22.0176 7.61914L22.9609 7.44141L23.6582 7.1543L24.1094 6.96289L24.8066 6.67578L25.75 6.49805L26.5088 6.66895L27.1172 7.1543L27.5342 7.70117L28.0332 8.45312L28.5527 9.32129L29.0107 10.21L29.332 11.0234L29.4551 11.666L29.209 12.5547L28.6006 13.2588L27.8076 13.8672L27.0146 14.4756L26.4062 15.1592L26.1602 16L26.4062 16.834L27.0215 17.5244L27.8145 18.1465L28.6074 18.7822L29.2227 19.5L29.4688 20.375L29.3389 21.0244L29.0039 21.8379L28.5322 22.7266L27.999 23.5879L27.4795 24.3398L27.0488 24.8867L26.4404 25.3516L25.709 25.5156L24.7861 25.3379L23.8496 24.9482L22.9199 24.5586L22.0176 24.3809L21.0879 24.627L20.582 25.2627L20.3291 26.124L20.1719 27.0332L19.9121 28.4141L19.4199 29.3643L18.4492 29.8359L17.3486 29.9658L16.2344 30L15.0859 29.959L13.9512 29.8086L13.0078 29.3232L12.5293 28.373L12.3516 27.3887L12.2422 26.7188L12.0645 25.7344L11.8696 25.1978L11.5039 24.7637L11.0151 24.4766L10.4512 24.3809L9.50781 24.5586L8.81055 24.8457L8.35938 25.0371L7.66211 25.3242L6.71875 25.502L5.9668 25.3311L5.35156 24.8457L4.93457 24.2988L4.43555 23.5469L3.91602 22.6787L3.45801 21.79L3.13672 20.9766L3.01367 20.334L3.25977 19.4521L3.86816 18.7412L4.66113 18.1328L5.4541 17.5244L6.0625 16.8408L6.30859 16L6.0625 15.166L5.44727 14.4756L4.6543 13.8535L3.86133 13.2178L3.24609 12.5L3 11.625L3.12988 10.9961L3.46484 10.1758L3.93652 9.28027L4.46973 8.40527L4.98242 7.64648L5.40625 7.11328L6.02832 6.64844L6.77344 6.48438L7.70312 6.66211L8.60547 7.05176L9.51465 7.44141L10.4512 7.61914L11.0237 7.52515L11.5107 7.24316L11.8713 6.81079L12.0645 6.26562L12.5566 3.58594L13.0557 2.64258L14.0195 2.16406L15.127 2.03418L16.2344 2Z" fill="white"/>
</svg>
