<svg width="38" height="38" viewBox="0 0 38 38" fill="none" xmlns="http://www.w3.org/2000/svg">
<path fill-rule="evenodd" clip-rule="evenodd" d="M19 0C29.4934 0 38 8.50659 38 19C38 29.4934 29.4934 38 19 38C8.50659 38 0 29.4934 0 19C0 8.50659 8.50659 0 19 0ZM19 3C10.1634 3 3 10.1634 3 19C3 27.8366 10.1634 35 19 35C27.8366 35 35 27.8366 35 19C35 10.1634 27.8366 3 19 3Z" fill="#FAE9D5"/>
<path d="M22 31C22.5523 31 23 31.4477 23 32C23 32.5523 22.5523 33 22 33H16C15.4477 33 15 32.5523 15 32C15 31.4477 15.4477 31 16 31H22Z" fill="#FAE9D5"/>
<path d="M19 10C22.0199 10.0002 24.5175 12.2318 24.9365 15.1357C24.9761 15.2434 25 15.3651 25 15.5C25 15.5515 24.9945 15.601 24.9883 15.6484C24.9886 15.6541 24.9899 15.6603 24.9902 15.666H24.9863C24.9038 16.2214 24.4136 16.4998 24 16.5C23.5864 16.4999 23.0963 16.2213 23.0137 15.666H22.9844C22.8201 13.6808 21.2074 12.1063 19.2051 12.0049L18.999 11.999C18.3333 11.9986 18.0002 11.4529 18 11C18.0002 10.5471 18.3342 10.0004 19 10Z" fill="#FAE9D5"/>
<path fill-rule="evenodd" clip-rule="evenodd" d="M19 5C25.0751 5 30 9.92487 30 16C30 19.8607 28.0091 23.2539 25 25.2168V27.999C25 29.1036 24.1046 30 23 30H15C13.8956 30 13.0003 29.1043 13 28V25.2168C9.99088 23.2539 8 19.8607 8 16C8 9.92487 12.9249 5 19 5ZM15 28H23V26H15V28ZM19 8C14.5817 8 11 11.5817 11 16C11 19.0136 12.6672 21.6362 15.1289 23H22.8711C25.3328 21.6362 27 19.0137 27 16C27 11.5817 23.4183 8 19 8Z" fill="#FAE9D5"/>
</svg>
