<svg width="302" height="105" viewBox="0 0 302 105" fill="none" xmlns="http://www.w3.org/2000/svg">
<rect x="8" y="9" width="286" height="87" stroke="#8E5210" stroke-width="2"/>
<rect x="8" y="9" width="286" height="88" fill="#FBF5E8" fill-opacity="0.6" stroke="#8E5210" stroke-width="2"/>
<path d="M2 85L2 19.5L20 19.5L20 2L282 2L282 19.5L300 19.5L300 85L282 85V103L20 103L20 85L2 85Z" stroke="#8E5210" stroke-width="4"/>
<g filter="url(#filter0_i_9503_33182)">
<path d="M98.448 70.432L94.608 75.472C85.968 68.128 80.496 60.88 77.472 52.672C74.544 60.976 69.024 68.176 60.336 74.896L56.352 70.192C69.84 60.304 74.4 51.808 74.736 36.208C74.784 35.488 74.784 34.048 74.784 31.84L80.112 32.032V35.344C80.112 36.88 80.112 37.888 80.064 38.32C80.016 40 79.872 41.44 79.728 42.736C81.84 54.208 88.128 63.088 98.448 70.432ZM143.714 60.88L148.466 62.272C148.466 64.624 148.37 66.88 148.13 69.04C147.746 73.168 146.642 74.224 142.706 74.128H140.402C137.09 74.176 135.746 72.736 135.746 68.704V39.28H129.41V50.656C129.41 55.12 129.218 58.768 128.786 61.552C128.402 64.336 127.682 66.784 126.674 68.944C125.666 71.056 124.178 73.264 122.21 75.52L117.65 72.496C122.546 66.976 123.602 64.192 124.13 55.744L121.106 58.864C120.05 57.376 118.706 55.648 117.026 53.776V74.896H112.178V56.032C110.882 58.672 109.394 61.12 107.762 63.424L104.354 59.536C105.554 57.808 106.898 55.552 108.29 52.816C109.73 50.08 110.93 47.392 111.89 44.752H106.274V39.712H112.178V31.36L117.026 31.6V39.712H122.642V44.752H117.026V49.648L118.37 48.448C119.09 49.168 120.098 50.272 121.298 51.664C122.498 53.056 123.458 54.256 124.178 55.216C124.226 54.304 124.226 52.768 124.226 50.608V33.952H140.978V67.216C140.978 68.704 141.122 68.848 142.13 68.848C142.898 68.848 143.09 68.656 143.33 66.784C143.57 65.104 143.666 63.136 143.714 60.88ZM197.764 69.472L194.356 74.704C185.62 69.376 179.62 63.28 176.356 56.416C173.092 63.568 166.804 69.28 158.356 74.704L154.66 69.52C159.748 66.784 163.924 63.568 167.188 59.92C170.5 56.272 172.42 52.144 172.948 47.488H156.388V42.16H173.092V31.408L178.852 31.6V42.16H195.748V47.488H178.756C178.708 47.584 178.708 47.728 178.708 47.968C179.908 52.72 181.972 56.8 184.996 60.112C188.02 63.424 192.244 66.544 197.764 69.472ZM242.79 61.888L247.254 64.096C246.918 66.352 246.294 68.656 245.43 70.912C244.422 73.648 242.598 74.752 239.718 74.752C236.838 74.752 234.774 73.072 232.806 68.992C232.374 68.032 232.038 67.312 231.846 66.784C229.974 68.368 228.102 69.712 226.23 70.816L223.35 66.208C225.99 64.624 228.246 62.944 230.214 61.264C229.494 58.096 228.966 54.208 228.582 49.552L223.398 50.368L222.822 45.424L228.198 44.56L228.006 41.152L227.814 38.272C227.766 37.456 227.718 36.256 227.574 34.624C227.478 32.992 227.43 31.888 227.43 31.36L232.422 31.504C232.47 33.952 232.662 37.312 232.998 41.68C233.046 42.64 233.142 43.36 233.19 43.792L245.142 41.92L245.67 46.912L233.622 48.784C234.006 52.672 234.342 55.456 234.582 57.136C237.222 54.304 239.334 51.424 240.822 48.496L244.902 50.992C242.598 55.216 239.574 59.248 235.83 63.136C236.07 64.144 236.454 65.056 236.886 65.968C237.606 67.408 238.086 68.32 238.374 68.752C238.71 69.184 239.094 69.376 239.526 69.376C240.534 69.376 241.014 68.8 241.542 67.504C241.878 66.688 242.118 65.872 242.262 65.152C242.406 64.432 242.598 63.328 242.79 61.888ZM244.182 37.648L240.726 41.392C239.334 39.856 237.126 37.696 234.102 34.912L237.27 31.552C238.806 32.752 241.11 34.768 244.182 37.648ZM224.886 38.896V43.504H216.294V51.232H222.582V72.784H205.494V51.232H211.254V32.128L216.294 32.32V38.896H224.886ZM210.438 56.32V67.936H217.83V56.32H210.438Z" fill="url(#paint0_linear_9503_33182)"/>
</g>
<defs>
<filter id="filter0_i_9503_33182" x="56.3521" y="31.3599" width="190.902" height="48.1602" filterUnits="userSpaceOnUse" color-interpolation-filters="sRGB">
<feFlood flood-opacity="0" result="BackgroundImageFix"/>
<feBlend mode="normal" in="SourceGraphic" in2="BackgroundImageFix" result="shape"/>
<feColorMatrix in="SourceAlpha" type="matrix" values="0 0 0 0 0 0 0 0 0 0 0 0 0 0 0 0 0 0 127 0" result="hardAlpha"/>
<feOffset dy="4"/>
<feGaussianBlur stdDeviation="5"/>
<feComposite in2="hardAlpha" operator="arithmetic" k2="-1" k3="1"/>
<feColorMatrix type="matrix" values="0 0 0 0 0.163462 0 0 0 0 0.0870037 0 0 0 0 0 0 0 0 1 0"/>
<feBlend mode="normal" in2="shape" result="effect1_innerShadow_9503_33182"/>
</filter>
<linearGradient id="paint0_linear_9503_33182" x1="218.281" y1="82" x2="217.837" y2="25.0124" gradientUnits="userSpaceOnUse">
<stop stop-color="#221200"/>
<stop offset="1" stop-color="#C36F14"/>
</linearGradient>
</defs>
</svg>
