<svg width="32" height="32" viewBox="0 0 32 32" fill="none" xmlns="http://www.w3.org/2000/svg">
<path d="M10.5665 5L11.2016 5.26815L11.4698 5.90323L11.2016 6.53831L5.07661 12.6633H16.4516L18.2828 12.785L20.0504 13.1502L21.7281 13.7359L23.2893 14.5192L24.7253 15.4894L26.0272 16.6361L27.1739 17.938L28.1442 19.374L28.9274 20.9352L29.5131 22.6129L29.8783 24.3805L30 26.2117L29.7319 26.8468L29.0968 27.1149L28.4617 26.8468L28.1935 26.2117L28.1 24.7104L27.8196 23.2268L27.3485 21.7926L26.6835 20.4395L24.7853 17.9486L22.379 16.0716L21.0189 15.3906L19.5635 14.8861L18.034 14.5738L16.4516 14.4698H5.07661L11.2016 20.5948L11.4698 21.2298L11.2016 21.8649L10.5665 22.1331L9.93145 21.8649L2.26815 14.2016L2 13.5665L2.26815 12.9315L9.93145 5.26815L10.5665 5Z" fill="white"/>
</svg>
