<svg width="201" height="52" viewBox="0 0 201 52" fill="none" xmlns="http://www.w3.org/2000/svg">
<path d="M22 1.00094C19.5 1.00089 15 0.84094 15 6.6009C13.5 6.6009 11 6.4409 11 9.00088V13.0008C8 13.6675 1 16.5208 1 25.8007C1 35.4006 8 38.4673 11 38.6006V43.4005C11.1667 44.4672 12.2 46.6005 15 46.6005C14.8333 48.0672 15.8 51.0005 21 51.0005" stroke="#B98242" stroke-width="2" stroke-linecap="round"/>
<path d="M179 1.00094C181.5 1.00089 186 0.84094 186 6.6009C187.5 6.6009 190 6.4409 190 9.00088V13.0008C193 13.6675 200 16.5208 200 25.8007C200 35.4006 193 38.4673 190 38.6006V43.4005C189.833 44.4672 188.8 46.6005 186 46.6005C186.167 48.0672 185.2 51.0005 180 51.0005" stroke="#B98242" stroke-width="2" stroke-linecap="round"/>
<path d="M179 51.0006H21M22 1.00098H179.218" stroke="#B98242" stroke-width="2" stroke-linecap="round"/>
</svg>
